solid OpenSCAD_Model
  facet normal 1 1.24603e-06 -1.86482e-06
    outer loop
      vertex 3 5.20711 -4.00711
      vertex 3 5.5 -3.3
      vertex 3 4.88268 -4.22388
    endloop
  endfacet
  facet normal 1 0 -1.15118e-06
    outer loop
      vertex 3 4.70711 -3.50711
      vertex 3 5.5 -3.3
      vertex 3 4.84549 -3.3
    endloop
  endfacet
  facet normal 1 -6.983e-08 -8.83844e-07
    outer loop
      vertex 3 4.70711 -3.50711
      vertex 3 4.5 -4.3
      vertex 3 5.5 -3.3
    endloop
  endfacet
  facet normal 1 -1.60088e-07 -8.60269e-07
    outer loop
      vertex 3 4.38268 -3.72388
      vertex 3 4.5 -4.3
      vertex 3 4.70711 -3.50711
    endloop
  endfacet
  facet normal 1 1.58225e-07 -7.9545e-07
    outer loop
      vertex 3 4 -3.8
      vertex 3 4.5 -4.3
      vertex 3 4.38268 -3.72388
    endloop
  endfacet
  facet normal 1 0 -9.53674e-07
    outer loop
      vertex 3 -4 -3.8
      vertex 3 4.5 -4.3
      vertex 3 4 -3.8
    endloop
  endfacet
  facet normal 1 0 -9.53674e-07
    outer loop
      vertex 3 -4 -3.8
      vertex 3 -4.5 -4.3
      vertex 3 4.5 -4.3
    endloop
  endfacet
  facet normal 1 -1.58225e-07 -7.9545e-07
    outer loop
      vertex 3 -4.38268 -3.72388
      vertex 3 -4.5 -4.3
      vertex 3 -4 -3.8
    endloop
  endfacet
  facet normal 1 1.60088e-07 -8.60269e-07
    outer loop
      vertex 3 -4.70711 -3.50711
      vertex 3 -4.5 -4.3
      vertex 3 -4.38268 -3.72388
    endloop
  endfacet
  facet normal 1 0 -1.15118e-06
    outer loop
      vertex 3 -5.5 -3.3
      vertex 3 -4.70711 -3.50711
      vertex 3 -4.84549 -3.3
    endloop
  endfacet
  facet normal 1 6.983e-08 -8.83844e-07
    outer loop
      vertex 3 -4.70711 -3.50711
      vertex 3 -5.5 -3.3
      vertex 3 -4.5 -4.3
    endloop
  endfacet
  facet normal 0 1 -0
    outer loop
      vertex 3 5.5 -3.3
      vertex 1 5.5 3.3
      vertex 3 5.5 3.3
    endloop
  endfacet
  facet normal 0 1 0
    outer loop
      vertex 1 5.5 3.3
      vertex 3 5.5 -3.3
      vertex 1 5.5 -3.3
    endloop
  endfacet
  facet normal 1 0 0
    outer loop
      vertex 3 5.5 3.3
      vertex 3 4.92388 3.18268
      vertex 3 5 2.8
    endloop
  endfacet
  facet normal 1 0 0
    outer loop
      vertex 3 4.70711 3.50711
      vertex 3 5.20711 4.00711
      vertex 3 4.88268 4.22388
    endloop
  endfacet
  facet normal 1 0 0
    outer loop
      vertex 3 5.42388 3.68268
      vertex 3 4.70711 3.50711
      vertex 3 4.92388 3.18268
    endloop
  endfacet
  facet normal 1 0 0
    outer loop
      vertex 3 4.38268 3.72388
      vertex 3 4.88268 4.22388
      vertex 3 4.5 4.3
    endloop
  endfacet
  facet normal 1 0 0
    outer loop
      vertex 3 4.88268 4.22388
      vertex 3 4.38268 3.72388
      vertex 3 4.70711 3.50711
    endloop
  endfacet
  facet normal 1 0 0
    outer loop
      vertex 3 4.5 4.3
      vertex 3 4 3.8
      vertex 3 4.38268 3.72388
    endloop
  endfacet
  facet normal 1 -0 0
    outer loop
      vertex 3 2.68701 4.08701
      vertex 3 4 3.8
      vertex 3 4.5 4.3
    endloop
  endfacet
  facet normal 1 0 0
    outer loop
      vertex 3 4 3.8
      vertex 3 2.93744 3.81069
      vertex 3 2.94537 3.8
    endloop
  endfacet
  facet normal 1 0 0
    outer loop
      vertex 3 4 3.8
      vertex 3 2.68701 4.08701
      vertex 3 2.93744 3.81069
    endloop
  endfacet
  facet normal 1 0 -0
    outer loop
      vertex 3 2.68701 4.08701
      vertex 3 4.5 4.3
      vertex 3 2.452 4.3
    endloop
  endfacet
  facet normal 1 0 0
    outer loop
      vertex 3 4.92388 3.18268
      vertex 3 5.5 3.3
      vertex 3 5.42388 3.68268
    endloop
  endfacet
  facet normal 1 0 0
    outer loop
      vertex 3 4.70711 3.50711
      vertex 3 5.42388 3.68268
      vertex 3 5.20711 4.00711
    endloop
  endfacet
  facet normal 1 0 0
    outer loop
      vertex 3 5.5 3.3
      vertex 3 5 2.8
      vertex 3 5.5 -3.3
    endloop
  endfacet
  facet normal 1 -0 0
    outer loop
      vertex 3 5 -2.8
      vertex 3 5.5 -3.3
      vertex 3 5 2.8
    endloop
  endfacet
  facet normal 1 -0 0
    outer loop
      vertex 3 4.92388 -3.18268
      vertex 3 5.5 -3.3
      vertex 3 5 -2.8
    endloop
  endfacet
  facet normal 1 0 0
    outer loop
      vertex 3 5.5 -3.3
      vertex 3 4.92388 -3.18268
      vertex 3 4.84549 -3.3
    endloop
  endfacet
  facet normal 1 0 0
    outer loop
      vertex 3 -2.93744 3.81069
      vertex 3 -4 3.8
      vertex 3 -2.94537 3.8
    endloop
  endfacet
  facet normal 1 0 0
    outer loop
      vertex 3 -2.68701 4.08701
      vertex 3 -4 3.8
      vertex 3 -2.93744 3.81069
    endloop
  endfacet
  facet normal 1 -0 0
    outer loop
      vertex 3 -4.5 4.3
      vertex 3 -2.68701 4.08701
      vertex 3 -2.452 4.3
    endloop
  endfacet
  facet normal 1 0 0
    outer loop
      vertex 3 -2.68701 4.08701
      vertex 3 -4.5 4.3
      vertex 3 -4 3.8
    endloop
  endfacet
  facet normal 1 0 0
    outer loop
      vertex 3 -4 3.8
      vertex 3 -4.5 4.3
      vertex 3 -4.38268 3.72388
    endloop
  endfacet
  facet normal 1 -0 0
    outer loop
      vertex 3 -4.88268 4.22388
      vertex 3 -4.38268 3.72388
      vertex 3 -4.5 4.3
    endloop
  endfacet
  facet normal 1 0 0
    outer loop
      vertex 3 -4.38268 3.72388
      vertex 3 -4.88268 4.22388
      vertex 3 -4.70711 3.50711
    endloop
  endfacet
  facet normal 1 -0 0
    outer loop
      vertex 3 -5.20711 4.00711
      vertex 3 -4.70711 3.50711
      vertex 3 -4.88268 4.22388
    endloop
  endfacet
  facet normal 1 -0 0
    outer loop
      vertex 3 -5.42388 3.68268
      vertex 3 -4.70711 3.50711
      vertex 3 -5.20711 4.00711
    endloop
  endfacet
  facet normal 1 -0 0
    outer loop
      vertex 3 -5.5 3.3
      vertex 3 -4.92388 3.18268
      vertex 3 -5.42388 3.68268
    endloop
  endfacet
  facet normal 1 0 0
    outer loop
      vertex 3 -4.70711 3.50711
      vertex 3 -5.42388 3.68268
      vertex 3 -4.92388 3.18268
    endloop
  endfacet
  facet normal 1 0 0
    outer loop
      vertex 3 -4.92388 3.18268
      vertex 3 -5.5 3.3
      vertex 3 -5 2.8
    endloop
  endfacet
  facet normal 1 0 0
    outer loop
      vertex 3 -5 2.8
      vertex 3 -5.5 3.3
      vertex 3 -5 -2.8
    endloop
  endfacet
  facet normal 1 0 0
    outer loop
      vertex 3 -4.92388 -3.18268
      vertex 3 -5.5 -3.3
      vertex 3 -4.84549 -3.3
    endloop
  endfacet
  facet normal 1 0 0
    outer loop
      vertex 3 -5 -2.8
      vertex 3 -5.5 -3.3
      vertex 3 -4.92388 -3.18268
    endloop
  endfacet
  facet normal 1 0 0
    outer loop
      vertex 3 -5.5 -3.3
      vertex 3 -5 -2.8
      vertex 3 -5.5 3.3
    endloop
  endfacet
  facet normal 0 0.980785 -0.195092
    outer loop
      vertex 3 5.42388 -3.68268
      vertex 1 5.5 -3.3
      vertex 3 5.5 -3.3
    endloop
  endfacet
  facet normal 0 0.980785 -0.195092
    outer loop
      vertex 1 5.5 -3.3
      vertex 3 5.42388 -3.68268
      vertex 1 5.42388 -3.68268
    endloop
  endfacet
  facet normal 0 0.831471 -0.555569
    outer loop
      vertex 3 5.20711 -4.00711
      vertex 1 5.42388 -3.68268
      vertex 3 5.42388 -3.68268
    endloop
  endfacet
  facet normal 0 0.831471 -0.555569
    outer loop
      vertex 1 5.42388 -3.68268
      vertex 3 5.20711 -4.00711
      vertex 1 5.20711 -4.00711
    endloop
  endfacet
  facet normal 1 2.368e-07 -1.19047e-06
    outer loop
      vertex 3 4.88268 -4.22388
      vertex 3 5.5 -3.3
      vertex 3 4.5 -4.3
    endloop
  endfacet
  facet normal 1 0 0
    outer loop
      vertex 1 5.8 5.6
      vertex 1 6.8 4.6
      vertex 1 6.72388 4.98268
    endloop
  endfacet
  facet normal 1 0 0
    outer loop
      vertex 1 6.8 4.6
      vertex 1 5.5 3.3
      vertex 1 6.8 -4.6
    endloop
  endfacet
  facet normal 1 0 0
    outer loop
      vertex 1 5.8 5.6
      vertex 1 6.72388 4.98268
      vertex 1 6.50711 5.30711
    endloop
  endfacet
  facet normal 1 -0 0
    outer loop
      vertex 1 5.5 -3.3
      vertex 1 6.8 -4.6
      vertex 1 5.5 3.3
    endloop
  endfacet
  facet normal 1 0 0
    outer loop
      vertex 1 5.8 5.6
      vertex 1 6.50711 5.30711
      vertex 1 6.18268 5.52388
    endloop
  endfacet
  facet normal 1 -0 0
    outer loop
      vertex 1 5.42388 -3.68268
      vertex 1 6.8 -4.6
      vertex 1 5.5 -3.3
    endloop
  endfacet
  facet normal 1 0 0
    outer loop
      vertex 1 6.8 4.6
      vertex 1 5.8 5.6
      vertex 1 5.5 3.3
    endloop
  endfacet
  facet normal 1 -0 0
    outer loop
      vertex 1 5.20711 -4.00711
      vertex 1 6.8 -4.6
      vertex 1 5.42388 -3.68268
    endloop
  endfacet
  facet normal 1 0 0
    outer loop
      vertex 1 6.8 -4.6
      vertex 1 5.20711 -4.00711
      vertex 1 6.72388 -4.98268
    endloop
  endfacet
  facet normal 1 -0 0
    outer loop
      vertex 1 3.15958 3.51117
      vertex 1 5.5 3.3
      vertex 1 5.8 5.6
    endloop
  endfacet
  facet normal 1 0 0
    outer loop
      vertex 1 5.5 3.3
      vertex 1 3.15958 3.51117
      vertex 1 3.28615 3.3
    endloop
  endfacet
  facet normal 1 0 0
    outer loop
      vertex 1 5.8 5.6
      vertex 1 2.93744 3.81069
      vertex 1 3.15958 3.51117
    endloop
  endfacet
  facet normal 1 0 0
    outer loop
      vertex 1 5.8 5.6
      vertex 1 2.68701 4.08701
      vertex 1 2.93744 3.81069
    endloop
  endfacet
  facet normal 1 0 0
    outer loop
      vertex 1 5.8 5.6
      vertex 1 2.41069 4.33744
      vertex 1 2.68701 4.08701
    endloop
  endfacet
  facet normal 1 0 0
    outer loop
      vertex 1 5.8 5.6
      vertex 1 2.11117 4.55958
      vertex 1 2.41069 4.33744
    endloop
  endfacet
  facet normal 1 0 0
    outer loop
      vertex 1 5.8 5.6
      vertex 1 1.79131 4.7513
      vertex 1 2.11117 4.55958
    endloop
  endfacet
  facet normal 1 0 0
    outer loop
      vertex 1 5.8 5.6
      vertex 1 1.4542 4.91074
      vertex 1 1.79131 4.7513
    endloop
  endfacet
  facet normal 1 0 0
    outer loop
      vertex 1 5.8 5.6
      vertex 1 1.10308 5.03637
      vertex 1 1.4542 4.91074
    endloop
  endfacet
  facet normal 1 0 0
    outer loop
      vertex 1 5.8 5.6
      vertex 1 0.741343 5.12698
      vertex 1 1.10308 5.03637
    endloop
  endfacet
  facet normal 1 0 0
    outer loop
      vertex 1 5.8 5.6
      vertex 1 0.372464 5.1817
      vertex 1 0.741343 5.12698
    endloop
  endfacet
  facet normal 1 0 0
    outer loop
      vertex 1 5.8 5.6
      vertex 1 0 5.2
      vertex 1 0.372464 5.1817
    endloop
  endfacet
  facet normal 1 -0 0
    outer loop
      vertex 1 -5.8 5.6
      vertex 1 0 5.2
      vertex 1 5.8 5.6
    endloop
  endfacet
  facet normal 1 0 0
    outer loop
      vertex 1 -3.15958 3.51117
      vertex 1 -5.5 3.3
      vertex 1 -3.28615 3.3
    endloop
  endfacet
  facet normal 1 0 0
    outer loop
      vertex 1 -5.8 5.6
      vertex 1 -3.15958 3.51117
      vertex 1 -2.93744 3.81069
    endloop
  endfacet
  facet normal 1 0 0
    outer loop
      vertex 1 -5.8 5.6
      vertex 1 -2.93744 3.81069
      vertex 1 -2.68701 4.08701
    endloop
  endfacet
  facet normal 1 0 0
    outer loop
      vertex 1 -5.8 5.6
      vertex 1 -2.68701 4.08701
      vertex 1 -2.41069 4.33744
    endloop
  endfacet
  facet normal 1 0 0
    outer loop
      vertex 1 -5.8 5.6
      vertex 1 -2.41069 4.33744
      vertex 1 -2.11117 4.55958
    endloop
  endfacet
  facet normal 1 0 0
    outer loop
      vertex 1 -5.8 5.6
      vertex 1 -2.11117 4.55958
      vertex 1 -1.79131 4.7513
    endloop
  endfacet
  facet normal 1 0 0
    outer loop
      vertex 1 -5.8 5.6
      vertex 1 -1.79131 4.7513
      vertex 1 -1.4542 4.91074
    endloop
  endfacet
  facet normal 1 -0 0
    outer loop
      vertex 1 -6.8 4.6
      vertex 1 -5.5 3.3
      vertex 1 -5.8 5.6
    endloop
  endfacet
  facet normal 1 0 0
    outer loop
      vertex 1 -3.15958 3.51117
      vertex 1 -5.8 5.6
      vertex 1 -5.5 3.3
    endloop
  endfacet
  facet normal 1 0 0
    outer loop
      vertex 1 -1.10308 5.03637
      vertex 1 -5.8 5.6
      vertex 1 -1.4542 4.91074
    endloop
  endfacet
  facet normal 1 0 0
    outer loop
      vertex 1 -0.741343 5.12698
      vertex 1 -5.8 5.6
      vertex 1 -1.10308 5.03637
    endloop
  endfacet
  facet normal 1 0 0
    outer loop
      vertex 1 -0.372464 5.1817
      vertex 1 -5.8 5.6
      vertex 1 -0.741343 5.12698
    endloop
  endfacet
  facet normal 1 0 0
    outer loop
      vertex 1 0 5.2
      vertex 1 -5.8 5.6
      vertex 1 -0.372464 5.1817
    endloop
  endfacet
  facet normal 1 0 0
    outer loop
      vertex 1 6.72388 -4.98268
      vertex 1 5.20711 -4.00711
      vertex 1 6.50711 -5.30711
    endloop
  endfacet
  facet normal 1 0 0
    outer loop
      vertex 1 6.50711 -5.30711
      vertex 1 5.20711 -4.00711
      vertex 1 6.18268 -5.52388
    endloop
  endfacet
  facet normal 1 0 0
    outer loop
      vertex 1 6.18268 -5.52388
      vertex 1 5.20711 -4.00711
      vertex 1 5.8 -5.6
    endloop
  endfacet
  facet normal 1 -0 0
    outer loop
      vertex 1 4.88268 -4.22388
      vertex 1 5.8 -5.6
      vertex 1 5.20711 -4.00711
    endloop
  endfacet
  facet normal 1 -0 0
    outer loop
      vertex 1 4.5 -4.3
      vertex 1 5.8 -5.6
      vertex 1 4.88268 -4.22388
    endloop
  endfacet
  facet normal 1 -0 0
    outer loop
      vertex 1 -4.5 -4.3
      vertex 1 5.8 -5.6
      vertex 1 4.5 -4.3
    endloop
  endfacet
  facet normal 1 0 0
    outer loop
      vertex 1 -4.5 -4.3
      vertex 1 -5.8 -5.6
      vertex 1 5.8 -5.6
    endloop
  endfacet
  facet normal 1 0 0
    outer loop
      vertex 1 -4.88268 -4.22388
      vertex 1 -5.8 -5.6
      vertex 1 -4.5 -4.3
    endloop
  endfacet
  facet normal 1 0 0
    outer loop
      vertex 1 -5.20711 -4.00711
      vertex 1 -5.8 -5.6
      vertex 1 -4.88268 -4.22388
    endloop
  endfacet
  facet normal 1 0 0
    outer loop
      vertex 1 -6.8 -4.6
      vertex 1 -5.20711 -4.00711
      vertex 1 -5.42388 -3.68268
    endloop
  endfacet
  facet normal 1 0 0
    outer loop
      vertex 1 -6.8 -4.6
      vertex 1 -5.42388 -3.68268
      vertex 1 -5.5 -3.3
    endloop
  endfacet
  facet normal 1 0 0
    outer loop
      vertex 1 -5.5 3.3
      vertex 1 -6.8 4.6
      vertex 1 -5.5 -3.3
    endloop
  endfacet
  facet normal 1 0 0
    outer loop
      vertex 1 -6.8 4.6
      vertex 1 -5.8 5.6
      vertex 1 -6.18268 5.52388
    endloop
  endfacet
  facet normal 1 0 0
    outer loop
      vertex 1 -6.8 -4.6
      vertex 1 -5.5 -3.3
      vertex 1 -6.8 4.6
    endloop
  endfacet
  facet normal 1 0 0
    outer loop
      vertex 1 -6.8 4.6
      vertex 1 -6.18268 5.52388
      vertex 1 -6.50711 5.30711
    endloop
  endfacet
  facet normal 1 0 -0
    outer loop
      vertex 1 -6.72388 -4.98268
      vertex 1 -5.20711 -4.00711
      vertex 1 -6.8 -4.6
    endloop
  endfacet
  facet normal 1 0 0
    outer loop
      vertex 1 -6.8 4.6
      vertex 1 -6.50711 5.30711
      vertex 1 -6.72388 4.98268
    endloop
  endfacet
  facet normal 1 0 0
    outer loop
      vertex 1 -5.20711 -4.00711
      vertex 1 -6.18268 -5.52388
      vertex 1 -5.8 -5.6
    endloop
  endfacet
  facet normal 1 0 0
    outer loop
      vertex 1 -5.20711 -4.00711
      vertex 1 -6.50711 -5.30711
      vertex 1 -6.18268 -5.52388
    endloop
  endfacet
  facet normal 1 0 0
    outer loop
      vertex 1 -5.20711 -4.00711
      vertex 1 -6.72388 -4.98268
      vertex 1 -6.50711 -5.30711
    endloop
  endfacet
  facet normal 1 0 0
    outer loop
      vertex 1 -2.68701 -1.28701
      vertex 1 -4.38268 -3.72388
      vertex 1 -4 -3.8
    endloop
  endfacet
  facet normal 1 0 0
    outer loop
      vertex 1 -5 2.8
      vertex 1 -3.8 1.4
      vertex 1 -3.7817 1.77246
    endloop
  endfacet
  facet normal 1 0 0
    outer loop
      vertex 1 -3.7817 1.02753
      vertex 1 -5 -2.8
      vertex 1 -4.38268 -3.72388
    endloop
  endfacet
  facet normal 1 0 0
    outer loop
      vertex 1 -5 2.8
      vertex 1 -3.7817 1.77246
      vertex 1 -3.72698 2.14134
    endloop
  endfacet
  facet normal 1 -0 0
    outer loop
      vertex 1 -4.92388 3.18268
      vertex 1 -3.51074 2.8542
      vertex 1 -3.35538 3.18268
    endloop
  endfacet
  facet normal 1 0 0
    outer loop
      vertex 1 -4.92388 3.18268
      vertex 1 -3.63637 2.50308
      vertex 1 -3.51074 2.8542
    endloop
  endfacet
  facet normal 1 -0 0
    outer loop
      vertex 1 -5 2.8
      vertex 1 -3.63637 2.50308
      vertex 1 -4.92388 3.18268
    endloop
  endfacet
  facet normal 1 0 0
    outer loop
      vertex 1 -3.63637 2.50308
      vertex 1 -5 2.8
      vertex 1 -3.72698 2.14134
    endloop
  endfacet
  facet normal 1 0 0
    outer loop
      vertex 1 -3.7817 1.02753
      vertex 1 -5 2.8
      vertex 1 -5 -2.8
    endloop
  endfacet
  facet normal 1 0 0
    outer loop
      vertex 1 -4.38268 -3.72388
      vertex 1 -5 -2.8
      vertex 1 -4.70711 -3.50711
    endloop
  endfacet
  facet normal 1 0 0
    outer loop
      vertex 1 -4.70711 -3.50711
      vertex 1 -5 -2.8
      vertex 1 -4.92388 -3.18268
    endloop
  endfacet
  facet normal 1 0 0
    outer loop
      vertex 1 3.63637 2.50308
      vertex 1 5 2.8
      vertex 1 4.92388 3.18268
    endloop
  endfacet
  facet normal 1 0 0
    outer loop
      vertex 1 5 2.8
      vertex 1 3.72698 0.658656
      vertex 1 5 -2.8
    endloop
  endfacet
  facet normal 1 -0 0
    outer loop
      vertex 1 3.63637 0.296918
      vertex 1 5 -2.8
      vertex 1 3.72698 0.658656
    endloop
  endfacet
  facet normal 1 -0 0
    outer loop
      vertex 1 3.51074 -0.0541964
      vertex 1 5 -2.8
      vertex 1 3.63637 0.296918
    endloop
  endfacet
  facet normal 1 -0 0
    outer loop
      vertex 1 3.3513 -0.391307
      vertex 1 5 -2.8
      vertex 1 3.51074 -0.0541964
    endloop
  endfacet
  facet normal 1 0 0
    outer loop
      vertex 1 5 2.8
      vertex 1 3.8 1.4
      vertex 1 3.7817 1.02753
    endloop
  endfacet
  facet normal 1 0 0
    outer loop
      vertex 1 5 2.8
      vertex 1 3.7817 1.77246
      vertex 1 3.8 1.4
    endloop
  endfacet
  facet normal 1 0 0
    outer loop
      vertex 1 5 2.8
      vertex 1 3.72698 2.14134
      vertex 1 3.7817 1.77246
    endloop
  endfacet
  facet normal 1 0 0
    outer loop
      vertex 1 5 2.8
      vertex 1 3.63637 2.50308
      vertex 1 3.72698 2.14134
    endloop
  endfacet
  facet normal 1 0 0
    outer loop
      vertex 1 4.92388 3.18268
      vertex 1 3.51074 2.8542
      vertex 1 3.63637 2.50308
    endloop
  endfacet
  facet normal 1 0 -0
    outer loop
      vertex 1 3.51074 2.8542
      vertex 1 4.92388 3.18268
      vertex 1 3.35538 3.18268
    endloop
  endfacet
  facet normal 1 0 0
    outer loop
      vertex 1 5 2.8
      vertex 1 3.7817 1.02753
      vertex 1 3.72698 0.658656
    endloop
  endfacet
  facet normal 1 -0 0
    outer loop
      vertex 1 3.15958 -0.711166
      vertex 1 5 -2.8
      vertex 1 3.3513 -0.391307
    endloop
  endfacet
  facet normal 1 -0 0
    outer loop
      vertex 1 2.93744 -1.01069
      vertex 1 5 -2.8
      vertex 1 3.15958 -0.711166
    endloop
  endfacet
  facet normal 1 -0 0
    outer loop
      vertex 1 2.68701 -1.28701
      vertex 1 5 -2.8
      vertex 1 2.93744 -1.01069
    endloop
  endfacet
  facet normal 1 0 -0
    outer loop
      vertex 1 4 -3.8
      vertex 1 5 -2.8
      vertex 1 2.68701 -1.28701
    endloop
  endfacet
  facet normal 1 0 0
    outer loop
      vertex 1 5 -2.8
      vertex 1 4 -3.8
      vertex 1 4.92388 -3.18268
    endloop
  endfacet
  facet normal 1 0 0
    outer loop
      vertex 1 4.92388 -3.18268
      vertex 1 4 -3.8
      vertex 1 4.70711 -3.50711
    endloop
  endfacet
  facet normal 1 0 0
    outer loop
      vertex 1 4.70711 -3.50711
      vertex 1 4 -3.8
      vertex 1 4.38268 -3.72388
    endloop
  endfacet
  facet normal 1 -0 0
    outer loop
      vertex 1 2.41069 -1.53744
      vertex 1 4 -3.8
      vertex 1 2.68701 -1.28701
    endloop
  endfacet
  facet normal 1 -0 0
    outer loop
      vertex 1 2.11117 -1.75958
      vertex 1 4 -3.8
      vertex 1 2.41069 -1.53744
    endloop
  endfacet
  facet normal 1 -0 0
    outer loop
      vertex 1 1.79131 -1.9513
      vertex 1 4 -3.8
      vertex 1 2.11117 -1.75958
    endloop
  endfacet
  facet normal 1 -0 0
    outer loop
      vertex 1 1.4542 -2.11074
      vertex 1 4 -3.8
      vertex 1 1.79131 -1.9513
    endloop
  endfacet
  facet normal 1 -0 0
    outer loop
      vertex 1 1.10308 -2.23637
      vertex 1 4 -3.8
      vertex 1 1.4542 -2.11074
    endloop
  endfacet
  facet normal 1 -0 0
    outer loop
      vertex 1 0.741343 -2.32698
      vertex 1 4 -3.8
      vertex 1 1.10308 -2.23637
    endloop
  endfacet
  facet normal 1 -0 0
    outer loop
      vertex 1 0.372464 -2.3817
      vertex 1 4 -3.8
      vertex 1 0.741343 -2.32698
    endloop
  endfacet
  facet normal 1 -0 0
    outer loop
      vertex 1 0 -2.4
      vertex 1 4 -3.8
      vertex 1 0.372464 -2.3817
    endloop
  endfacet
  facet normal 1 0 0
    outer loop
      vertex 1 -4 -3.8
      vertex 1 0 -2.4
      vertex 1 -0.372464 -2.3817
    endloop
  endfacet
  facet normal 1 0 0
    outer loop
      vertex 1 -4 -3.8
      vertex 1 -0.372464 -2.3817
      vertex 1 -0.741343 -2.32698
    endloop
  endfacet
  facet normal 1 0 0
    outer loop
      vertex 1 -4 -3.8
      vertex 1 -0.741343 -2.32698
      vertex 1 -1.10308 -2.23637
    endloop
  endfacet
  facet normal 1 0 0
    outer loop
      vertex 1 0 -2.4
      vertex 1 -4 -3.8
      vertex 1 4 -3.8
    endloop
  endfacet
  facet normal 1 0 0
    outer loop
      vertex 1 -1.4542 -2.11074
      vertex 1 -4 -3.8
      vertex 1 -1.10308 -2.23637
    endloop
  endfacet
  facet normal 1 0 0
    outer loop
      vertex 1 -1.79131 -1.9513
      vertex 1 -4 -3.8
      vertex 1 -1.4542 -2.11074
    endloop
  endfacet
  facet normal 1 0 0
    outer loop
      vertex 1 -2.11117 -1.75958
      vertex 1 -4 -3.8
      vertex 1 -1.79131 -1.9513
    endloop
  endfacet
  facet normal 1 0 0
    outer loop
      vertex 1 -2.41069 -1.53744
      vertex 1 -4 -3.8
      vertex 1 -2.11117 -1.75958
    endloop
  endfacet
  facet normal 1 0 0
    outer loop
      vertex 1 -2.68701 -1.28701
      vertex 1 -4 -3.8
      vertex 1 -2.41069 -1.53744
    endloop
  endfacet
  facet normal 1 0 0
    outer loop
      vertex 1 -4.38268 -3.72388
      vertex 1 -2.68701 -1.28701
      vertex 1 -2.93744 -1.01069
    endloop
  endfacet
  facet normal 1 0 0
    outer loop
      vertex 1 -4.38268 -3.72388
      vertex 1 -2.93744 -1.01069
      vertex 1 -3.15958 -0.711166
    endloop
  endfacet
  facet normal 1 0 0
    outer loop
      vertex 1 -4.38268 -3.72388
      vertex 1 -3.15958 -0.711166
      vertex 1 -3.3513 -0.391307
    endloop
  endfacet
  facet normal 1 0 0
    outer loop
      vertex 1 -4.38268 -3.72388
      vertex 1 -3.3513 -0.391307
      vertex 1 -3.51074 -0.0541964
    endloop
  endfacet
  facet normal 1 0 0
    outer loop
      vertex 1 -4.38268 -3.72388
      vertex 1 -3.51074 -0.0541964
      vertex 1 -3.63637 0.296918
    endloop
  endfacet
  facet normal 1 0 0
    outer loop
      vertex 1 -4.38268 -3.72388
      vertex 1 -3.63637 0.296918
      vertex 1 -3.72698 0.658656
    endloop
  endfacet
  facet normal 1 0 0
    outer loop
      vertex 1 -4.38268 -3.72388
      vertex 1 -3.72698 0.658656
      vertex 1 -3.7817 1.02753
    endloop
  endfacet
  facet normal 1 0 0
    outer loop
      vertex 1 -5 2.8
      vertex 1 -3.7817 1.02753
      vertex 1 -3.8 1.4
    endloop
  endfacet
  facet normal 1 5.31062e-06 -3.54843e-06
    outer loop
      vertex 3 5.42388 -3.68268
      vertex 3 5.5 -3.3
      vertex 3 5.20711 -4.00711
    endloop
  endfacet
  facet normal 0 0.980785 0.195092
    outer loop
      vertex 3 5.5 3.3
      vertex 1 5.42388 3.68268
      vertex 3 5.42388 3.68268
    endloop
  endfacet
  facet normal 0 0.980785 0.195092
    outer loop
      vertex 1 5.42388 3.68268
      vertex 3 5.5 3.3
      vertex 1 5.5 3.3
    endloop
  endfacet
  facet normal 0 0 -1
    outer loop
      vertex 1 -4.5 -4.3
      vertex 3 4.5 -4.3
      vertex 3 -4.5 -4.3
    endloop
  endfacet
  facet normal -0 0 -1
    outer loop
      vertex 3 4.5 -4.3
      vertex 1 -4.5 -4.3
      vertex 1 4.5 -4.3
    endloop
  endfacet
  facet normal 0 0.555569 -0.831471
    outer loop
      vertex 1 4.88268 -4.22388
      vertex 3 5.20711 -4.00711
      vertex 3 4.88268 -4.22388
    endloop
  endfacet
  facet normal 0 0.555569 -0.831471
    outer loop
      vertex 3 5.20711 -4.00711
      vertex 1 4.88268 -4.22388
      vertex 1 5.20711 -4.00711
    endloop
  endfacet
  facet normal 0 0.19509 -0.980785
    outer loop
      vertex 1 4.5 -4.3
      vertex 3 4.88268 -4.22388
      vertex 3 4.5 -4.3
    endloop
  endfacet
  facet normal 0 0.19509 -0.980785
    outer loop
      vertex 3 4.88268 -4.22388
      vertex 1 4.5 -4.3
      vertex 1 4.88268 -4.22388
    endloop
  endfacet
  facet normal -1 0 9.53674e-07
    outer loop
      vertex 1 3.28615 3.3
      vertex 1 4.5 4.3
      vertex 1 5.5 3.3
    endloop
  endfacet
  facet normal -1 -9.67206e-08 1.07108e-06
    outer loop
      vertex 1 3.15958 3.51117
      vertex 1 4.5 4.3
      vertex 1 3.28615 3.3
    endloop
  endfacet
  facet normal -1 4.53702e-08 8.29632e-07
    outer loop
      vertex 1 2.93744 3.81069
      vertex 1 4.5 4.3
      vertex 1 3.15958 3.51117
    endloop
  endfacet
  facet normal -1 2.72351e-08 8.87545e-07
    outer loop
      vertex 1 2.68701 4.08701
      vertex 1 4.5 4.3
      vertex 1 2.93744 3.81069
    endloop
  endfacet
  facet normal -1 0 1.11937e-06
    outer loop
      vertex 1 4.5 4.3
      vertex 1 2.68701 4.08701
      vertex 1 2.452 4.3
    endloop
  endfacet
  facet normal -1 0 1.11937e-06
    outer loop
      vertex 1 -2.68701 4.08701
      vertex 1 -4.5 4.3
      vertex 1 -2.452 4.3
    endloop
  endfacet
  facet normal -1 -2.72351e-08 8.87545e-07
    outer loop
      vertex 1 -2.93744 3.81069
      vertex 1 -4.5 4.3
      vertex 1 -2.68701 4.08701
    endloop
  endfacet
  facet normal -1 -4.53702e-08 8.29632e-07
    outer loop
      vertex 1 -3.15958 3.51117
      vertex 1 -4.5 4.3
      vertex 1 -2.93744 3.81069
    endloop
  endfacet
  facet normal -1 9.67206e-08 1.07108e-06
    outer loop
      vertex 1 -3.28615 3.3
      vertex 1 -4.5 4.3
      vertex 1 -3.15958 3.51117
    endloop
  endfacet
  facet normal -1 0 9.53674e-07
    outer loop
      vertex 1 -4.5 4.3
      vertex 1 -3.28615 3.3
      vertex 1 -5.5 3.3
    endloop
  endfacet
  facet normal 0 -1 0
    outer loop
      vertex 1 -5.5 -3.3
      vertex 3 -5.5 3.3
      vertex 1 -5.5 3.3
    endloop
  endfacet
  facet normal 0 -1 -0
    outer loop
      vertex 3 -5.5 3.3
      vertex 1 -5.5 -3.3
      vertex 3 -5.5 -3.3
    endloop
  endfacet
  facet normal 0 -0.19509 -0.980785
    outer loop
      vertex 1 -4.88268 -4.22388
      vertex 3 -4.5 -4.3
      vertex 3 -4.88268 -4.22388
    endloop
  endfacet
  facet normal -0 -0.19509 -0.980785
    outer loop
      vertex 3 -4.5 -4.3
      vertex 1 -4.88268 -4.22388
      vertex 1 -4.5 -4.3
    endloop
  endfacet
  facet normal 0 -0.980785 -0.195092
    outer loop
      vertex 1 -5.42388 -3.68268
      vertex 3 -5.5 -3.3
      vertex 1 -5.5 -3.3
    endloop
  endfacet
  facet normal 0 -0.980785 -0.195092
    outer loop
      vertex 3 -5.5 -3.3
      vertex 1 -5.42388 -3.68268
      vertex 3 -5.42388 -3.68268
    endloop
  endfacet
  facet normal -1 -2.368e-07 1.19047e-06
    outer loop
      vertex 1 -4.88268 4.22388
      vertex 1 -4.5 4.3
      vertex 1 -5.5 3.3
    endloop
  endfacet
  facet normal 0 -0.831471 -0.555569
    outer loop
      vertex 1 -5.20711 -4.00711
      vertex 3 -5.42388 -3.68268
      vertex 1 -5.42388 -3.68268
    endloop
  endfacet
  facet normal 0 -0.831471 -0.555569
    outer loop
      vertex 3 -5.42388 -3.68268
      vertex 1 -5.20711 -4.00711
      vertex 3 -5.20711 -4.00711
    endloop
  endfacet
  facet normal 1 -1.24603e-06 -1.86482e-06
    outer loop
      vertex 3 -4.88268 -4.22388
      vertex 3 -5.5 -3.3
      vertex 3 -5.20711 -4.00711
    endloop
  endfacet
  facet normal 0 -0.555569 -0.831471
    outer loop
      vertex 1 -5.20711 -4.00711
      vertex 3 -4.88268 -4.22388
      vertex 3 -5.20711 -4.00711
    endloop
  endfacet
  facet normal -0 -0.555569 -0.831471
    outer loop
      vertex 3 -4.88268 -4.22388
      vertex 1 -5.20711 -4.00711
      vertex 1 -4.88268 -4.22388
    endloop
  endfacet
  facet normal -1 2.368e-07 1.19047e-06
    outer loop
      vertex 1 4.5 4.3
      vertex 1 4.88268 4.22388
      vertex 1 5.5 3.3
    endloop
  endfacet
  facet normal -0 0 1
    outer loop
      vertex 1 -2.452 4.3
      vertex 3 -4.5 4.3
      vertex 3 -2.452 4.3
    endloop
  endfacet
  facet normal 0 0 1
    outer loop
      vertex 3 -4.5 4.3
      vertex 1 -2.452 4.3
      vertex 1 -4.5 4.3
    endloop
  endfacet
  facet normal -0 0 1
    outer loop
      vertex 1 4.5 4.3
      vertex 3 2.452 4.3
      vertex 3 4.5 4.3
    endloop
  endfacet
  facet normal 0 0 1
    outer loop
      vertex 3 2.452 4.3
      vertex 1 4.5 4.3
      vertex 1 2.452 4.3
    endloop
  endfacet
  facet normal 0 -0.19509 0.980785
    outer loop
      vertex 1 -4.5 4.3
      vertex 3 -4.88268 4.22388
      vertex 3 -4.5 4.3
    endloop
  endfacet
  facet normal 0 -0.19509 0.980785
    outer loop
      vertex 3 -4.88268 4.22388
      vertex 1 -4.5 4.3
      vertex 1 -4.88268 4.22388
    endloop
  endfacet
  facet normal 1 -5.31062e-06 -3.54843e-06
    outer loop
      vertex 3 -5.20711 -4.00711
      vertex 3 -5.5 -3.3
      vertex 3 -5.42388 -3.68268
    endloop
  endfacet
  facet normal 1 -2.368e-07 -1.19047e-06
    outer loop
      vertex 3 -4.5 -4.3
      vertex 3 -5.5 -3.3
      vertex 3 -4.88268 -4.22388
    endloop
  endfacet
  facet normal 0 -0.831471 0.555569
    outer loop
      vertex 1 -5.42388 3.68268
      vertex 3 -5.20711 4.00711
      vertex 1 -5.20711 4.00711
    endloop
  endfacet
  facet normal 0 -0.831471 0.555569
    outer loop
      vertex 3 -5.20711 4.00711
      vertex 1 -5.42388 3.68268
      vertex 3 -5.42388 3.68268
    endloop
  endfacet
  facet normal 0 -0.980785 0.195092
    outer loop
      vertex 1 -5.5 3.3
      vertex 3 -5.42388 3.68268
      vertex 1 -5.42388 3.68268
    endloop
  endfacet
  facet normal 0 -0.980785 0.195092
    outer loop
      vertex 3 -5.42388 3.68268
      vertex 1 -5.5 3.3
      vertex 3 -5.5 3.3
    endloop
  endfacet
  facet normal 0 0.831471 0.555569
    outer loop
      vertex 3 5.42388 3.68268
      vertex 1 5.20711 4.00711
      vertex 3 5.20711 4.00711
    endloop
  endfacet
  facet normal 0 0.831471 0.555569
    outer loop
      vertex 1 5.20711 4.00711
      vertex 3 5.42388 3.68268
      vertex 1 5.42388 3.68268
    endloop
  endfacet
  facet normal -1 5.31062e-06 3.54843e-06
    outer loop
      vertex 1 5.20711 4.00711
      vertex 1 5.42388 3.68268
      vertex 1 5.5 3.3
    endloop
  endfacet
  facet normal -1 -1.24603e-06 1.86482e-06
    outer loop
      vertex 1 -5.20711 4.00711
      vertex 1 -4.88268 4.22388
      vertex 1 -5.5 3.3
    endloop
  endfacet
  facet normal 0 -0.555569 0.831471
    outer loop
      vertex 1 -4.88268 4.22388
      vertex 3 -5.20711 4.00711
      vertex 3 -4.88268 4.22388
    endloop
  endfacet
  facet normal 0 -0.555569 0.831471
    outer loop
      vertex 3 -5.20711 4.00711
      vertex 1 -4.88268 4.22388
      vertex 1 -5.20711 4.00711
    endloop
  endfacet
  facet normal -1 -5.31062e-06 3.54843e-06
    outer loop
      vertex 1 -5.42388 3.68268
      vertex 1 -5.20711 4.00711
      vertex 1 -5.5 3.3
    endloop
  endfacet
  facet normal -1 1.24603e-06 1.86482e-06
    outer loop
      vertex 1 4.88268 4.22388
      vertex 1 5.20711 4.00711
      vertex 1 5.5 3.3
    endloop
  endfacet
  facet normal -0 0.555569 0.831471
    outer loop
      vertex 1 5.20711 4.00711
      vertex 3 4.88268 4.22388
      vertex 3 5.20711 4.00711
    endloop
  endfacet
  facet normal 0 0.555569 0.831471
    outer loop
      vertex 3 4.88268 4.22388
      vertex 1 5.20711 4.00711
      vertex 1 4.88268 4.22388
    endloop
  endfacet
  facet normal -0 0.19509 0.980785
    outer loop
      vertex 1 4.88268 4.22388
      vertex 3 4.5 4.3
      vertex 3 4.88268 4.22388
    endloop
  endfacet
  facet normal 0 0.19509 0.980785
    outer loop
      vertex 3 4.5 4.3
      vertex 1 4.88268 4.22388
      vertex 1 4.5 4.3
    endloop
  endfacet
  facet normal 0 0 -1
    outer loop
      vertex 1 2.94537 3.8
      vertex 3 4 3.8
      vertex 3 2.94537 3.8
    endloop
  endfacet
  facet normal -0 0 -1
    outer loop
      vertex 3 4 3.8
      vertex 1 2.94537 3.8
      vertex 1 4 3.8
    endloop
  endfacet
  facet normal 0 0 -1
    outer loop
      vertex 1 -4 3.8
      vertex 3 -2.94537 3.8
      vertex 3 -4 3.8
    endloop
  endfacet
  facet normal -0 0 -1
    outer loop
      vertex 3 -2.94537 3.8
      vertex 1 -4 3.8
      vertex 1 -2.94537 3.8
    endloop
  endfacet
  facet normal 1 4.3755e-07 -2.19971e-06
    outer loop
      vertex 1 -4.38268 3.72388
      vertex 1 -4.92388 3.18268
      vertex 1 -4 3.8
    endloop
  endfacet
  facet normal -0 0 1
    outer loop
      vertex 1 4 -3.8
      vertex 3 -4 -3.8
      vertex 3 4 -3.8
    endloop
  endfacet
  facet normal 0 0 1
    outer loop
      vertex 3 -4 -3.8
      vertex 1 4 -3.8
      vertex 1 -4 -3.8
    endloop
  endfacet
  facet normal 0 -0.980785 -0.195092
    outer loop
      vertex 1 5 2.8
      vertex 3 4.92388 3.18268
      vertex 1 4.92388 3.18268
    endloop
  endfacet
  facet normal 0 -0.980785 -0.195092
    outer loop
      vertex 3 4.92388 3.18268
      vertex 1 5 2.8
      vertex 3 5 2.8
    endloop
  endfacet
  facet normal 0 0.19509 -0.980785
    outer loop
      vertex 1 -4.38268 3.72388
      vertex 3 -4 3.8
      vertex 3 -4.38268 3.72388
    endloop
  endfacet
  facet normal 0 0.19509 -0.980785
    outer loop
      vertex 3 -4 3.8
      vertex 1 -4.38268 3.72388
      vertex 1 -4 3.8
    endloop
  endfacet
  facet normal 1 0 -1.54487e-06
    outer loop
      vertex 1 4 3.8
      vertex 1 3.35538 3.18268
      vertex 1 4.92388 3.18268
    endloop
  endfacet
  facet normal 1 -1.01824e-06 -4.81591e-07
    outer loop
      vertex 1 4 3.8
      vertex 1 3.3513 3.19131
      vertex 1 3.35538 3.18268
    endloop
  endfacet
  facet normal 1 -4.56362e-08 -1.51812e-06
    outer loop
      vertex 1 4 3.8
      vertex 1 3.15958 3.51117
      vertex 1 3.3513 3.19131
    endloop
  endfacet
  facet normal 1 0 -1.65091e-06
    outer loop
      vertex 1 3.15958 3.51117
      vertex 1 4 3.8
      vertex 1 2.94537 3.8
    endloop
  endfacet
  facet normal 1 0 -1.65091e-06
    outer loop
      vertex 1 -4 3.8
      vertex 1 -3.15958 3.51117
      vertex 1 -2.94537 3.8
    endloop
  endfacet
  facet normal 1 4.56362e-08 -1.51812e-06
    outer loop
      vertex 1 -4 3.8
      vertex 1 -3.3513 3.19131
      vertex 1 -3.15958 3.51117
    endloop
  endfacet
  facet normal 1 1.01824e-06 -4.81591e-07
    outer loop
      vertex 1 -4 3.8
      vertex 1 -3.35538 3.18268
      vertex 1 -3.3513 3.19131
    endloop
  endfacet
  facet normal 1 0 -1.54487e-06
    outer loop
      vertex 1 -3.35538 3.18268
      vertex 1 -4 3.8
      vertex 1 -4.92388 3.18268
    endloop
  endfacet
  facet normal 1 -3.54836e-06 -5.31052e-06
    outer loop
      vertex 1 4.38268 3.72388
      vertex 1 4.92388 3.18268
      vertex 1 4.70711 3.50711
    endloop
  endfacet
  facet normal 1 -4.3755e-07 -2.19971e-06
    outer loop
      vertex 1 4 3.8
      vertex 1 4.92388 3.18268
      vertex 1 4.38268 3.72388
    endloop
  endfacet
  facet normal 0 -0.555569 -0.831471
    outer loop
      vertex 1 4.38268 3.72388
      vertex 3 4.70711 3.50711
      vertex 3 4.38268 3.72388
    endloop
  endfacet
  facet normal -0 -0.555569 -0.831471
    outer loop
      vertex 3 4.70711 3.50711
      vertex 1 4.38268 3.72388
      vertex 1 4.70711 3.50711
    endloop
  endfacet
  facet normal 0 0.555569 -0.831471
    outer loop
      vertex 1 -4.70711 3.50711
      vertex 3 -4.38268 3.72388
      vertex 3 -4.70711 3.50711
    endloop
  endfacet
  facet normal 0 0.555569 -0.831471
    outer loop
      vertex 3 -4.38268 3.72388
      vertex 1 -4.70711 3.50711
      vertex 1 -4.38268 3.72388
    endloop
  endfacet
  facet normal -0 0.19509 0.980785
    outer loop
      vertex 1 -4 -3.8
      vertex 3 -4.38268 -3.72388
      vertex 3 -4 -3.8
    endloop
  endfacet
  facet normal 0 0.19509 0.980785
    outer loop
      vertex 3 -4.38268 -3.72388
      vertex 1 -4 -3.8
      vertex 1 -4.38268 -3.72388
    endloop
  endfacet
  facet normal 0 -0.19509 -0.980785
    outer loop
      vertex 1 4 3.8
      vertex 3 4.38268 3.72388
      vertex 3 4 3.8
    endloop
  endfacet
  facet normal -0 -0.19509 -0.980785
    outer loop
      vertex 3 4.38268 3.72388
      vertex 1 4 3.8
      vertex 1 4.38268 3.72388
    endloop
  endfacet
  facet normal 0 -1 0
    outer loop
      vertex 1 5 -2.8
      vertex 3 5 2.8
      vertex 1 5 2.8
    endloop
  endfacet
  facet normal 0 -1 -0
    outer loop
      vertex 3 5 2.8
      vertex 1 5 -2.8
      vertex 3 5 -2.8
    endloop
  endfacet
  facet normal 0 -0.19509 0.980785
    outer loop
      vertex 1 4.38268 -3.72388
      vertex 3 4 -3.8
      vertex 3 4.38268 -3.72388
    endloop
  endfacet
  facet normal 0 -0.19509 0.980785
    outer loop
      vertex 3 4 -3.8
      vertex 1 4.38268 -3.72388
      vertex 1 4 -3.8
    endloop
  endfacet
  facet normal 0 -0.980785 0.195092
    outer loop
      vertex 1 4.92388 -3.18268
      vertex 3 5 -2.8
      vertex 1 5 -2.8
    endloop
  endfacet
  facet normal 0 -0.980785 0.195092
    outer loop
      vertex 3 5 -2.8
      vertex 1 4.92388 -3.18268
      vertex 3 4.92388 -3.18268
    endloop
  endfacet
  facet normal 0 -0.555569 0.831471
    outer loop
      vertex 1 4.70711 -3.50711
      vertex 3 4.38268 -3.72388
      vertex 3 4.70711 -3.50711
    endloop
  endfacet
  facet normal 0 -0.555569 0.831471
    outer loop
      vertex 3 4.38268 -3.72388
      vertex 1 4.70711 -3.50711
      vertex 1 4.38268 -3.72388
    endloop
  endfacet
  facet normal 1 3.54836e-06 -5.31052e-06
    outer loop
      vertex 1 -4.70711 3.50711
      vertex 1 -4.92388 3.18268
      vertex 1 -4.38268 3.72388
    endloop
  endfacet
  facet normal 0 0.980785 -0.195092
    outer loop
      vertex 3 -5 2.8
      vertex 1 -4.92388 3.18268
      vertex 3 -4.92388 3.18268
    endloop
  endfacet
  facet normal 0 0.980785 -0.195092
    outer loop
      vertex 1 -4.92388 3.18268
      vertex 3 -5 2.8
      vertex 1 -5 2.8
    endloop
  endfacet
  facet normal 0 1 -0
    outer loop
      vertex 3 -5 -2.8
      vertex 1 -5 2.8
      vertex 3 -5 2.8
    endloop
  endfacet
  facet normal 0 1 0
    outer loop
      vertex 1 -5 2.8
      vertex 3 -5 -2.8
      vertex 1 -5 -2.8
    endloop
  endfacet
  facet normal 0 0.831471 0.555568
    outer loop
      vertex 3 -4.84549 -3.3
      vertex 1 -4.92388 -3.18268
      vertex 3 -4.92388 -3.18268
    endloop
  endfacet
  facet normal -0 0.831471 0.555569
    outer loop
      vertex 1 -4.70711 -3.50711
      vertex 3 -4.84549 -3.3
      vertex 3 -4.70711 -3.50711
    endloop
  endfacet
  facet normal 5.09938e-08 0.831471 0.555569
    outer loop
      vertex 3 -4.84549 -3.3
      vertex 1 -4.70711 -3.50711
      vertex 1 -4.92388 -3.18268
    endloop
  endfacet
  facet normal -0 0.555569 0.831471
    outer loop
      vertex 1 -4.38268 -3.72388
      vertex 3 -4.70711 -3.50711
      vertex 3 -4.38268 -3.72388
    endloop
  endfacet
  facet normal 0 0.555569 0.831471
    outer loop
      vertex 3 -4.70711 -3.50711
      vertex 1 -4.38268 -3.72388
      vertex 1 -4.70711 -3.50711
    endloop
  endfacet
  facet normal 0 -0.831471 -0.555569
    outer loop
      vertex 1 4.92388 3.18268
      vertex 3 4.70711 3.50711
      vertex 1 4.70711 3.50711
    endloop
  endfacet
  facet normal 0 -0.831471 -0.555569
    outer loop
      vertex 3 4.70711 3.50711
      vertex 1 4.92388 3.18268
      vertex 3 4.92388 3.18268
    endloop
  endfacet
  facet normal 0 -0.831471 0.555568
    outer loop
      vertex 1 4.92388 -3.18268
      vertex 3 4.84549 -3.3
      vertex 3 4.92388 -3.18268
    endloop
  endfacet
  facet normal 5.09938e-08 -0.831471 0.555569
    outer loop
      vertex 1 4.70711 -3.50711
      vertex 3 4.84549 -3.3
      vertex 1 4.92388 -3.18268
    endloop
  endfacet
  facet normal 0 -0.831471 0.555569
    outer loop
      vertex 3 4.84549 -3.3
      vertex 1 4.70711 -3.50711
      vertex 3 4.70711 -3.50711
    endloop
  endfacet
  facet normal 0 0.831471 -0.555569
    outer loop
      vertex 3 -4.92388 3.18268
      vertex 1 -4.70711 3.50711
      vertex 3 -4.70711 3.50711
    endloop
  endfacet
  facet normal 0 0.831471 -0.555569
    outer loop
      vertex 1 -4.70711 3.50711
      vertex 3 -4.92388 3.18268
      vertex 1 -4.92388 3.18268
    endloop
  endfacet
  facet normal 0 0.980785 0.195092
    outer loop
      vertex 3 -4.92388 -3.18268
      vertex 1 -5 -2.8
      vertex 3 -5 -2.8
    endloop
  endfacet
  facet normal 0 0.980785 0.195092
    outer loop
      vertex 1 -5 -2.8
      vertex 3 -4.92388 -3.18268
      vertex 1 -4.92388 -3.18268
    endloop
  endfacet
  facet normal -0 0 1
    outer loop
      vertex 9.53674e-07 5.8 5.6
      vertex 1 -5.8 5.6
      vertex 1 5.8 5.6
    endloop
  endfacet
  facet normal 0 0 1
    outer loop
      vertex 1 -5.8 5.6
      vertex 9.53674e-07 5.8 5.6
      vertex 9.53674e-07 -5.8 5.6
    endloop
  endfacet
  facet normal 0 0 -1
    outer loop
      vertex 1 -5.8 -5.6
      vertex 7.10295e-16 5.8 -5.6
      vertex 1 5.8 -5.6
    endloop
  endfacet
  facet normal 0 -0 -1
    outer loop
      vertex 7.10295e-16 5.8 -5.6
      vertex 1 -5.8 -5.6
      vertex -7.10295e-16 -5.8 -5.6
    endloop
  endfacet
  facet normal -1 -2.36799e-07 1.19047e-06
    outer loop
      vertex 9.53674e-07 -6.18268 5.52388
      vertex 9.53674e-07 -5.8 5.6
      vertex -8.3276e-16 -6.8 4.6
    endloop
  endfacet
  facet normal -1 1.22465e-16 9.53674e-07
    outer loop
      vertex 2.50286e-16 2.04374 4.6
      vertex 9.53674e-07 5.8 5.6
      vertex 8.3276e-16 6.8 4.6
    endloop
  endfacet
  facet normal -1 2.58808e-16 9.53674e-07
    outer loop
      vertex 1.44291e-07 1.79131 4.7513
      vertex 9.53674e-07 5.8 5.6
      vertex 2.50286e-16 2.04374 4.6
    endloop
  endfacet
  facet normal -1 0 9.53674e-07
    outer loop
      vertex 2.96347e-07 1.4542 4.91074
      vertex 9.53674e-07 5.8 5.6
      vertex 1.44291e-07 1.79131 4.7513
    endloop
  endfacet
  facet normal -1 0 9.53674e-07
    outer loop
      vertex 4.16158e-07 1.10308 5.03637
      vertex 9.53674e-07 5.8 5.6
      vertex 2.96347e-07 1.4542 4.91074
    endloop
  endfacet
  facet normal -1 0 9.53674e-07
    outer loop
      vertex 5.02571e-07 0.741343 5.12698
      vertex 9.53674e-07 5.8 5.6
      vertex 4.16158e-07 1.10308 5.03637
    endloop
  endfacet
  facet normal -1 0 9.53674e-07
    outer loop
      vertex 5.54754e-07 0.372464 5.1817
      vertex 9.53674e-07 5.8 5.6
      vertex 5.02571e-07 0.741343 5.12698
    endloop
  endfacet
  facet normal -1 0 9.53674e-07
    outer loop
      vertex 5.72205e-07 1.22465e-16 5.2
      vertex 9.53674e-07 5.8 5.6
      vertex 5.54754e-07 0.372464 5.1817
    endloop
  endfacet
  facet normal -1 0 9.53674e-07
    outer loop
      vertex 9.53674e-07 -5.8 5.6
      vertex 5.72205e-07 1.22465e-16 5.2
      vertex 5.54754e-07 -0.372464 5.1817
    endloop
  endfacet
  facet normal -1 0 9.53674e-07
    outer loop
      vertex 5.72205e-07 1.22465e-16 5.2
      vertex 9.53674e-07 -5.8 5.6
      vertex 9.53674e-07 5.8 5.6
    endloop
  endfacet
  facet normal -1 0 9.53674e-07
    outer loop
      vertex 5.02571e-07 -0.741343 5.12698
      vertex 9.53674e-07 -5.8 5.6
      vertex 5.54754e-07 -0.372464 5.1817
    endloop
  endfacet
  facet normal -1 0 9.53674e-07
    outer loop
      vertex 4.16158e-07 -1.10308 5.03637
      vertex 9.53674e-07 -5.8 5.6
      vertex 5.02571e-07 -0.741343 5.12698
    endloop
  endfacet
  facet normal -1 0 9.53674e-07
    outer loop
      vertex 2.96347e-07 -1.4542 4.91074
      vertex 9.53674e-07 -5.8 5.6
      vertex 4.16158e-07 -1.10308 5.03637
    endloop
  endfacet
  facet normal -1 0 9.53674e-07
    outer loop
      vertex 1.44291e-07 -1.79131 4.7513
      vertex 9.53674e-07 -5.8 5.6
      vertex 2.96347e-07 -1.4542 4.91074
    endloop
  endfacet
  facet normal -1 2.58808e-16 9.53674e-07
    outer loop
      vertex -2.50286e-16 -2.04374 4.6
      vertex 9.53674e-07 -5.8 5.6
      vertex 1.44291e-07 -1.79131 4.7513
    endloop
  endfacet
  facet normal -1 1.22465e-16 9.53674e-07
    outer loop
      vertex 9.53674e-07 -5.8 5.6
      vertex -2.50286e-16 -2.04374 4.6
      vertex -8.3276e-16 -6.8 4.6
    endloop
  endfacet
  facet normal -1 5.31057e-06 3.54841e-06
    outer loop
      vertex 9.53674e-07 6.50711 5.30711
      vertex 9.53674e-07 6.72388 4.98268
      vertex 8.3276e-16 6.8 4.6
    endloop
  endfacet
  facet normal -1 1.22465e-16 3.87774e-24
    outer loop
      vertex 8.3276e-16 6.8 4.6
      vertex 4.63125e-16 3.7817 1.02753
      vertex 4.65366e-16 3.8 1.4
    endloop
  endfacet
  facet normal -1 1.22465e-16 -6.55581e-23
    outer loop
      vertex 8.3276e-16 6.8 -4.6
      vertex 4.56424e-16 3.72698 0.658656
      vertex 4.63125e-16 3.7817 1.02753
    endloop
  endfacet
  facet normal -1 1.22465e-16 2.00283e-23
    outer loop
      vertex 8.3276e-16 6.8 -4.6
      vertex 4.45327e-16 3.63637 0.296918
      vertex 4.56424e-16 3.72698 0.658656
    endloop
  endfacet
  facet normal -1 1.22465e-16 1.75815e-23
    outer loop
      vertex 8.3276e-16 6.8 -4.6
      vertex 4.29942e-16 3.51074 -0.0541964
      vertex 4.45327e-16 3.63637 0.296918
    endloop
  endfacet
  facet normal -1 1.22465e-16 -3.59604e-23
    outer loop
      vertex 8.3276e-16 6.8 -4.6
      vertex 4.10416e-16 3.3513 -0.391307
      vertex 4.29942e-16 3.51074 -0.0541964
    endloop
  endfacet
  facet normal -1 1.22465e-16 -1.26785e-23
    outer loop
      vertex 8.3276e-16 6.8 -4.6
      vertex 3.86937e-16 3.15958 -0.711166
      vertex 4.10416e-16 3.3513 -0.391307
    endloop
  endfacet
  facet normal -1 1.22465e-16 4.54576e-23
    outer loop
      vertex 8.3276e-16 6.8 -4.6
      vertex 3.59733e-16 2.93744 -1.01069
      vertex 3.86937e-16 3.15958 -0.711166
    endloop
  endfacet
  facet normal -1 1.22465e-16 -4.4926e-23
    outer loop
      vertex 8.3276e-16 6.8 -4.6
      vertex 3.29063e-16 2.68701 -1.28701
      vertex 3.59733e-16 2.93744 -1.01069
    endloop
  endfacet
  facet normal -1 1.22465e-16 6.23766e-24
    outer loop
      vertex 7.10295e-16 5.8 -5.6
      vertex 2.95225e-16 2.41069 -1.53744
      vertex 3.29063e-16 2.68701 -1.28701
    endloop
  endfacet
  facet normal -1 1.22465e-16 -9.5488e-24
    outer loop
      vertex 7.10295e-16 5.8 -5.6
      vertex 2.58543e-16 2.11117 -1.75958
      vertex 2.95225e-16 2.41069 -1.53744
    endloop
  endfacet
  facet normal -1 1.22465e-16 1.80362e-23
    outer loop
      vertex 7.10295e-16 5.8 -5.6
      vertex 2.19372e-16 1.79131 -1.9513
      vertex 2.58543e-16 2.11117 -1.75958
    endloop
  endfacet
  facet normal -1 1.22465e-16 7.74522e-24
    outer loop
      vertex 7.10295e-16 5.8 -5.6
      vertex 1.78088e-16 1.4542 -2.11074
      vertex 2.19372e-16 1.79131 -1.9513
    endloop
  endfacet
  facet normal -1 1.22465e-16 1.04597e-23
    outer loop
      vertex 7.10295e-16 5.8 -5.6
      vertex 1.35089e-16 1.10308 -2.23637
      vertex 1.78088e-16 1.4542 -2.11074
    endloop
  endfacet
  facet normal -1 1.22465e-16 -9.24763e-24
    outer loop
      vertex 7.10295e-16 5.8 -5.6
      vertex 9.07883e-17 0.741343 -2.32698
      vertex 1.35089e-16 1.10308 -2.23637
    endloop
  endfacet
  facet normal -1 1.22465e-16 1.08721e-23
    outer loop
      vertex 7.10295e-16 5.8 -5.6
      vertex 4.56137e-17 0.372464 -2.3817
      vertex 9.07883e-17 0.741343 -2.32698
    endloop
  endfacet
  facet normal -1 1.22465e-16 3.69278e-24
    outer loop
      vertex 7.10295e-16 5.8 -5.6
      vertex 0 1.22465e-16 -2.4
      vertex 4.56137e-17 0.372464 -2.3817
    endloop
  endfacet
  facet normal -1 1.22465e-16 0
    outer loop
      vertex -7.10295e-16 -5.8 -5.6
      vertex 0 1.22465e-16 -2.4
      vertex 7.10295e-16 5.8 -5.6
    endloop
  endfacet
  facet normal -1 1.22465e-16 -3.69278e-24
    outer loop
      vertex 0 1.22465e-16 -2.4
      vertex -7.10295e-16 -5.8 -5.6
      vertex -4.56137e-17 -0.372464 -2.3817
    endloop
  endfacet
  facet normal -1 1.22465e-16 -1.08721e-23
    outer loop
      vertex -4.56137e-17 -0.372464 -2.3817
      vertex -7.10295e-16 -5.8 -5.6
      vertex -9.07883e-17 -0.741343 -2.32698
    endloop
  endfacet
  facet normal -1 1.22465e-16 9.24763e-24
    outer loop
      vertex -9.07883e-17 -0.741343 -2.32698
      vertex -7.10295e-16 -5.8 -5.6
      vertex -1.35089e-16 -1.10308 -2.23637
    endloop
  endfacet
  facet normal -1 1.22465e-16 -1.04597e-23
    outer loop
      vertex -1.35089e-16 -1.10308 -2.23637
      vertex -7.10295e-16 -5.8 -5.6
      vertex -1.78088e-16 -1.4542 -2.11074
    endloop
  endfacet
  facet normal -1 1.22465e-16 0
    outer loop
      vertex -8.3276e-16 -6.8 4.6
      vertex -4.56424e-16 -3.72698 0.658656
      vertex -8.3276e-16 -6.8 -4.6
    endloop
  endfacet
  facet normal -1 1.22465e-16 -2.00283e-23
    outer loop
      vertex -4.45327e-16 -3.63637 0.296918
      vertex -8.3276e-16 -6.8 -4.6
      vertex -4.56424e-16 -3.72698 0.658656
    endloop
  endfacet
  facet normal -1 1.22465e-16 -1.75815e-23
    outer loop
      vertex -4.29942e-16 -3.51074 -0.0541964
      vertex -8.3276e-16 -6.8 -4.6
      vertex -4.45327e-16 -3.63637 0.296918
    endloop
  endfacet
  facet normal -1 1.22465e-16 3.59604e-23
    outer loop
      vertex -4.10416e-16 -3.3513 -0.391307
      vertex -8.3276e-16 -6.8 -4.6
      vertex -4.29942e-16 -3.51074 -0.0541964
    endloop
  endfacet
  facet normal -1 1.22465e-16 1.26785e-23
    outer loop
      vertex -3.86937e-16 -3.15958 -0.711166
      vertex -8.3276e-16 -6.8 -4.6
      vertex -4.10416e-16 -3.3513 -0.391307
    endloop
  endfacet
  facet normal -1 1.22465e-16 -4.54576e-23
    outer loop
      vertex -3.59733e-16 -2.93744 -1.01069
      vertex -8.3276e-16 -6.8 -4.6
      vertex -3.86937e-16 -3.15958 -0.711166
    endloop
  endfacet
  facet normal -1 1.22465e-16 4.4926e-23
    outer loop
      vertex -3.29063e-16 -2.68701 -1.28701
      vertex -8.3276e-16 -6.8 -4.6
      vertex -3.59733e-16 -2.93744 -1.01069
    endloop
  endfacet
  facet normal -1 1.22465e-16 -1.55275e-23
    outer loop
      vertex -8.3276e-16 -6.8 -4.6
      vertex -3.29063e-16 -2.68701 -1.28701
      vertex -7.10295e-16 -5.8 -5.6
    endloop
  endfacet
  facet normal -1 1.22465e-16 -6.23766e-24
    outer loop
      vertex -2.95225e-16 -2.41069 -1.53744
      vertex -7.10295e-16 -5.8 -5.6
      vertex -3.29063e-16 -2.68701 -1.28701
    endloop
  endfacet
  facet normal -1 1.22465e-16 9.5488e-24
    outer loop
      vertex -2.58543e-16 -2.11117 -1.75958
      vertex -7.10295e-16 -5.8 -5.6
      vertex -2.95225e-16 -2.41069 -1.53744
    endloop
  endfacet
  facet normal -1 1.22465e-16 -1.80362e-23
    outer loop
      vertex -2.19372e-16 -1.79131 -1.9513
      vertex -7.10295e-16 -5.8 -5.6
      vertex -2.58543e-16 -2.11117 -1.75958
    endloop
  endfacet
  facet normal -1 1.22465e-16 -7.74522e-24
    outer loop
      vertex -1.78088e-16 -1.4542 -2.11074
      vertex -7.10295e-16 -5.8 -5.6
      vertex -2.19372e-16 -1.79131 -1.9513
    endloop
  endfacet
  facet normal -1 1.22465e-16 4.58802e-23
    outer loop
      vertex 7.10295e-16 5.8 -5.6
      vertex 8.3276e-16 6.8 -4.6
      vertex 8.23438e-16 6.72388 -4.98268
    endloop
  endfacet
  facet normal -1 1.22465e-16 -8.00931e-23
    outer loop
      vertex 7.10295e-16 5.8 -5.6
      vertex 8.23438e-16 6.72388 -4.98268
      vertex 7.96891e-16 6.50711 -5.30711
    endloop
  endfacet
  facet normal -1 1.22465e-16 -2.01591e-22
    outer loop
      vertex 7.10295e-16 5.8 -5.6
      vertex 7.96891e-16 6.50711 -5.30711
      vertex 7.5716e-16 6.18268 -5.52388
    endloop
  endfacet
  facet normal -1 1.22465e-16 1.55275e-23
    outer loop
      vertex 3.29063e-16 2.68701 -1.28701
      vertex 8.3276e-16 6.8 -4.6
      vertex 7.10295e-16 5.8 -5.6
    endloop
  endfacet
  facet normal -1 1.22465e-16 0
    outer loop
      vertex 4.63125e-16 3.7817 1.02753
      vertex 8.3276e-16 6.8 4.6
      vertex 8.3276e-16 6.8 -4.6
    endloop
  endfacet
  facet normal -1 1.22465e-16 -3.49157e-24
    outer loop
      vertex 4.63125e-16 3.7817 1.77246
      vertex 8.3276e-16 6.8 4.6
      vertex 4.65366e-16 3.8 1.4
    endloop
  endfacet
  facet normal -1 1.22465e-16 7.34787e-23
    outer loop
      vertex 4.56424e-16 3.72698 2.14134
      vertex 8.3276e-16 6.8 4.6
      vertex 4.63125e-16 3.7817 1.77246
    endloop
  endfacet
  facet normal -1 1.22465e-16 -2.38363e-23
    outer loop
      vertex 4.45327e-16 3.63637 2.50308
      vertex 8.3276e-16 6.8 4.6
      vertex 4.56424e-16 3.72698 2.14134
    endloop
  endfacet
  facet normal -1 1.22465e-16 -2.20819e-23
    outer loop
      vertex 4.29942e-16 3.51074 2.8542
      vertex 8.3276e-16 6.8 4.6
      vertex 4.45327e-16 3.63637 2.50308
    endloop
  endfacet
  facet normal -1 1.22465e-16 4.75334e-23
    outer loop
      vertex 4.10416e-16 3.3513 3.19131
      vertex 8.3276e-16 6.8 4.6
      vertex 4.29942e-16 3.51074 2.8542
    endloop
  endfacet
  facet normal -1 1.22465e-16 1.76348e-23
    outer loop
      vertex 3.86937e-16 3.15958 3.51117
      vertex 8.3276e-16 6.8 4.6
      vertex 4.10416e-16 3.3513 3.19131
    endloop
  endfacet
  facet normal -1 1.22465e-16 -6.66805e-23
    outer loop
      vertex 3.59733e-16 2.93744 3.81069
      vertex 8.3276e-16 6.8 4.6
      vertex 3.86937e-16 3.15958 3.51117
    endloop
  endfacet
  facet normal -1 1.22465e-16 6.98306e-23
    outer loop
      vertex 3.29063e-16 2.68701 4.08701
      vertex 8.3276e-16 6.8 4.6
      vertex 3.59733e-16 2.93744 3.81069
    endloop
  endfacet
  facet normal -1 1.22465e-16 -5.13047e-24
    outer loop
      vertex 2.95225e-16 2.41069 4.33744
      vertex 8.3276e-16 6.8 4.6
      vertex 3.29063e-16 2.68701 4.08701
    endloop
  endfacet
  facet normal -1 1.22465e-16 3.33149e-23
    outer loop
      vertex 2.58543e-16 2.11117 4.55958
      vertex 8.3276e-16 6.8 4.6
      vertex 2.95225e-16 2.41069 4.33744
    endloop
  endfacet
  facet normal -1 1.22465e-16 -3.2115e-22
    outer loop
      vertex 8.3276e-16 6.8 4.6
      vertex 2.58543e-16 2.11117 4.55958
      vertex 2.50286e-16 2.04374 4.6
    endloop
  endfacet
  facet normal -1 1.22465e-16 1.01511e-22
    outer loop
      vertex -4.56424e-16 -3.72698 0.658656
      vertex -8.3276e-16 -6.8 4.6
      vertex -4.63125e-16 -3.7817 1.02753
    endloop
  endfacet
  facet normal -1 1.22465e-16 -3.87774e-24
    outer loop
      vertex -4.63125e-16 -3.7817 1.02753
      vertex -8.3276e-16 -6.8 4.6
      vertex -4.65366e-16 -3.8 1.4
    endloop
  endfacet
  facet normal -1 1.22465e-16 3.49157e-24
    outer loop
      vertex -4.65366e-16 -3.8 1.4
      vertex -8.3276e-16 -6.8 4.6
      vertex -4.63125e-16 -3.7817 1.77246
    endloop
  endfacet
  facet normal -1 1.22465e-16 6.05672e-23
    outer loop
      vertex -8.3276e-16 -6.8 -4.6
      vertex -7.10295e-16 -5.8 -5.6
      vertex -7.5716e-16 -6.18268 -5.52388
    endloop
  endfacet
  facet normal -1 1.22465e-16 -1.93165e-23
    outer loop
      vertex -8.3276e-16 -6.8 -4.6
      vertex -7.5716e-16 -6.18268 -5.52388
      vertex -7.96891e-16 -6.50711 -5.30711
    endloop
  endfacet
  facet normal -1 1.22465e-16 -7.34787e-23
    outer loop
      vertex -4.63125e-16 -3.7817 1.77246
      vertex -8.3276e-16 -6.8 4.6
      vertex -4.56424e-16 -3.72698 2.14134
    endloop
  endfacet
  facet normal -1 1.22465e-16 -7.54378e-23
    outer loop
      vertex -8.3276e-16 -6.8 -4.6
      vertex -7.96891e-16 -6.50711 -5.30711
      vertex -8.23438e-16 -6.72388 -4.98268
    endloop
  endfacet
  facet normal -1 1.22465e-16 2.38363e-23
    outer loop
      vertex -4.56424e-16 -3.72698 2.14134
      vertex -8.3276e-16 -6.8 4.6
      vertex -4.45327e-16 -3.63637 2.50308
    endloop
  endfacet
  facet normal -1 1.22465e-16 3.2115e-22
    outer loop
      vertex -2.58543e-16 -2.11117 4.55958
      vertex -8.3276e-16 -6.8 4.6
      vertex -2.50286e-16 -2.04374 4.6
    endloop
  endfacet
  facet normal -1 1.22465e-16 -3.33149e-23
    outer loop
      vertex -2.95225e-16 -2.41069 4.33744
      vertex -8.3276e-16 -6.8 4.6
      vertex -2.58543e-16 -2.11117 4.55958
    endloop
  endfacet
  facet normal -1 1.22465e-16 5.13047e-24
    outer loop
      vertex -3.29063e-16 -2.68701 4.08701
      vertex -8.3276e-16 -6.8 4.6
      vertex -2.95225e-16 -2.41069 4.33744
    endloop
  endfacet
  facet normal -1 1.22465e-16 -6.98306e-23
    outer loop
      vertex -3.59733e-16 -2.93744 3.81069
      vertex -8.3276e-16 -6.8 4.6
      vertex -3.29063e-16 -2.68701 4.08701
    endloop
  endfacet
  facet normal -1 1.22465e-16 6.66805e-23
    outer loop
      vertex -3.86937e-16 -3.15958 3.51117
      vertex -8.3276e-16 -6.8 4.6
      vertex -3.59733e-16 -2.93744 3.81069
    endloop
  endfacet
  facet normal -1 1.22465e-16 -1.76348e-23
    outer loop
      vertex -4.10416e-16 -3.3513 3.19131
      vertex -8.3276e-16 -6.8 4.6
      vertex -3.86937e-16 -3.15958 3.51117
    endloop
  endfacet
  facet normal -1 1.22465e-16 -4.75334e-23
    outer loop
      vertex -4.29942e-16 -3.51074 2.8542
      vertex -8.3276e-16 -6.8 4.6
      vertex -4.10416e-16 -3.3513 3.19131
    endloop
  endfacet
  facet normal -1 1.22465e-16 2.20819e-23
    outer loop
      vertex -4.45327e-16 -3.63637 2.50308
      vertex -8.3276e-16 -6.8 4.6
      vertex -4.29942e-16 -3.51074 2.8542
    endloop
  endfacet
  facet normal 0 0.83147 -0.55557
    outer loop
      vertex 1 6.50711 -5.30711
      vertex 8.23438e-16 6.72388 -4.98268
      vertex 1 6.72388 -4.98268
    endloop
  endfacet
  facet normal 0 0.83147 -0.55557
    outer loop
      vertex 8.23438e-16 6.72388 -4.98268
      vertex 1 6.50711 -5.30711
      vertex 7.96891e-16 6.50711 -5.30711
    endloop
  endfacet
  facet normal 0 0.83147 0.55557
    outer loop
      vertex 1 6.72388 4.98268
      vertex 9.53674e-07 6.50711 5.30711
      vertex 1 6.50711 5.30711
    endloop
  endfacet
  facet normal 0 0.83147 0.55557
    outer loop
      vertex 9.53674e-07 6.50711 5.30711
      vertex 1 6.72388 4.98268
      vertex 9.53674e-07 6.72388 4.98268
    endloop
  endfacet
  facet normal 0 -1 0
    outer loop
      vertex -8.3276e-16 -6.8 -4.6
      vertex 1 -6.8 4.6
      vertex -8.3276e-16 -6.8 4.6
    endloop
  endfacet
  facet normal 0 -1 -0
    outer loop
      vertex 1 -6.8 4.6
      vertex -8.3276e-16 -6.8 -4.6
      vertex 1 -6.8 -4.6
    endloop
  endfacet
  facet normal 0 -0.19509 0.980785
    outer loop
      vertex 9.53674e-07 -5.8 5.6
      vertex 1 -6.18268 5.52388
      vertex 1 -5.8 5.6
    endloop
  endfacet
  facet normal 0 -0.19509 0.980785
    outer loop
      vertex 1 -6.18268 5.52388
      vertex 9.53674e-07 -5.8 5.6
      vertex 9.53674e-07 -6.18268 5.52388
    endloop
  endfacet
  facet normal 0 0.55557 -0.83147
    outer loop
      vertex 1 6.18268 -5.52388
      vertex 7.96891e-16 6.50711 -5.30711
      vertex 1 6.50711 -5.30711
    endloop
  endfacet
  facet normal 0 0.55557 -0.83147
    outer loop
      vertex 7.96891e-16 6.50711 -5.30711
      vertex 1 6.18268 -5.52388
      vertex 7.5716e-16 6.18268 -5.52388
    endloop
  endfacet
  facet normal 0 0.19509 -0.980785
    outer loop
      vertex 1 5.8 -5.6
      vertex 7.5716e-16 6.18268 -5.52388
      vertex 1 6.18268 -5.52388
    endloop
  endfacet
  facet normal 0 0.19509 -0.980785
    outer loop
      vertex 7.5716e-16 6.18268 -5.52388
      vertex 1 5.8 -5.6
      vertex 7.10295e-16 5.8 -5.6
    endloop
  endfacet
  facet normal 0 0.980785 -0.19509
    outer loop
      vertex 1 6.72388 -4.98268
      vertex 8.3276e-16 6.8 -4.6
      vertex 1 6.8 -4.6
    endloop
  endfacet
  facet normal 0 0.980785 -0.19509
    outer loop
      vertex 8.3276e-16 6.8 -4.6
      vertex 1 6.72388 -4.98268
      vertex 8.23438e-16 6.72388 -4.98268
    endloop
  endfacet
  facet normal -0 0.55557 0.83147
    outer loop
      vertex 9.53674e-07 6.50711 5.30711
      vertex 1 6.18268 5.52388
      vertex 1 6.50711 5.30711
    endloop
  endfacet
  facet normal 0 0.55557 0.83147
    outer loop
      vertex 1 6.18268 5.52388
      vertex 9.53674e-07 6.50711 5.30711
      vertex 9.53674e-07 6.18268 5.52388
    endloop
  endfacet
  facet normal -0 0.19509 0.980785
    outer loop
      vertex 9.53674e-07 6.18268 5.52388
      vertex 1 5.8 5.6
      vertex 1 6.18268 5.52388
    endloop
  endfacet
  facet normal 0 0.19509 0.980785
    outer loop
      vertex 1 5.8 5.6
      vertex 9.53674e-07 6.18268 5.52388
      vertex 9.53674e-07 5.8 5.6
    endloop
  endfacet
  facet normal 0 0.980785 0.19509
    outer loop
      vertex 1 6.8 4.6
      vertex 9.53674e-07 6.72388 4.98268
      vertex 1 6.72388 4.98268
    endloop
  endfacet
  facet normal 0 0.980785 0.19509
    outer loop
      vertex 9.53674e-07 6.72388 4.98268
      vertex 1 6.8 4.6
      vertex 8.3276e-16 6.8 4.6
    endloop
  endfacet
  facet normal 0 1 -0
    outer loop
      vertex 1 6.8 -4.6
      vertex 8.3276e-16 6.8 4.6
      vertex 1 6.8 4.6
    endloop
  endfacet
  facet normal 0 1 0
    outer loop
      vertex 8.3276e-16 6.8 4.6
      vertex 1 6.8 -4.6
      vertex 8.3276e-16 6.8 -4.6
    endloop
  endfacet
  facet normal -1 -1.24603e-06 1.86482e-06
    outer loop
      vertex 9.53674e-07 -6.50711 5.30711
      vertex 9.53674e-07 -6.18268 5.52388
      vertex -8.3276e-16 -6.8 4.6
    endloop
  endfacet
  facet normal -1 -5.31057e-06 3.54841e-06
    outer loop
      vertex 9.53674e-07 -6.72388 4.98268
      vertex 9.53674e-07 -6.50711 5.30711
      vertex -8.3276e-16 -6.8 4.6
    endloop
  endfacet
  facet normal -1 1.24603e-06 1.86482e-06
    outer loop
      vertex 9.53674e-07 6.18268 5.52388
      vertex 9.53674e-07 6.50711 5.30711
      vertex 8.3276e-16 6.8 4.6
    endloop
  endfacet
  facet normal -1 2.36799e-07 1.19047e-06
    outer loop
      vertex 9.53674e-07 5.8 5.6
      vertex 9.53674e-07 6.18268 5.52388
      vertex 8.3276e-16 6.8 4.6
    endloop
  endfacet
  facet normal 0 -0.83147 -0.55557
    outer loop
      vertex -7.96891e-16 -6.50711 -5.30711
      vertex 1 -6.72388 -4.98268
      vertex -8.23438e-16 -6.72388 -4.98268
    endloop
  endfacet
  facet normal 0 -0.83147 -0.55557
    outer loop
      vertex 1 -6.72388 -4.98268
      vertex -7.96891e-16 -6.50711 -5.30711
      vertex 1 -6.50711 -5.30711
    endloop
  endfacet
  facet normal 0 -0.980785 -0.19509
    outer loop
      vertex -8.23438e-16 -6.72388 -4.98268
      vertex 1 -6.8 -4.6
      vertex -8.3276e-16 -6.8 -4.6
    endloop
  endfacet
  facet normal 0 -0.980785 -0.19509
    outer loop
      vertex 1 -6.8 -4.6
      vertex -8.23438e-16 -6.72388 -4.98268
      vertex 1 -6.72388 -4.98268
    endloop
  endfacet
  facet normal 0 -0.55557 0.83147
    outer loop
      vertex 9.53674e-07 -6.18268 5.52388
      vertex 1 -6.50711 5.30711
      vertex 1 -6.18268 5.52388
    endloop
  endfacet
  facet normal 0 -0.55557 0.83147
    outer loop
      vertex 1 -6.50711 5.30711
      vertex 9.53674e-07 -6.18268 5.52388
      vertex 9.53674e-07 -6.50711 5.30711
    endloop
  endfacet
  facet normal 0 -0.83147 0.55557
    outer loop
      vertex 9.53674e-07 -6.72388 4.98268
      vertex 1 -6.50711 5.30711
      vertex 9.53674e-07 -6.50711 5.30711
    endloop
  endfacet
  facet normal 0 -0.83147 0.55557
    outer loop
      vertex 1 -6.50711 5.30711
      vertex 9.53674e-07 -6.72388 4.98268
      vertex 1 -6.72388 4.98268
    endloop
  endfacet
  facet normal 0 -0.980785 0.19509
    outer loop
      vertex -8.3276e-16 -6.8 4.6
      vertex 1 -6.72388 4.98268
      vertex 9.53674e-07 -6.72388 4.98268
    endloop
  endfacet
  facet normal 0 -0.980785 0.19509
    outer loop
      vertex 1 -6.72388 4.98268
      vertex -8.3276e-16 -6.8 4.6
      vertex 1 -6.8 4.6
    endloop
  endfacet
  facet normal 0 -0.55557 -0.83147
    outer loop
      vertex 1 -6.50711 -5.30711
      vertex -7.5716e-16 -6.18268 -5.52388
      vertex 1 -6.18268 -5.52388
    endloop
  endfacet
  facet normal 0 -0.55557 -0.83147
    outer loop
      vertex -7.5716e-16 -6.18268 -5.52388
      vertex 1 -6.50711 -5.30711
      vertex -7.96891e-16 -6.50711 -5.30711
    endloop
  endfacet
  facet normal 0 -0.19509 -0.980785
    outer loop
      vertex 1 -6.18268 -5.52388
      vertex -7.10295e-16 -5.8 -5.6
      vertex 1 -5.8 -5.6
    endloop
  endfacet
  facet normal 0 -0.19509 -0.980785
    outer loop
      vertex -7.10295e-16 -5.8 -5.6
      vertex 1 -6.18268 -5.52388
      vertex -7.5716e-16 -6.18268 -5.52388
    endloop
  endfacet
  facet normal 6.00911e-18 0.0490681 0.998795
    outer loop
      vertex 0 1.22465e-16 -2.4
      vertex 1 -0.372464 -2.3817
      vertex 1 0 -2.4
    endloop
  endfacet
  facet normal 0 0.0490681 0.998795
    outer loop
      vertex 1 -0.372464 -2.3817
      vertex 0 1.22465e-16 -2.4
      vertex -4.56137e-17 -0.372464 -2.3817
    endloop
  endfacet
  facet normal 0 0.998795 -0.049068
    outer loop
      vertex 1 -3.8 1.4
      vertex -4.63125e-16 -3.7817 1.77246
      vertex 1 -3.7817 1.77246
    endloop
  endfacet
  facet normal 0 0.998795 -0.049068
    outer loop
      vertex -4.63125e-16 -3.7817 1.77246
      vertex 1 -3.8 1.4
      vertex -4.65366e-16 -3.8 1.4
    endloop
  endfacet
  facet normal 0 -0.514103 0.857728
    outer loop
      vertex 2.58543e-16 2.11117 -1.75958
      vertex 1 1.79131 -1.9513
      vertex 1 2.11117 -1.75958
    endloop
  endfacet
  facet normal 0 -0.514103 0.857728
    outer loop
      vertex 1 1.79131 -1.9513
      vertex 2.58543e-16 2.11117 -1.75958
      vertex 2.19372e-16 1.79131 -1.9513
    endloop
  endfacet
  facet normal 0 0.803207 0.5957
    outer loop
      vertex 1 -2.93744 -1.01069
      vertex -3.86937e-16 -3.15958 -0.711166
      vertex 1 -3.15958 -0.711166
    endloop
  endfacet
  facet normal 0 0.803207 0.5957
    outer loop
      vertex -3.86937e-16 -3.15958 -0.711166
      vertex 1 -2.93744 -1.01069
      vertex -3.59733e-16 -2.93744 -1.01069
    endloop
  endfacet
  facet normal 0 0.903989 0.427556
    outer loop
      vertex 1 -3.3513 -0.391307
      vertex -4.29942e-16 -3.51074 -0.0541964
      vertex 1 -3.51074 -0.0541964
    endloop
  endfacet
  facet normal 0 0.903989 0.427556
    outer loop
      vertex -4.29942e-16 -3.51074 -0.0541964
      vertex 1 -3.3513 -0.391307
      vertex -4.10416e-16 -3.3513 -0.391307
    endloop
  endfacet
  facet normal 0 0.970031 0.242982
    outer loop
      vertex 1 -3.63637 0.296918
      vertex -4.56424e-16 -3.72698 0.658656
      vertex 1 -3.72698 0.658656
    endloop
  endfacet
  facet normal 0 0.970031 0.242982
    outer loop
      vertex -4.56424e-16 -3.72698 0.658656
      vertex 1 -3.63637 0.296918
      vertex -4.45327e-16 -3.63637 0.296918
    endloop
  endfacet
  facet normal 0 0.998795 0.049068
    outer loop
      vertex 1 -3.7817 1.02753
      vertex -4.65366e-16 -3.8 1.4
      vertex 1 -3.8 1.4
    endloop
  endfacet
  facet normal 0 0.998795 0.049068
    outer loop
      vertex -4.65366e-16 -3.8 1.4
      vertex 1 -3.7817 1.02753
      vertex -4.63125e-16 -3.7817 1.02753
    endloop
  endfacet
  facet normal -0 0.514103 0.857728
    outer loop
      vertex -2.19372e-16 -1.79131 -1.9513
      vertex 1 -2.11117 -1.75958
      vertex 1 -1.79131 -1.9513
    endloop
  endfacet
  facet normal 0 0.514103 0.857728
    outer loop
      vertex 1 -2.11117 -1.75958
      vertex -2.19372e-16 -1.79131 -1.9513
      vertex -2.58543e-16 -2.11117 -1.75958
    endloop
  endfacet
  facet normal -0 0.671559 0.740951
    outer loop
      vertex -2.95225e-16 -2.41069 -1.53744
      vertex 1 -2.68701 -1.28701
      vertex 1 -2.41069 -1.53744
    endloop
  endfacet
  facet normal 0 0.671559 0.740951
    outer loop
      vertex 1 -2.68701 -1.28701
      vertex -2.95225e-16 -2.41069 -1.53744
      vertex -3.29063e-16 -2.68701 -1.28701
    endloop
  endfacet
  facet normal -0 0.336891 0.941544
    outer loop
      vertex -1.35089e-16 -1.10308 -2.23637
      vertex 1 -1.4542 -2.11074
      vertex 1 -1.10308 -2.23637
    endloop
  endfacet
  facet normal 0 0.336891 0.941544
    outer loop
      vertex 1 -1.4542 -2.11074
      vertex -1.35089e-16 -1.10308 -2.23637
      vertex -1.78088e-16 -1.4542 -2.11074
    endloop
  endfacet
  facet normal -0 0.146731 0.989176
    outer loop
      vertex -4.56137e-17 -0.372464 -2.3817
      vertex 1 -0.741343 -2.32698
      vertex 1 -0.372464 -2.3817
    endloop
  endfacet
  facet normal 0 0.146731 0.989176
    outer loop
      vertex 1 -0.741343 -2.32698
      vertex -4.56137e-17 -0.372464 -2.3817
      vertex -9.07883e-17 -0.741343 -2.32698
    endloop
  endfacet
  facet normal 0 -0.146731 0.989176
    outer loop
      vertex 9.07883e-17 0.741343 -2.32698
      vertex 1 0.372464 -2.3817
      vertex 1 0.741343 -2.32698
    endloop
  endfacet
  facet normal 0 -0.146731 0.989176
    outer loop
      vertex 1 0.372464 -2.3817
      vertex 9.07883e-17 0.741343 -2.32698
      vertex 4.56137e-17 0.372464 -2.3817
    endloop
  endfacet
  facet normal 0 -0.803207 0.5957
    outer loop
      vertex 3.59733e-16 2.93744 -1.01069
      vertex 1 3.15958 -0.711166
      vertex 3.86937e-16 3.15958 -0.711166
    endloop
  endfacet
  facet normal 0 -0.803207 0.5957
    outer loop
      vertex 1 3.15958 -0.711166
      vertex 3.59733e-16 2.93744 -1.01069
      vertex 1 2.93744 -1.01069
    endloop
  endfacet
  facet normal 0 0.740952 -0.671558
    outer loop
      vertex 1 -2.93744 3.81069
      vertex -3.29063e-16 -2.68701 4.08701
      vertex 1 -2.68701 4.08701
    endloop
  endfacet
  facet normal 0 0.740952 -0.671558
    outer loop
      vertex -3.29063e-16 -2.68701 4.08701
      vertex 1 -2.93744 3.81069
      vertex -3.59733e-16 -2.93744 3.81069
    endloop
  endfacet
  facet normal 0 0.740952 -0.671558
    outer loop
      vertex 3 -2.93744 3.81069
      vertex 1 -2.68701 4.08701
      vertex 3 -2.68701 4.08701
    endloop
  endfacet
  facet normal 0 0.740952 -0.671558
    outer loop
      vertex 1 -2.68701 4.08701
      vertex 3 -2.93744 3.81069
      vertex 1 -2.93744 3.81069
    endloop
  endfacet
  facet normal 0 0.90399 -0.427553
    outer loop
      vertex 1 -3.35538 3.18268
      vertex -4.10416e-16 -3.3513 3.19131
      vertex 1 -3.3513 3.19131
    endloop
  endfacet
  facet normal -3.10837e-08 0.903989 -0.427556
    outer loop
      vertex 1 -3.51074 2.8542
      vertex -4.10416e-16 -3.3513 3.19131
      vertex 1 -3.35538 3.18268
    endloop
  endfacet
  facet normal 0 0.903989 -0.427556
    outer loop
      vertex -4.10416e-16 -3.3513 3.19131
      vertex 1 -3.51074 2.8542
      vertex -4.29942e-16 -3.51074 2.8542
    endloop
  endfacet
  facet normal 0 0.857729 0.514102
    outer loop
      vertex 1 -3.15958 -0.711166
      vertex -4.10416e-16 -3.3513 -0.391307
      vertex 1 -3.3513 -0.391307
    endloop
  endfacet
  facet normal 0 0.857729 0.514102
    outer loop
      vertex -4.10416e-16 -3.3513 -0.391307
      vertex 1 -3.15958 -0.711166
      vertex -3.86937e-16 -3.15958 -0.711166
    endloop
  endfacet
  facet normal 0 0.941544 0.336889
    outer loop
      vertex 1 -3.51074 -0.0541964
      vertex -4.45327e-16 -3.63637 0.296918
      vertex 1 -3.63637 0.296918
    endloop
  endfacet
  facet normal 0 0.941544 0.336889
    outer loop
      vertex -4.45327e-16 -3.63637 0.296918
      vertex 1 -3.51074 -0.0541964
      vertex -4.29942e-16 -3.51074 -0.0541964
    endloop
  endfacet
  facet normal 0 0.989177 0.146728
    outer loop
      vertex 1 -3.72698 0.658656
      vertex -4.63125e-16 -3.7817 1.02753
      vertex 1 -3.7817 1.02753
    endloop
  endfacet
  facet normal 0 0.989177 0.146728
    outer loop
      vertex -4.63125e-16 -3.7817 1.02753
      vertex 1 -3.72698 0.658656
      vertex -4.56424e-16 -3.72698 0.658656
    endloop
  endfacet
  facet normal -0 0.595699 0.803208
    outer loop
      vertex -2.58543e-16 -2.11117 -1.75958
      vertex 1 -2.41069 -1.53744
      vertex 1 -2.11117 -1.75958
    endloop
  endfacet
  facet normal 0 0.595699 0.803208
    outer loop
      vertex 1 -2.41069 -1.53744
      vertex -2.58543e-16 -2.11117 -1.75958
      vertex -2.95225e-16 -2.41069 -1.53744
    endloop
  endfacet
  facet normal 0 0.740952 0.671558
    outer loop
      vertex 1 -2.68701 -1.28701
      vertex -3.59733e-16 -2.93744 -1.01069
      vertex 1 -2.93744 -1.01069
    endloop
  endfacet
  facet normal 0 0.740952 0.671558
    outer loop
      vertex -3.59733e-16 -2.93744 -1.01069
      vertex 1 -2.68701 -1.28701
      vertex -3.29063e-16 -2.68701 -1.28701
    endloop
  endfacet
  facet normal -0 0.427554 0.90399
    outer loop
      vertex -1.78088e-16 -1.4542 -2.11074
      vertex 1 -1.79131 -1.9513
      vertex 1 -1.4542 -2.11074
    endloop
  endfacet
  facet normal 0 0.427554 0.90399
    outer loop
      vertex 1 -1.79131 -1.9513
      vertex -1.78088e-16 -1.4542 -2.11074
      vertex -2.19372e-16 -1.79131 -1.9513
    endloop
  endfacet
  facet normal -0 0.242979 0.970032
    outer loop
      vertex -9.07883e-17 -0.741343 -2.32698
      vertex 1 -1.10308 -2.23637
      vertex 1 -0.741343 -2.32698
    endloop
  endfacet
  facet normal 0 0.242979 0.970032
    outer loop
      vertex 1 -1.10308 -2.23637
      vertex -9.07883e-17 -0.741343 -2.32698
      vertex -1.35089e-16 -1.10308 -2.23637
    endloop
  endfacet
  facet normal 0 -0.242979 0.970032
    outer loop
      vertex 1.35089e-16 1.10308 -2.23637
      vertex 1 0.741343 -2.32698
      vertex 1 1.10308 -2.23637
    endloop
  endfacet
  facet normal 0 -0.242979 0.970032
    outer loop
      vertex 1 0.741343 -2.32698
      vertex 1.35089e-16 1.10308 -2.23637
      vertex 9.07883e-17 0.741343 -2.32698
    endloop
  endfacet
  facet normal 0 -0.671559 -0.740951
    outer loop
      vertex 1 2.452 4.3
      vertex 3 2.68701 4.08701
      vertex 3 2.452 4.3
    endloop
  endfacet
  facet normal -0 -0.671559 -0.740951
    outer loop
      vertex 3 2.68701 4.08701
      vertex 1 2.452 4.3
      vertex 1 2.68701 4.08701
    endloop
  endfacet
  facet normal 0 -0.671559 -0.740951
    outer loop
      vertex 1 2.41069 4.33744
      vertex 3.29063e-16 2.68701 4.08701
      vertex 1 2.68701 4.08701
    endloop
  endfacet
  facet normal 0 -0.671559 -0.740951
    outer loop
      vertex 3.29063e-16 2.68701 4.08701
      vertex 1 2.41069 4.33744
      vertex 2.95225e-16 2.41069 4.33744
    endloop
  endfacet
  facet normal 0 -0.989177 0.146728
    outer loop
      vertex 4.56424e-16 3.72698 0.658656
      vertex 1 3.7817 1.02753
      vertex 4.63125e-16 3.7817 1.02753
    endloop
  endfacet
  facet normal 0 -0.989177 0.146728
    outer loop
      vertex 1 3.7817 1.02753
      vertex 4.56424e-16 3.72698 0.658656
      vertex 1 3.72698 0.658656
    endloop
  endfacet
  facet normal 0 -0.903989 0.427556
    outer loop
      vertex 4.10416e-16 3.3513 -0.391307
      vertex 1 3.51074 -0.0541964
      vertex 4.29942e-16 3.51074 -0.0541964
    endloop
  endfacet
  facet normal 0 -0.903989 0.427556
    outer loop
      vertex 1 3.51074 -0.0541964
      vertex 4.10416e-16 3.3513 -0.391307
      vertex 1 3.3513 -0.391307
    endloop
  endfacet
  facet normal 0 -0.671559 0.740951
    outer loop
      vertex 3.29063e-16 2.68701 -1.28701
      vertex 1 2.41069 -1.53744
      vertex 1 2.68701 -1.28701
    endloop
  endfacet
  facet normal 0 -0.671559 0.740951
    outer loop
      vertex 1 2.41069 -1.53744
      vertex 3.29063e-16 2.68701 -1.28701
      vertex 2.95225e-16 2.41069 -1.53744
    endloop
  endfacet
  facet normal 0 -0.740952 0.671558
    outer loop
      vertex 3.29063e-16 2.68701 -1.28701
      vertex 1 2.93744 -1.01069
      vertex 3.59733e-16 2.93744 -1.01069
    endloop
  endfacet
  facet normal 0 -0.740952 0.671558
    outer loop
      vertex 1 2.93744 -1.01069
      vertex 3.29063e-16 2.68701 -1.28701
      vertex 1 2.68701 -1.28701
    endloop
  endfacet
  facet normal 0 0.595697 -0.803209
    outer loop
      vertex 1 -2.41069 4.33744
      vertex -2.58543e-16 -2.11117 4.55958
      vertex 1 -2.11117 4.55958
    endloop
  endfacet
  facet normal 0 0.595697 -0.803209
    outer loop
      vertex -2.58543e-16 -2.11117 4.55958
      vertex 1 -2.41069 4.33744
      vertex -2.95225e-16 -2.41069 4.33744
    endloop
  endfacet
  facet normal -6.00911e-18 -0.0490681 -0.998795
    outer loop
      vertex 5.72205e-07 1.22465e-16 5.2
      vertex 1 0.372464 5.1817
      vertex 1 0 5.2
    endloop
  endfacet
  facet normal -0 -0.0490681 -0.998795
    outer loop
      vertex 1 0.372464 5.1817
      vertex 5.72205e-07 1.22465e-16 5.2
      vertex 5.54754e-07 0.372464 5.1817
    endloop
  endfacet
  facet normal 0 0.146731 -0.989176
    outer loop
      vertex 1 -0.741343 5.12698
      vertex 5.54754e-07 -0.372464 5.1817
      vertex 1 -0.372464 5.1817
    endloop
  endfacet
  facet normal 0 0.146731 -0.989176
    outer loop
      vertex 5.54754e-07 -0.372464 5.1817
      vertex 1 -0.741343 5.12698
      vertex 5.02571e-07 -0.741343 5.12698
    endloop
  endfacet
  facet normal 0 0.941545 -0.336888
    outer loop
      vertex 1 -3.63637 2.50308
      vertex -4.29942e-16 -3.51074 2.8542
      vertex 1 -3.51074 2.8542
    endloop
  endfacet
  facet normal 0 0.941545 -0.336888
    outer loop
      vertex -4.29942e-16 -3.51074 2.8542
      vertex 1 -3.63637 2.50308
      vertex -4.45327e-16 -3.63637 2.50308
    endloop
  endfacet
  facet normal 0 0.970031 -0.242982
    outer loop
      vertex 1 -3.72698 2.14134
      vertex -4.45327e-16 -3.63637 2.50308
      vertex 1 -3.63637 2.50308
    endloop
  endfacet
  facet normal 0 0.970031 -0.242982
    outer loop
      vertex -4.45327e-16 -3.63637 2.50308
      vertex 1 -3.72698 2.14134
      vertex -4.56424e-16 -3.72698 2.14134
    endloop
  endfacet
  facet normal 0 0.989177 -0.146728
    outer loop
      vertex 1 -3.7817 1.77246
      vertex -4.56424e-16 -3.72698 2.14134
      vertex 1 -3.72698 2.14134
    endloop
  endfacet
  facet normal 0 0.989177 -0.146728
    outer loop
      vertex -4.56424e-16 -3.72698 2.14134
      vertex 1 -3.7817 1.77246
      vertex -4.63125e-16 -3.7817 1.77246
    endloop
  endfacet
  facet normal 0 -0.0490681 0.998795
    outer loop
      vertex 4.56137e-17 0.372464 -2.3817
      vertex 1 0 -2.4
      vertex 1 0.372464 -2.3817
    endloop
  endfacet
  facet normal -6.00911e-18 -0.0490681 0.998795
    outer loop
      vertex 1 0 -2.4
      vertex 4.56137e-17 0.372464 -2.3817
      vertex 0 1.22465e-16 -2.4
    endloop
  endfacet
  facet normal 0 -0.595697 -0.803209
    outer loop
      vertex 1 2.11117 4.55958
      vertex 2.95225e-16 2.41069 4.33744
      vertex 1 2.41069 4.33744
    endloop
  endfacet
  facet normal 0 -0.595697 -0.803209
    outer loop
      vertex 2.95225e-16 2.41069 4.33744
      vertex 1 2.11117 4.55958
      vertex 2.58543e-16 2.11117 4.55958
    endloop
  endfacet
  facet normal 0 -0.803203 -0.595705
    outer loop
      vertex 1 2.93744 3.81069
      vertex 1 2.94537 3.8
      vertex 3 2.93744 3.81069
    endloop
  endfacet
  facet normal 0.168915 -0.791665 -0.587141
    outer loop
      vertex 1 3.15958 3.51117
      vertex 1 2.94537 3.8
      vertex 1 2.93744 3.81069
    endloop
  endfacet
  facet normal 0 -0.803203 -0.595705
    outer loop
      vertex 3 2.93744 3.81069
      vertex 1 2.94537 3.8
      vertex 3 2.94537 3.8
    endloop
  endfacet
  facet normal 0 -0.803207 -0.5957
    outer loop
      vertex 3.86937e-16 3.15958 3.51117
      vertex 1 2.93744 3.81069
      vertex 3.59733e-16 2.93744 3.81069
    endloop
  endfacet
  facet normal 0 -0.803207 -0.5957
    outer loop
      vertex 1 2.93744 3.81069
      vertex 3.86937e-16 3.15958 3.51117
      vertex 1 3.15958 3.51117
    endloop
  endfacet
  facet normal 0 -0.970031 -0.242982
    outer loop
      vertex 4.56424e-16 3.72698 2.14134
      vertex 1 3.63637 2.50308
      vertex 4.45327e-16 3.63637 2.50308
    endloop
  endfacet
  facet normal 0 -0.970031 -0.242982
    outer loop
      vertex 1 3.63637 2.50308
      vertex 4.56424e-16 3.72698 2.14134
      vertex 1 3.72698 2.14134
    endloop
  endfacet
  facet normal 0 -0.941544 0.336889
    outer loop
      vertex 4.29942e-16 3.51074 -0.0541964
      vertex 1 3.63637 0.296918
      vertex 4.45327e-16 3.63637 0.296918
    endloop
  endfacet
  facet normal 0 -0.941544 0.336889
    outer loop
      vertex 1 3.63637 0.296918
      vertex 4.29942e-16 3.51074 -0.0541964
      vertex 1 3.51074 -0.0541964
    endloop
  endfacet
  facet normal 0 -0.595699 0.803208
    outer loop
      vertex 2.95225e-16 2.41069 -1.53744
      vertex 1 2.11117 -1.75958
      vertex 1 2.41069 -1.53744
    endloop
  endfacet
  facet normal 0 -0.595699 0.803208
    outer loop
      vertex 1 2.11117 -1.75958
      vertex 2.95225e-16 2.41069 -1.53744
      vertex 2.58543e-16 2.11117 -1.75958
    endloop
  endfacet
  facet normal 0 -0.857729 0.514102
    outer loop
      vertex 3.86937e-16 3.15958 -0.711166
      vertex 1 3.3513 -0.391307
      vertex 4.10416e-16 3.3513 -0.391307
    endloop
  endfacet
  facet normal 0 -0.857729 0.514102
    outer loop
      vertex 1 3.3513 -0.391307
      vertex 3.86937e-16 3.15958 -0.711166
      vertex 1 3.15958 -0.711166
    endloop
  endfacet
  facet normal 0 0.671559 -0.740951
    outer loop
      vertex 3 -2.68701 4.08701
      vertex 1 -2.452 4.3
      vertex 3 -2.452 4.3
    endloop
  endfacet
  facet normal 0 0.671559 -0.740951
    outer loop
      vertex 1 -2.452 4.3
      vertex 3 -2.68701 4.08701
      vertex 1 -2.68701 4.08701
    endloop
  endfacet
  facet normal 0 0.671559 -0.740951
    outer loop
      vertex 1 -2.68701 4.08701
      vertex -2.95225e-16 -2.41069 4.33744
      vertex 1 -2.41069 4.33744
    endloop
  endfacet
  facet normal 0 0.671559 -0.740951
    outer loop
      vertex -2.95225e-16 -2.41069 4.33744
      vertex 1 -2.68701 4.08701
      vertex -3.29063e-16 -2.68701 4.08701
    endloop
  endfacet
  facet normal 4.65182e-18 0.0490681 -0.998795
    outer loop
      vertex 1 -0.372464 5.1817
      vertex 5.72205e-07 1.22465e-16 5.2
      vertex 1 0 5.2
    endloop
  endfacet
  facet normal 0 0.0490681 -0.998795
    outer loop
      vertex 5.72205e-07 1.22465e-16 5.2
      vertex 1 -0.372464 5.1817
      vertex 5.54754e-07 -0.372464 5.1817
    endloop
  endfacet
  facet normal 0 -0.336891 0.941544
    outer loop
      vertex 1.78088e-16 1.4542 -2.11074
      vertex 1 1.10308 -2.23637
      vertex 1 1.4542 -2.11074
    endloop
  endfacet
  facet normal 0 -0.336891 0.941544
    outer loop
      vertex 1 1.10308 -2.23637
      vertex 1.78088e-16 1.4542 -2.11074
      vertex 1.35089e-16 1.10308 -2.23637
    endloop
  endfacet
  facet normal 0 -0.427554 0.90399
    outer loop
      vertex 2.19372e-16 1.79131 -1.9513
      vertex 1 1.4542 -2.11074
      vertex 1 1.79131 -1.9513
    endloop
  endfacet
  facet normal 0 -0.427554 0.90399
    outer loop
      vertex 1 1.4542 -2.11074
      vertex 2.19372e-16 1.79131 -1.9513
      vertex 1.78088e-16 1.4542 -2.11074
    endloop
  endfacet
  facet normal 0 -0.514104 -0.857728
    outer loop
      vertex 2.50286e-16 2.04374 4.6
      vertex 1 1.79131 4.7513
      vertex 1.44291e-07 1.79131 4.7513
    endloop
  endfacet
  facet normal 2.03915e-08 -0.514103 -0.857728
    outer loop
      vertex 1 1.79131 4.7513
      vertex 2.50286e-16 2.04374 4.6
      vertex 1 2.11117 4.55958
    endloop
  endfacet
  facet normal -0 -0.514103 -0.857728
    outer loop
      vertex 1 2.11117 4.55958
      vertex 2.50286e-16 2.04374 4.6
      vertex 2.58543e-16 2.11117 4.55958
    endloop
  endfacet
  facet normal 0 -0.427556 -0.903989
    outer loop
      vertex 2.96347e-07 1.4542 4.91074
      vertex 1 1.79131 4.7513
      vertex 1 1.4542 4.91074
    endloop
  endfacet
  facet normal -0 -0.427556 -0.903989
    outer loop
      vertex 1 1.79131 4.7513
      vertex 2.96347e-07 1.4542 4.91074
      vertex 1.44291e-07 1.79131 4.7513
    endloop
  endfacet
  facet normal 0 -0.857729 -0.514103
    outer loop
      vertex 3.86937e-16 3.15958 3.51117
      vertex 1 3.28615 3.3
      vertex 1 3.15958 3.51117
    endloop
  endfacet
  facet normal 9.10289e-08 -0.857729 -0.514102
    outer loop
      vertex 1 3.28615 3.3
      vertex 3.86937e-16 3.15958 3.51117
      vertex 4.10416e-16 3.3513 3.19131
    endloop
  endfacet
  facet normal -0.489788 -0.747804 -0.448215
    outer loop
      vertex 1 3.28615 3.3
      vertex 1 3.3513 3.19131
      vertex 1 3.15958 3.51117
    endloop
  endfacet
  facet normal -0 -0.857729 -0.514102
    outer loop
      vertex 1 3.3513 3.19131
      vertex 1 3.28615 3.3
      vertex 4.10416e-16 3.3513 3.19131
    endloop
  endfacet
  facet normal 0 -0.90399 -0.427553
    outer loop
      vertex 4.10416e-16 3.3513 3.19131
      vertex 1 3.35538 3.18268
      vertex 1 3.3513 3.19131
    endloop
  endfacet
  facet normal -3.02885e-08 -0.903989 -0.427556
    outer loop
      vertex 4.29942e-16 3.51074 2.8542
      vertex 1 3.35538 3.18268
      vertex 4.10416e-16 3.3513 3.19131
    endloop
  endfacet
  facet normal 0 -0.903989 -0.427556
    outer loop
      vertex 1 3.35538 3.18268
      vertex 4.29942e-16 3.51074 2.8542
      vertex 1 3.51074 2.8542
    endloop
  endfacet
  facet normal 0 -0.989177 -0.146728
    outer loop
      vertex 4.63125e-16 3.7817 1.77246
      vertex 1 3.72698 2.14134
      vertex 4.56424e-16 3.72698 2.14134
    endloop
  endfacet
  facet normal 0 -0.989177 -0.146728
    outer loop
      vertex 1 3.72698 2.14134
      vertex 4.63125e-16 3.7817 1.77246
      vertex 1 3.7817 1.77246
    endloop
  endfacet
  facet normal 0 -0.970031 0.242982
    outer loop
      vertex 4.45327e-16 3.63637 0.296918
      vertex 1 3.72698 0.658656
      vertex 4.56424e-16 3.72698 0.658656
    endloop
  endfacet
  facet normal 0 -0.970031 0.242982
    outer loop
      vertex 1 3.72698 0.658656
      vertex 4.45327e-16 3.63637 0.296918
      vertex 1 3.63637 0.296918
    endloop
  endfacet
  facet normal 0 -0.998795 0.049068
    outer loop
      vertex 4.63125e-16 3.7817 1.02753
      vertex 1 3.8 1.4
      vertex 4.65366e-16 3.8 1.4
    endloop
  endfacet
  facet normal 0 -0.998795 0.049068
    outer loop
      vertex 1 3.8 1.4
      vertex 4.63125e-16 3.7817 1.02753
      vertex 1 3.7817 1.02753
    endloop
  endfacet
  facet normal 0 -0.998795 -0.049068
    outer loop
      vertex 4.65366e-16 3.8 1.4
      vertex 1 3.7817 1.77246
      vertex 4.63125e-16 3.7817 1.77246
    endloop
  endfacet
  facet normal 0 -0.998795 -0.049068
    outer loop
      vertex 1 3.7817 1.77246
      vertex 4.65366e-16 3.8 1.4
      vertex 1 3.8 1.4
    endloop
  endfacet
  facet normal -0.489788 0.747804 -0.448215
    outer loop
      vertex 1 -3.28615 3.3
      vertex 1 -3.15958 3.51117
      vertex 1 -3.3513 3.19131
    endloop
  endfacet
  facet normal 0 0.857729 -0.514103
    outer loop
      vertex 1 -3.28615 3.3
      vertex -3.86937e-16 -3.15958 3.51117
      vertex 1 -3.15958 3.51117
    endloop
  endfacet
  facet normal 0 0.857729 -0.514102
    outer loop
      vertex -4.10416e-16 -3.3513 3.19131
      vertex 1 -3.28615 3.3
      vertex 1 -3.3513 3.19131
    endloop
  endfacet
  facet normal 9.10289e-08 0.857729 -0.514102
    outer loop
      vertex 1 -3.28615 3.3
      vertex -4.10416e-16 -3.3513 3.19131
      vertex -3.86937e-16 -3.15958 3.51117
    endloop
  endfacet
  facet normal 2.03915e-08 0.514103 -0.857728
    outer loop
      vertex -2.50286e-16 -2.04374 4.6
      vertex 1 -1.79131 4.7513
      vertex 1 -2.11117 4.55958
    endloop
  endfacet
  facet normal 0 0.514104 -0.857728
    outer loop
      vertex 1 -1.79131 4.7513
      vertex -2.50286e-16 -2.04374 4.6
      vertex 1.44291e-07 -1.79131 4.7513
    endloop
  endfacet
  facet normal 0 0.514103 -0.857728
    outer loop
      vertex -2.50286e-16 -2.04374 4.6
      vertex 1 -2.11117 4.55958
      vertex -2.58543e-16 -2.11117 4.55958
    endloop
  endfacet
  facet normal 0 0.336891 -0.941544
    outer loop
      vertex 1 -1.4542 4.91074
      vertex 4.16158e-07 -1.10308 5.03637
      vertex 1 -1.10308 5.03637
    endloop
  endfacet
  facet normal 0 0.336891 -0.941544
    outer loop
      vertex 4.16158e-07 -1.10308 5.03637
      vertex 1 -1.4542 4.91074
      vertex 2.96347e-07 -1.4542 4.91074
    endloop
  endfacet
  facet normal 0 0.427556 -0.903989
    outer loop
      vertex 1 -1.79131 4.7513
      vertex 2.96347e-07 -1.4542 4.91074
      vertex 1 -1.4542 4.91074
    endloop
  endfacet
  facet normal 0 0.427556 -0.903989
    outer loop
      vertex 2.96347e-07 -1.4542 4.91074
      vertex 1 -1.79131 4.7513
      vertex 1.44291e-07 -1.79131 4.7513
    endloop
  endfacet
  facet normal 0 0.242979 -0.970032
    outer loop
      vertex 1 -1.10308 5.03637
      vertex 5.02571e-07 -0.741343 5.12698
      vertex 1 -0.741343 5.12698
    endloop
  endfacet
  facet normal 0 0.242979 -0.970032
    outer loop
      vertex 5.02571e-07 -0.741343 5.12698
      vertex 1 -1.10308 5.03637
      vertex 4.16158e-07 -1.10308 5.03637
    endloop
  endfacet
  facet normal 0 -0.146731 -0.989176
    outer loop
      vertex 5.54754e-07 0.372464 5.1817
      vertex 1 0.741343 5.12698
      vertex 1 0.372464 5.1817
    endloop
  endfacet
  facet normal -0 -0.146731 -0.989176
    outer loop
      vertex 1 0.741343 5.12698
      vertex 5.54754e-07 0.372464 5.1817
      vertex 5.02571e-07 0.741343 5.12698
    endloop
  endfacet
  facet normal 0 -0.336891 -0.941544
    outer loop
      vertex 4.16158e-07 1.10308 5.03637
      vertex 1 1.4542 4.91074
      vertex 1 1.10308 5.03637
    endloop
  endfacet
  facet normal -0 -0.336891 -0.941544
    outer loop
      vertex 1 1.4542 4.91074
      vertex 4.16158e-07 1.10308 5.03637
      vertex 2.96347e-07 1.4542 4.91074
    endloop
  endfacet
  facet normal 0 -0.242979 -0.970032
    outer loop
      vertex 5.02571e-07 0.741343 5.12698
      vertex 1 1.10308 5.03637
      vertex 1 0.741343 5.12698
    endloop
  endfacet
  facet normal -0 -0.242979 -0.970032
    outer loop
      vertex 1 1.10308 5.03637
      vertex 5.02571e-07 0.741343 5.12698
      vertex 4.16158e-07 1.10308 5.03637
    endloop
  endfacet
  facet normal 0 -0.740952 -0.671558
    outer loop
      vertex 3.59733e-16 2.93744 3.81069
      vertex 1 2.68701 4.08701
      vertex 3.29063e-16 2.68701 4.08701
    endloop
  endfacet
  facet normal 0 -0.740952 -0.671558
    outer loop
      vertex 1 2.68701 4.08701
      vertex 3.59733e-16 2.93744 3.81069
      vertex 1 2.93744 3.81069
    endloop
  endfacet
  facet normal 0 -0.740952 -0.671558
    outer loop
      vertex 1 2.93744 3.81069
      vertex 3 2.68701 4.08701
      vertex 1 2.68701 4.08701
    endloop
  endfacet
  facet normal 0 -0.740952 -0.671558
    outer loop
      vertex 3 2.68701 4.08701
      vertex 1 2.93744 3.81069
      vertex 3 2.93744 3.81069
    endloop
  endfacet
  facet normal 0 0.803203 -0.595705
    outer loop
      vertex 3 -2.94537 3.8
      vertex 1 -2.93744 3.81069
      vertex 3 -2.93744 3.81069
    endloop
  endfacet
  facet normal 0 0.803203 -0.595705
    outer loop
      vertex 1 -2.94537 3.8
      vertex 1 -2.93744 3.81069
      vertex 3 -2.94537 3.8
    endloop
  endfacet
  facet normal 0.168915 0.791665 -0.587141
    outer loop
      vertex 1 -2.94537 3.8
      vertex 1 -3.15958 3.51117
      vertex 1 -2.93744 3.81069
    endloop
  endfacet
  facet normal 0 0.803207 -0.5957
    outer loop
      vertex 1 -3.15958 3.51117
      vertex -3.59733e-16 -2.93744 3.81069
      vertex 1 -2.93744 3.81069
    endloop
  endfacet
  facet normal 0 0.803207 -0.5957
    outer loop
      vertex -3.59733e-16 -2.93744 3.81069
      vertex 1 -3.15958 3.51117
      vertex -3.86937e-16 -3.15958 3.51117
    endloop
  endfacet
  facet normal 0 -0.941545 -0.336888
    outer loop
      vertex 4.45327e-16 3.63637 2.50308
      vertex 1 3.51074 2.8542
      vertex 4.29942e-16 3.51074 2.8542
    endloop
  endfacet
  facet normal 0 -0.941545 -0.336888
    outer loop
      vertex 1 3.51074 2.8542
      vertex 4.45327e-16 3.63637 2.50308
      vertex 1 3.63637 2.50308
    endloop
  endfacet
endsolid OpenSCAD_Model
