solid OpenSCAD_Model
  facet normal 0.995185 0.0980172 0
    outer loop
      vertex -25.2 35.8 4.4
      vertex -25.2384 36.1902 1
      vertex -25.2384 36.1902 4.4
    endloop
  endfacet
  facet normal 0.995185 0.0980172 0
    outer loop
      vertex -25.2384 36.1902 1
      vertex -25.2 35.8 4.4
      vertex -25.2 35.8 1
    endloop
  endfacet
  facet normal -1 0 0
    outer loop
      vertex -60.8 4.2 0.999999
      vertex -60.8 35.8 4.4
      vertex -60.8 35.8 0.999999
    endloop
  endfacet
  facet normal -1 -0 0
    outer loop
      vertex -60.8 35.8 4.4
      vertex -60.8 4.2 0.999999
      vertex -60.8 4.2 4.4
    endloop
  endfacet
  facet normal -0.881918 0.471403 0
    outer loop
      vertex -60.6478 36.5654 0.999999
      vertex -60.4629 36.9111 4.4
      vertex -60.4629 36.9111 0.999999
    endloop
  endfacet
  facet normal -0.881918 0.471403 0
    outer loop
      vertex -60.4629 36.9111 4.4
      vertex -60.6478 36.5654 0.999999
      vertex -60.6478 36.5654 4.4
    endloop
  endfacet
  facet normal 0.773013 0.63439 0
    outer loop
      vertex -25.5371 36.9111 4.4
      vertex -25.7858 37.2142 1
      vertex -25.7858 37.2142 4.4
    endloop
  endfacet
  facet normal 0.773013 0.63439 0
    outer loop
      vertex -25.7858 37.2142 1
      vertex -25.5371 36.9111 4.4
      vertex -25.5371 36.9111 1
    endloop
  endfacet
  facet normal -5.0361e-08 9.30938e-07 1
    outer loop
      vertex -27.2 37.8 4.4
      vertex -55.3794 37.3 4.4
      vertex -45.911 37.3 4.4
    endloop
  endfacet
  facet normal -0 0 1
    outer loop
      vertex -60.2142 37.2142 4.4
      vertex -59.0654 37.1478 4.4
      vertex -58.7613 37.24 4.4
    endloop
  endfacet
  facet normal 0 0 1
    outer loop
      vertex -60.2142 37.2142 4.4
      vertex -59.4111 36.9629 4.4
      vertex -59.0654 37.1478 4.4
    endloop
  endfacet
  facet normal 0 0 1
    outer loop
      vertex -60.2142 37.2142 4.4
      vertex -59.441 36.9384 4.4
      vertex -59.4111 36.9629 4.4
    endloop
  endfacet
  facet normal 0 0 1
    outer loop
      vertex -59.441 36.9384 4.4
      vertex -60.2142 37.2142 4.4
      vertex -60.4629 36.9111 4.4
    endloop
  endfacet
  facet normal 0 0 1
    outer loop
      vertex -60.1478 3.93463 4.4
      vertex -60.7616 3.80982 4.4
      vertex -60.0631 3.77632 4.4
    endloop
  endfacet
  facet normal 0 0 1
    outer loop
      vertex -60.2177 4.16534 4.4
      vertex -60.7616 3.80982 4.4
      vertex -60.1478 3.93463 4.4
    endloop
  endfacet
  facet normal 0 -0 1
    outer loop
      vertex -60.7616 3.80982 4.4
      vertex -60.2177 4.16534 4.4
      vertex -60.8 4.2 4.4
    endloop
  endfacet
  facet normal 0 9.53674e-07 1
    outer loop
      vertex -35.6 2.7 4.4
      vertex -37.624 2.7 4.4
      vertex -27.2 2.2 4.4
    endloop
  endfacet
  facet normal 0 1 -0
    outer loop
      vertex -27.2 37.8 1
      vertex -58.8 37.8 4.4
      vertex -27.2 37.8 4.4
    endloop
  endfacet
  facet normal 0 1 0
    outer loop
      vertex -58.8 37.8 4.4
      vertex -27.2 37.8 1
      vertex -58.8 37.8 0.999999
    endloop
  endfacet
  facet normal 0 0 1
    outer loop
      vertex -27.2 37.8 4.4
      vertex -27.3098 37.2616 4.4
      vertex -27.2 37.2283 4.4
    endloop
  endfacet
  facet normal 0 0 1
    outer loop
      vertex -27.2 37.8 4.4
      vertex -27.7 37.3 4.4
      vertex -27.3098 37.2616 4.4
    endloop
  endfacet
  facet normal -6.03592e-08 6.03592e-08 1
    outer loop
      vertex -27.7 37.3 4.4
      vertex -27.2 37.8 4.4
      vertex -35.6 37.3 4.4
    endloop
  endfacet
  facet normal 0 0 1
    outer loop
      vertex -60.3 35.3 4.4
      vertex -60.8 35.8 4.4
      vertex -60.3 4.7 4.4
    endloop
  endfacet
  facet normal 0 0 1
    outer loop
      vertex -60.2616 35.6902 4.4
      vertex -60.8 35.8 4.4
      vertex -60.3 35.3 4.4
    endloop
  endfacet
  facet normal -0 0 1
    outer loop
      vertex -60.8 35.8 4.4
      vertex -60.2616 35.6902 4.4
      vertex -60.2177 35.8347 4.4
    endloop
  endfacet
  facet normal 0 0 1
    outer loop
      vertex -60.2616 4.30982 4.4
      vertex -60.8 4.2 4.4
      vertex -60.2177 4.16534 4.4
    endloop
  endfacet
  facet normal 0 0 1
    outer loop
      vertex -60.3 4.7 4.4
      vertex -60.8 4.2 4.4
      vertex -60.2616 4.30982 4.4
    endloop
  endfacet
  facet normal 0 0 1
    outer loop
      vertex -60.8 4.2 4.4
      vertex -60.3 4.7 4.4
      vertex -60.8 35.8 4.4
    endloop
  endfacet
  facet normal -0 0 1
    outer loop
      vertex -27.3098 2.73843 4.4
      vertex -27.2 2.2 4.4
      vertex -27.2 2.77174 4.4
    endloop
  endfacet
  facet normal -0 0 1
    outer loop
      vertex -27.7 2.7 4.4
      vertex -27.2 2.2 4.4
      vertex -27.3098 2.73843 4.4
    endloop
  endfacet
  facet normal -6.03592e-08 -6.03592e-08 1
    outer loop
      vertex -27.2 2.2 4.4
      vertex -27.7 2.7 4.4
      vertex -35.6 2.7 4.4
    endloop
  endfacet
  facet normal 0 -9.53674e-07 1
    outer loop
      vertex -27.2 37.8 4.4
      vertex -40.7456 37.3 4.4
      vertex -37.624 37.3 4.4
    endloop
  endfacet
  facet normal -0 0 1
    outer loop
      vertex -60.6478 36.5654 4.4
      vertex -59.9629 36.4111 4.4
      vertex -59.811 36.5963 4.4
    endloop
  endfacet
  facet normal 0 0 1
    outer loop
      vertex -60.6478 36.5654 4.4
      vertex -60.0631 36.2237 4.4
      vertex -59.9629 36.4111 4.4
    endloop
  endfacet
  facet normal 0 0 1
    outer loop
      vertex -60.0631 36.2237 4.4
      vertex -60.6478 36.5654 4.4
      vertex -60.7616 36.1902 4.4
    endloop
  endfacet
  facet normal 1 -0 0
    outer loop
      vertex -25.2 4.2 4.4
      vertex -25.2 35.8 1
      vertex -25.2 35.8 4.4
    endloop
  endfacet
  facet normal 1 0 0
    outer loop
      vertex -25.2 35.8 1
      vertex -25.2 4.2 4.4
      vertex -25.2 4.2 1
    endloop
  endfacet
  facet normal 0.773012 -0.634391 0
    outer loop
      vertex -25.7858 2.78579 4.4
      vertex -25.5371 3.08886 1
      vertex -25.5371 3.08886 4.4
    endloop
  endfacet
  facet normal 0.773012 -0.634391 0
    outer loop
      vertex -25.5371 3.08886 1
      vertex -25.7858 2.78579 4.4
      vertex -25.7858 2.78579 1
    endloop
  endfacet
  facet normal 0.95694 -0.290284 0
    outer loop
      vertex -25.3522 3.43463 4.4
      vertex -25.2384 3.80982 1
      vertex -25.2384 3.80982 4.4
    endloop
  endfacet
  facet normal 0.95694 -0.290284 0
    outer loop
      vertex -25.2384 3.80982 1
      vertex -25.3522 3.43463 4.4
      vertex -25.3522 3.43463 1
    endloop
  endfacet
  facet normal -3.01796e-08 -3.06418e-07 1
    outer loop
      vertex -59.1902 2.23843 4.4
      vertex -58.8 2.2 4.4
      vertex -27.2 2.2 4.4
    endloop
  endfacet
  facet normal -0.995185 -0.0980167 0
    outer loop
      vertex -60.7616 3.80982 0.999999
      vertex -60.8 4.2 4.4
      vertex -60.8 4.2 0.999999
    endloop
  endfacet
  facet normal -0.995185 -0.0980167 0
    outer loop
      vertex -60.8 4.2 4.4
      vertex -60.7616 3.80982 0.999999
      vertex -60.7616 3.80982 4.4
    endloop
  endfacet
  facet normal 0 -1 0
    outer loop
      vertex -58.8 2.2 4.4
      vertex -27.2 2.2 1
      vertex -27.2 2.2 4.4
    endloop
  endfacet
  facet normal -0 -1 0
    outer loop
      vertex -27.2 2.2 1
      vertex -58.8 2.2 4.4
      vertex -58.8 2.2 0.999999
    endloop
  endfacet
  facet normal -0.773015 -0.634388 0
    outer loop
      vertex -60.2142 2.78579 0.999999
      vertex -60.4629 3.08886 4.4
      vertex -60.4629 3.08886 0.999999
    endloop
  endfacet
  facet normal -0.773015 -0.634388 0
    outer loop
      vertex -60.4629 3.08886 4.4
      vertex -60.2142 2.78579 0.999999
      vertex -60.2142 2.78579 4.4
    endloop
  endfacet
  facet normal 0.956941 0.290281 0
    outer loop
      vertex -25.2384 36.1902 4.4
      vertex -25.3522 36.5654 1
      vertex -25.3522 36.5654 4.4
    endloop
  endfacet
  facet normal 0.956941 0.290281 0
    outer loop
      vertex -25.3522 36.5654 1
      vertex -25.2384 36.1902 4.4
      vertex -25.2384 36.1902 1
    endloop
  endfacet
  facet normal 0.634387 0.773016 -0
    outer loop
      vertex -25.7858 37.2142 1
      vertex -26.0889 37.4629 4.4
      vertex -25.7858 37.2142 4.4
    endloop
  endfacet
  facet normal 0.634387 0.773016 0
    outer loop
      vertex -26.0889 37.4629 4.4
      vertex -25.7858 37.2142 1
      vertex -26.0889 37.4629 1
    endloop
  endfacet
  facet normal -3.01796e-08 3.06418e-07 1
    outer loop
      vertex -58.8 37.8 4.4
      vertex -59.1902 37.7616 4.4
      vertex -27.2 37.8 4.4
    endloop
  endfacet
  facet normal 0 0 1
    outer loop
      vertex -25.7384 35.6902 4.4
      vertex -25.2 35.8 4.4
      vertex -25.2384 36.1902 4.4
    endloop
  endfacet
  facet normal 0 0 1
    outer loop
      vertex -25.2 35.8 4.4
      vertex -25.7 35.3 4.4
      vertex -25.2 4.2 4.4
    endloop
  endfacet
  facet normal 0 0 1
    outer loop
      vertex -25.8522 36.0654 4.4
      vertex -25.2384 36.1902 4.4
      vertex -25.3522 36.5654 4.4
    endloop
  endfacet
  facet normal -0 0 1
    outer loop
      vertex -25.7 4.7 4.4
      vertex -25.2 4.2 4.4
      vertex -25.7 35.3 4.4
    endloop
  endfacet
  facet normal 0 0 1
    outer loop
      vertex -26.0371 36.4111 4.4
      vertex -25.3522 36.5654 4.4
      vertex -25.5371 36.9111 4.4
    endloop
  endfacet
  facet normal -0 0 1
    outer loop
      vertex -25.7384 4.30982 4.4
      vertex -25.2 4.2 4.4
      vertex -25.7 4.7 4.4
    endloop
  endfacet
  facet normal 0 0 1
    outer loop
      vertex -25.2 4.2 4.4
      vertex -25.7384 4.30982 4.4
      vertex -25.2384 3.80982 4.4
    endloop
  endfacet
  facet normal 0 0 1
    outer loop
      vertex -25.2 35.8 4.4
      vertex -25.7384 35.6902 4.4
      vertex -25.7 35.3 4.4
    endloop
  endfacet
  facet normal 0 0 1
    outer loop
      vertex -26.2858 36.7142 4.4
      vertex -25.5371 36.9111 4.4
      vertex -25.7858 37.2142 4.4
    endloop
  endfacet
  facet normal 0 0 1
    outer loop
      vertex -25.2384 36.1902 4.4
      vertex -25.8522 36.0654 4.4
      vertex -25.7384 35.6902 4.4
    endloop
  endfacet
  facet normal 0 0 1
    outer loop
      vertex -25.3522 36.5654 4.4
      vertex -26.0371 36.4111 4.4
      vertex -25.8522 36.0654 4.4
    endloop
  endfacet
  facet normal 0 0 1
    outer loop
      vertex -26.2858 36.7142 4.4
      vertex -25.7858 37.2142 4.4
      vertex -26.0889 37.4629 4.4
    endloop
  endfacet
  facet normal 0 0 1
    outer loop
      vertex -25.5371 36.9111 4.4
      vertex -26.2858 36.7142 4.4
      vertex -26.0371 36.4111 4.4
    endloop
  endfacet
  facet normal 0 0 1
    outer loop
      vertex -26.5889 36.9629 4.4
      vertex -26.0889 37.4629 4.4
      vertex -26.4346 37.6478 4.4
    endloop
  endfacet
  facet normal 0 0 1
    outer loop
      vertex -26.0889 37.4629 4.4
      vertex -26.5889 36.9629 4.4
      vertex -26.2858 36.7142 4.4
    endloop
  endfacet
  facet normal 0 0 1
    outer loop
      vertex -26.9346 37.1478 4.4
      vertex -26.4346 37.6478 4.4
      vertex -26.8098 37.7616 4.4
    endloop
  endfacet
  facet normal 0 0 1
    outer loop
      vertex -26.4346 37.6478 4.4
      vertex -26.9346 37.1478 4.4
      vertex -26.5889 36.9629 4.4
    endloop
  endfacet
  facet normal 0 0 1
    outer loop
      vertex -27.2 37.2283 4.4
      vertex -26.8098 37.7616 4.4
      vertex -27.2 37.8 4.4
    endloop
  endfacet
  facet normal 0 0 1
    outer loop
      vertex -26.8098 37.7616 4.4
      vertex -27.2 37.2283 4.4
      vertex -26.9346 37.1478 4.4
    endloop
  endfacet
  facet normal -0 0 1
    outer loop
      vertex -25.8522 3.93463 4.4
      vertex -25.2384 3.80982 4.4
      vertex -25.7384 4.30982 4.4
    endloop
  endfacet
  facet normal 0 0 1
    outer loop
      vertex -25.2384 3.80982 4.4
      vertex -25.8522 3.93463 4.4
      vertex -25.3522 3.43463 4.4
    endloop
  endfacet
  facet normal -0 0 1
    outer loop
      vertex -26.0371 3.58886 4.4
      vertex -25.3522 3.43463 4.4
      vertex -25.8522 3.93463 4.4
    endloop
  endfacet
  facet normal 0 0 1
    outer loop
      vertex -25.3522 3.43463 4.4
      vertex -26.0371 3.58886 4.4
      vertex -25.5371 3.08886 4.4
    endloop
  endfacet
  facet normal -0 0 1
    outer loop
      vertex -26.2858 3.28579 4.4
      vertex -25.5371 3.08886 4.4
      vertex -26.0371 3.58886 4.4
    endloop
  endfacet
  facet normal 0 0 1
    outer loop
      vertex -25.5371 3.08886 4.4
      vertex -26.2858 3.28579 4.4
      vertex -25.7858 2.78579 4.4
    endloop
  endfacet
  facet normal 0 0 1
    outer loop
      vertex -25.7858 2.78579 4.4
      vertex -26.2858 3.28579 4.4
      vertex -26.0889 2.53706 4.4
    endloop
  endfacet
  facet normal -0 0 1
    outer loop
      vertex -26.5889 3.03706 4.4
      vertex -26.0889 2.53706 4.4
      vertex -26.2858 3.28579 4.4
    endloop
  endfacet
  facet normal 0 0 1
    outer loop
      vertex -26.0889 2.53706 4.4
      vertex -26.5889 3.03706 4.4
      vertex -26.4346 2.35224 4.4
    endloop
  endfacet
  facet normal -0 0 1
    outer loop
      vertex -26.9346 2.85224 4.4
      vertex -26.4346 2.35224 4.4
      vertex -26.5889 3.03706 4.4
    endloop
  endfacet
  facet normal 0 0 1
    outer loop
      vertex -26.4346 2.35224 4.4
      vertex -26.9346 2.85224 4.4
      vertex -26.8098 2.23843 4.4
    endloop
  endfacet
  facet normal -0 0 1
    outer loop
      vertex -27.2 2.77174 4.4
      vertex -26.8098 2.23843 4.4
      vertex -26.9346 2.85224 4.4
    endloop
  endfacet
  facet normal 0 0 1
    outer loop
      vertex -26.8098 2.23843 4.4
      vertex -27.2 2.77174 4.4
      vertex -27.2 2.2 4.4
    endloop
  endfacet
  facet normal -0.956941 0.290281 0
    outer loop
      vertex -60.7616 36.1902 0.999999
      vertex -60.6478 36.5654 4.4
      vertex -60.6478 36.5654 0.999999
    endloop
  endfacet
  facet normal -0.956941 0.290281 0
    outer loop
      vertex -60.6478 36.5654 4.4
      vertex -60.7616 36.1902 0.999999
      vertex -60.7616 36.1902 4.4
    endloop
  endfacet
  facet normal -0.773016 0.634387 0
    outer loop
      vertex -60.4629 36.9111 0.999999
      vertex -60.2142 37.2142 4.4
      vertex -60.2142 37.2142 0.999999
    endloop
  endfacet
  facet normal -0.773016 0.634387 0
    outer loop
      vertex -60.2142 37.2142 4.4
      vertex -60.4629 36.9111 0.999999
      vertex -60.4629 36.9111 4.4
    endloop
  endfacet
  facet normal -0.995185 0.0980172 0
    outer loop
      vertex -60.8 35.8 0.999999
      vertex -60.7616 36.1902 4.4
      vertex -60.7616 36.1902 0.999999
    endloop
  endfacet
  facet normal -0.995185 0.0980172 0
    outer loop
      vertex -60.7616 36.1902 4.4
      vertex -60.8 35.8 0.999999
      vertex -60.8 35.8 4.4
    endloop
  endfacet
  facet normal 0.995185 -0.0980167 0
    outer loop
      vertex -25.2384 3.80982 4.4
      vertex -25.2 4.2 1
      vertex -25.2 4.2 4.4
    endloop
  endfacet
  facet normal 0.995185 -0.0980167 0
    outer loop
      vertex -25.2 4.2 1
      vertex -25.2384 3.80982 4.4
      vertex -25.2384 3.80982 1
    endloop
  endfacet
  facet normal 0.881921 -0.471397 0
    outer loop
      vertex -25.5371 3.08886 4.4
      vertex -25.3522 3.43463 1
      vertex -25.3522 3.43463 4.4
    endloop
  endfacet
  facet normal 0.881921 -0.471397 0
    outer loop
      vertex -25.3522 3.43463 1
      vertex -25.5371 3.08886 4.4
      vertex -25.5371 3.08886 1
    endloop
  endfacet
  facet normal -0.95694 -0.290284 0
    outer loop
      vertex -60.6478 3.43463 0.999999
      vertex -60.7616 3.80982 4.4
      vertex -60.7616 3.80982 0.999999
    endloop
  endfacet
  facet normal -0.95694 -0.290284 0
    outer loop
      vertex -60.7616 3.80982 4.4
      vertex -60.6478 3.43463 0.999999
      vertex -60.6478 3.43463 4.4
    endloop
  endfacet
  facet normal -0.471395 -0.881922 0
    outer loop
      vertex -59.9111 2.53706 0.999999
      vertex -59.5654 2.35224 4.4
      vertex -59.9111 2.53706 4.4
    endloop
  endfacet
  facet normal -0.471395 -0.881922 -0
    outer loop
      vertex -59.5654 2.35224 4.4
      vertex -59.9111 2.53706 0.999999
      vertex -59.5654 2.35224 0.999999
    endloop
  endfacet
  facet normal 0.471401 0.881919 -0
    outer loop
      vertex -26.0889 37.4629 1
      vertex -26.4346 37.6478 4.4
      vertex -26.0889 37.4629 4.4
    endloop
  endfacet
  facet normal 0.471401 0.881919 0
    outer loop
      vertex -26.4346 37.6478 4.4
      vertex -26.0889 37.4629 1
      vertex -26.4346 37.6478 1
    endloop
  endfacet
  facet normal -2.97275e-08 5.56159e-08 1
    outer loop
      vertex -59.5654 37.6478 4.4
      vertex -59.9111 37.4629 4.4
      vertex -27.2 37.8 4.4
    endloop
  endfacet
  facet normal 0 0 1
    outer loop
      vertex -59.9111 2.53706 4.4
      vertex -55.3794 2.7 4.4
      vertex -58.3 2.7 4.4
    endloop
  endfacet
  facet normal -2.26603e-08 6.30238e-07 1
    outer loop
      vertex -55.3794 2.7 4.4
      vertex -59.9111 2.53706 4.4
      vertex -27.2 2.2 4.4
    endloop
  endfacet
  facet normal 0 0 1
    outer loop
      vertex -58.6902 2.73843 4.4
      vertex -59.9111 2.53706 4.4
      vertex -58.3 2.7 4.4
    endloop
  endfacet
  facet normal 0 0 1
    outer loop
      vertex -58.7613 2.76001 4.4
      vertex -59.9111 2.53706 4.4
      vertex -58.6902 2.73843 4.4
    endloop
  endfacet
  facet normal 0 -0 1
    outer loop
      vertex -59.9111 2.53706 4.4
      vertex -58.7613 2.76001 4.4
      vertex -60.2142 2.78579 4.4
    endloop
  endfacet
  facet normal 0 -9.53674e-07 1
    outer loop
      vertex -27.2 37.8 4.4
      vertex -45.911 37.3 4.4
      vertex -40.7456 37.3 4.4
    endloop
  endfacet
  facet normal -0 0 1
    outer loop
      vertex -60.4629 36.9111 4.4
      vertex -59.7142 36.7142 4.4
      vertex -59.441 36.9384 4.4
    endloop
  endfacet
  facet normal 0 0 1
    outer loop
      vertex -60.4629 36.9111 4.4
      vertex -59.811 36.5963 4.4
      vertex -59.7142 36.7142 4.4
    endloop
  endfacet
  facet normal 0 0 1
    outer loop
      vertex -59.811 36.5963 4.4
      vertex -60.4629 36.9111 4.4
      vertex -60.6478 36.5654 4.4
    endloop
  endfacet
  facet normal 0 -9.53674e-07 1
    outer loop
      vertex -27.2 37.8 4.4
      vertex -37.624 37.3 4.4
      vertex -35.6 37.3 4.4
    endloop
  endfacet
  facet normal -0 0 1
    outer loop
      vertex -60.7616 36.1902 4.4
      vertex -60.1478 36.0654 4.4
      vertex -60.0631 36.2237 4.4
    endloop
  endfacet
  facet normal 0 0 1
    outer loop
      vertex -60.7616 36.1902 4.4
      vertex -60.2177 35.8347 4.4
      vertex -60.1478 36.0654 4.4
    endloop
  endfacet
  facet normal 0 0 1
    outer loop
      vertex -60.2177 35.8347 4.4
      vertex -60.7616 36.1902 4.4
      vertex -60.8 35.8 4.4
    endloop
  endfacet
  facet normal 0.0980167 0.995185 -0
    outer loop
      vertex -26.8098 37.7616 1
      vertex -27.2 37.8 4.4
      vertex -26.8098 37.7616 4.4
    endloop
  endfacet
  facet normal 0.0980167 0.995185 0
    outer loop
      vertex -27.2 37.8 4.4
      vertex -26.8098 37.7616 1
      vertex -27.2 37.8 1
    endloop
  endfacet
  facet normal 0.88192 0.471399 0
    outer loop
      vertex -25.3522 36.5654 4.4
      vertex -25.5371 36.9111 1
      vertex -25.5371 36.9111 4.4
    endloop
  endfacet
  facet normal 0.88192 0.471399 0
    outer loop
      vertex -25.5371 36.9111 1
      vertex -25.3522 36.5654 4.4
      vertex -25.3522 36.5654 1
    endloop
  endfacet
  facet normal 0.0980167 -0.995185 0
    outer loop
      vertex -27.2 2.2 1
      vertex -26.8098 2.23843 4.4
      vertex -27.2 2.2 4.4
    endloop
  endfacet
  facet normal 0.0980167 -0.995185 0
    outer loop
      vertex -26.8098 2.23843 4.4
      vertex -27.2 2.2 1
      vertex -26.8098 2.23843 1
    endloop
  endfacet
  facet normal 0.634391 -0.773012 0
    outer loop
      vertex -26.0889 2.53706 1
      vertex -25.7858 2.78579 4.4
      vertex -26.0889 2.53706 4.4
    endloop
  endfacet
  facet normal 0.634391 -0.773012 0
    outer loop
      vertex -25.7858 2.78579 4.4
      vertex -26.0889 2.53706 1
      vertex -25.7858 2.78579 1
    endloop
  endfacet
  facet normal 0.471397 -0.881921 0
    outer loop
      vertex -26.4346 2.35224 4.4
      vertex -26.0889 2.53706 1
      vertex -26.0889 2.53706 4.4
    endloop
  endfacet
  facet normal 0.471397 -0.881921 0
    outer loop
      vertex -26.0889 2.53706 1
      vertex -26.4346 2.35224 4.4
      vertex -26.4346 2.35224 1
    endloop
  endfacet
  facet normal -0.0980172 -0.995185 0
    outer loop
      vertex -59.1902 2.23843 0.999999
      vertex -58.8 2.2 4.4
      vertex -59.1902 2.23843 4.4
    endloop
  endfacet
  facet normal -0.0980172 -0.995185 -0
    outer loop
      vertex -58.8 2.2 4.4
      vertex -59.1902 2.23843 0.999999
      vertex -58.8 2.2 0.999999
    endloop
  endfacet
  facet normal 0.290284 0.95694 -0
    outer loop
      vertex -26.4346 37.6478 1
      vertex -26.8098 37.7616 4.4
      vertex -26.4346 37.6478 4.4
    endloop
  endfacet
  facet normal 0.290284 0.95694 0
    outer loop
      vertex -26.8098 37.7616 4.4
      vertex -26.4346 37.6478 1
      vertex -26.8098 37.7616 1
    endloop
  endfacet
  facet normal -0.634387 0.773016 0
    outer loop
      vertex -59.9111 37.4629 0.999999
      vertex -60.2142 37.2142 4.4
      vertex -59.9111 37.4629 4.4
    endloop
  endfacet
  facet normal -0.634387 0.773016 0
    outer loop
      vertex -60.2142 37.2142 4.4
      vertex -59.9111 37.4629 0.999999
      vertex -60.2142 37.2142 0.999999
    endloop
  endfacet
  facet normal -2.993e-08 9.86662e-08 1
    outer loop
      vertex -59.1902 37.7616 4.4
      vertex -59.5654 37.6478 4.4
      vertex -27.2 37.8 4.4
    endloop
  endfacet
  facet normal -2.26603e-08 -6.30243e-07 1
    outer loop
      vertex -59.9111 37.4629 4.4
      vertex -55.3794 37.3 4.4
      vertex -27.2 37.8 4.4
    endloop
  endfacet
  facet normal 0 0 1
    outer loop
      vertex -55.3794 37.3 4.4
      vertex -59.9111 37.4629 4.4
      vertex -58.3 37.3 4.4
    endloop
  endfacet
  facet normal 0 0 1
    outer loop
      vertex -59.9111 37.4629 4.4
      vertex -58.6902 37.2616 4.4
      vertex -58.3 37.3 4.4
    endloop
  endfacet
  facet normal 0 0 1
    outer loop
      vertex -59.9111 37.4629 4.4
      vertex -58.7613 37.24 4.4
      vertex -58.6902 37.2616 4.4
    endloop
  endfacet
  facet normal 0 0 1
    outer loop
      vertex -58.7613 37.24 4.4
      vertex -59.9111 37.4629 4.4
      vertex -60.2142 37.2142 4.4
    endloop
  endfacet
  facet normal -0.290284 -0.95694 0
    outer loop
      vertex -59.5654 2.35224 4.4
      vertex -59.1902 2.23843 0.999999
      vertex -59.1902 2.23843 4.4
    endloop
  endfacet
  facet normal -0.290284 -0.95694 0
    outer loop
      vertex -59.1902 2.23843 0.999999
      vertex -59.5654 2.35224 4.4
      vertex -59.5654 2.35224 0.999999
    endloop
  endfacet
  facet normal -2.993e-08 -9.86662e-08 1
    outer loop
      vertex -59.5654 2.35224 4.4
      vertex -59.1902 2.23843 4.4
      vertex -27.2 2.2 4.4
    endloop
  endfacet
  facet normal 0 9.53674e-07 1
    outer loop
      vertex -40.7456 2.7 4.4
      vertex -45.911 2.7 4.4
      vertex -27.2 2.2 4.4
    endloop
  endfacet
  facet normal 0 0 1
    outer loop
      vertex -59.7142 3.28579 4.4
      vertex -60.4629 3.08886 4.4
      vertex -59.441 3.06155 4.4
    endloop
  endfacet
  facet normal 0 0 1
    outer loop
      vertex -59.811 3.40375 4.4
      vertex -60.4629 3.08886 4.4
      vertex -59.7142 3.28579 4.4
    endloop
  endfacet
  facet normal 0 -0 1
    outer loop
      vertex -60.4629 3.08886 4.4
      vertex -59.811 3.40375 4.4
      vertex -60.6478 3.43463 4.4
    endloop
  endfacet
  facet normal -0.881919 -0.471401 0
    outer loop
      vertex -60.4629 3.08886 0.999999
      vertex -60.6478 3.43463 4.4
      vertex -60.6478 3.43463 0.999999
    endloop
  endfacet
  facet normal -0.881919 -0.471401 0
    outer loop
      vertex -60.6478 3.43463 4.4
      vertex -60.4629 3.08886 0.999999
      vertex -60.4629 3.08886 4.4
    endloop
  endfacet
  facet normal -0.634391 -0.773012 0
    outer loop
      vertex -60.2142 2.78579 0.999999
      vertex -59.9111 2.53706 4.4
      vertex -60.2142 2.78579 4.4
    endloop
  endfacet
  facet normal -0.634391 -0.773012 -0
    outer loop
      vertex -59.9111 2.53706 4.4
      vertex -60.2142 2.78579 0.999999
      vertex -59.9111 2.53706 0.999999
    endloop
  endfacet
  facet normal 0.290284 -0.95694 0
    outer loop
      vertex -26.8098 2.23843 1
      vertex -26.4346 2.35224 4.4
      vertex -26.8098 2.23843 4.4
    endloop
  endfacet
  facet normal 0.290284 -0.95694 0
    outer loop
      vertex -26.4346 2.35224 4.4
      vertex -26.8098 2.23843 1
      vertex -26.4346 2.35224 1
    endloop
  endfacet
  facet normal -0.290284 0.95694 0
    outer loop
      vertex -59.1902 37.7616 0.999999
      vertex -59.5654 37.6478 4.4
      vertex -59.1902 37.7616 4.4
    endloop
  endfacet
  facet normal -0.290284 0.95694 0
    outer loop
      vertex -59.5654 37.6478 4.4
      vertex -59.1902 37.7616 0.999999
      vertex -59.5654 37.6478 0.999999
    endloop
  endfacet
  facet normal -0.0980172 0.995185 0
    outer loop
      vertex -58.8 37.8 0.999999
      vertex -59.1902 37.7616 4.4
      vertex -58.8 37.8 4.4
    endloop
  endfacet
  facet normal -0.0980172 0.995185 0
    outer loop
      vertex -59.1902 37.7616 4.4
      vertex -58.8 37.8 0.999999
      vertex -59.1902 37.7616 0.999999
    endloop
  endfacet
  facet normal -0.471399 0.88192 0
    outer loop
      vertex -59.5654 37.6478 0.999999
      vertex -59.9111 37.4629 4.4
      vertex -59.5654 37.6478 4.4
    endloop
  endfacet
  facet normal -0.471399 0.88192 0
    outer loop
      vertex -59.9111 37.4629 4.4
      vertex -59.5654 37.6478 0.999999
      vertex -59.9111 37.4629 0.999999
    endloop
  endfacet
  facet normal -2.97275e-08 -5.56165e-08 1
    outer loop
      vertex -59.9111 2.53706 4.4
      vertex -59.5654 2.35224 4.4
      vertex -27.2 2.2 4.4
    endloop
  endfacet
  facet normal 0 9.53674e-07 1
    outer loop
      vertex -37.624 2.7 4.4
      vertex -40.7456 2.7 4.4
      vertex -27.2 2.2 4.4
    endloop
  endfacet
  facet normal 0 0 1
    outer loop
      vertex -59.9629 3.58886 4.4
      vertex -60.6478 3.43463 4.4
      vertex -59.811 3.40375 4.4
    endloop
  endfacet
  facet normal 0 0 1
    outer loop
      vertex -60.0631 3.77632 4.4
      vertex -60.6478 3.43463 4.4
      vertex -59.9629 3.58886 4.4
    endloop
  endfacet
  facet normal 0 -0 1
    outer loop
      vertex -60.6478 3.43463 4.4
      vertex -60.0631 3.77632 4.4
      vertex -60.7616 3.80982 4.4
    endloop
  endfacet
  facet normal -5.0361e-08 -9.30938e-07 1
    outer loop
      vertex -45.911 2.7 4.4
      vertex -55.3794 2.7 4.4
      vertex -27.2 2.2 4.4
    endloop
  endfacet
  facet normal 0 0 1
    outer loop
      vertex -59.0654 2.85224 4.4
      vertex -60.2142 2.78579 4.4
      vertex -58.7613 2.76001 4.4
    endloop
  endfacet
  facet normal 0 0 1
    outer loop
      vertex -59.4111 3.03706 4.4
      vertex -60.2142 2.78579 4.4
      vertex -59.0654 2.85224 4.4
    endloop
  endfacet
  facet normal 0 0 1
    outer loop
      vertex -59.441 3.06155 4.4
      vertex -60.2142 2.78579 4.4
      vertex -59.4111 3.03706 4.4
    endloop
  endfacet
  facet normal 0 -0 1
    outer loop
      vertex -60.2142 2.78579 4.4
      vertex -59.441 3.06155 4.4
      vertex -60.4629 3.08886 4.4
    endloop
  endfacet
  facet normal -0.995185 -0.0980172 0
    outer loop
      vertex -25.7 35.3 1
      vertex -25.7384 35.6902 4.4
      vertex -25.7384 35.6902 1
    endloop
  endfacet
  facet normal -0.995185 -0.0980172 0
    outer loop
      vertex -25.7384 35.6902 4.4
      vertex -25.7 35.3 1
      vertex -25.7 35.3 4.4
    endloop
  endfacet
  facet normal 1 -0 0
    outer loop
      vertex -60.3 4.7 4.4
      vertex -60.3 35.3 0.999999
      vertex -60.3 35.3 4.4
    endloop
  endfacet
  facet normal 1 0 0
    outer loop
      vertex -60.3 35.3 0.999999
      vertex -60.3 4.7 4.4
      vertex -60.3 4.7 0.999999
    endloop
  endfacet
  facet normal 0.634388 -0.773014 2.31164e-07
    outer loop
      vertex -59.4111 36.9629 0.999999
      vertex -59.441 36.9384 4.4
      vertex -59.7142 36.7142 4.4
    endloop
  endfacet
  facet normal 0.634373 -0.773027 0
    outer loop
      vertex -59.441 36.9384 4.4
      vertex -59.4111 36.9629 0.999999
      vertex -59.4111 36.9629 4.4
    endloop
  endfacet
  facet normal 0.634387 -0.773016 0
    outer loop
      vertex -59.4111 36.9629 0.999999
      vertex -59.7142 36.7142 4.4
      vertex -59.7142 36.7142 0.999999
    endloop
  endfacet
  facet normal 0.0980172 0.995185 -0
    outer loop
      vertex -58.3 2.7 0.999999
      vertex -58.6902 2.73843 4.4
      vertex -58.3 2.7 4.4
    endloop
  endfacet
  facet normal 0.0980172 0.995185 0
    outer loop
      vertex -58.6902 2.73843 4.4
      vertex -58.3 2.7 0.999999
      vertex -58.6902 2.73843 0.999999
    endloop
  endfacet
  facet normal -0.0980167 -0.995185 0
    outer loop
      vertex -27.7 37.3 1
      vertex -27.3098 37.2616 4.4
      vertex -27.7 37.3 4.4
    endloop
  endfacet
  facet normal -0.0980167 -0.995185 -0
    outer loop
      vertex -27.3098 37.2616 4.4
      vertex -27.7 37.3 1
      vertex -27.3098 37.2616 1
    endloop
  endfacet
  facet normal 0 -1 0
    outer loop
      vertex -58.3 37.3 0.999999
      vertex -40.7456 37.3 4.4
      vertex -45.911 37.3 4.4
    endloop
  endfacet
  facet normal 0 -1 0
    outer loop
      vertex -40.7456 37.3 4.4
      vertex -27.7 37.3 1
      vertex -37.624 37.3 4.4
    endloop
  endfacet
  facet normal 0 -1 0
    outer loop
      vertex -58.3 37.3 0.999999
      vertex -45.911 37.3 4.4
      vertex -55.3794 37.3 4.4
    endloop
  endfacet
  facet normal 0 -1 0
    outer loop
      vertex -35.6 37.3 4.4
      vertex -27.7 37.3 1
      vertex -27.7 37.3 4.4
    endloop
  endfacet
  facet normal 0 -1 -0
    outer loop
      vertex -40.7456 37.3 4.4
      vertex -58.3 37.3 0.999999
      vertex -27.7 37.3 1
    endloop
  endfacet
  facet normal 0 -1 0
    outer loop
      vertex -58.3 37.3 0.999999
      vertex -55.3794 37.3 4.4
      vertex -58.3 37.3 4.4
    endloop
  endfacet
  facet normal 0 -1 0
    outer loop
      vertex -37.624 37.3 4.4
      vertex -27.7 37.3 1
      vertex -35.6 37.3 4.4
    endloop
  endfacet
  facet normal 0.995185 -0.0980172 0
    outer loop
      vertex -60.3 35.3 4.4
      vertex -60.2616 35.6902 0.999999
      vertex -60.2616 35.6902 4.4
    endloop
  endfacet
  facet normal 0.995185 -0.0980172 0
    outer loop
      vertex -60.2616 35.6902 0.999999
      vertex -60.3 35.3 4.4
      vertex -60.3 35.3 0.999999
    endloop
  endfacet
  facet normal 0.881917 -0.471405 0
    outer loop
      vertex -60.0631 36.2237 4.4
      vertex -59.9629 36.4111 0.999999
      vertex -59.9629 36.4111 4.4
    endloop
  endfacet
  facet normal 0.881919 -0.471401 0
    outer loop
      vertex -60.1478 36.0654 0.999999
      vertex -60.0631 36.2237 4.4
      vertex -60.1478 36.0654 4.4
    endloop
  endfacet
  facet normal 0.881918 -0.471403 1.30604e-07
    outer loop
      vertex -60.0631 36.2237 4.4
      vertex -60.1478 36.0654 0.999999
      vertex -59.9629 36.4111 0.999999
    endloop
  endfacet
  facet normal -0.995185 0.0980167 0
    outer loop
      vertex -25.7384 4.30982 1
      vertex -25.7 4.7 4.4
      vertex -25.7 4.7 1
    endloop
  endfacet
  facet normal -0.995185 0.0980167 0
    outer loop
      vertex -25.7 4.7 4.4
      vertex -25.7384 4.30982 1
      vertex -25.7384 4.30982 4.4
    endloop
  endfacet
  facet normal -1 0 0
    outer loop
      vertex -25.7 4.7 1
      vertex -25.7 35.3 4.4
      vertex -25.7 35.3 1
    endloop
  endfacet
  facet normal -1 -0 0
    outer loop
      vertex -25.7 35.3 4.4
      vertex -25.7 4.7 1
      vertex -25.7 4.7 4.4
    endloop
  endfacet
  facet normal 0 1 0
    outer loop
      vertex -27.7 2.7 1
      vertex -37.624 2.7 4.4
      vertex -35.6 2.7 4.4
    endloop
  endfacet
  facet normal 0 1 0
    outer loop
      vertex -37.624 2.7 4.4
      vertex -27.7 2.7 1
      vertex -40.7456 2.7 4.4
    endloop
  endfacet
  facet normal 0 1 0
    outer loop
      vertex -58.3 2.7 0.999999
      vertex -40.7456 2.7 4.4
      vertex -27.7 2.7 1
    endloop
  endfacet
  facet normal 0 1 -0
    outer loop
      vertex -27.7 2.7 1
      vertex -35.6 2.7 4.4
      vertex -27.7 2.7 4.4
    endloop
  endfacet
  facet normal 0 1 0
    outer loop
      vertex -40.7456 2.7 4.4
      vertex -58.3 2.7 0.999999
      vertex -45.911 2.7 4.4
    endloop
  endfacet
  facet normal 0 1 0
    outer loop
      vertex -45.911 2.7 4.4
      vertex -58.3 2.7 0.999999
      vertex -55.3794 2.7 4.4
    endloop
  endfacet
  facet normal 0 1 0
    outer loop
      vertex -55.3794 2.7 4.4
      vertex -58.3 2.7 0.999999
      vertex -58.3 2.7 4.4
    endloop
  endfacet
  facet normal 0.773013 0.63439 0
    outer loop
      vertex -59.811 3.40375 4.4
      vertex -59.9629 3.58886 0.999999
      vertex -59.9629 3.58886 4.4
    endloop
  endfacet
  facet normal 0.773018 0.634384 -0
    outer loop
      vertex -59.7142 3.28579 0.999999
      vertex -59.811 3.40375 4.4
      vertex -59.7142 3.28579 4.4
    endloop
  endfacet
  facet normal 0.773015 0.634388 -2.09803e-07
    outer loop
      vertex -59.811 3.40375 4.4
      vertex -59.7142 3.28579 0.999999
      vertex -59.9629 3.58886 0.999999
    endloop
  endfacet
  facet normal -0.956941 -0.290281 0
    outer loop
      vertex -25.7384 35.6902 1
      vertex -25.8522 36.0654 4.4
      vertex -25.8522 36.0654 1
    endloop
  endfacet
  facet normal -0.956941 -0.290281 0
    outer loop
      vertex -25.8522 36.0654 4.4
      vertex -25.7384 35.6902 1
      vertex -25.7384 35.6902 4.4
    endloop
  endfacet
  facet normal 0.956942 -0.290279 0
    outer loop
      vertex -60.2177 35.8347 4.4
      vertex -60.1478 36.0654 0.999999
      vertex -60.1478 36.0654 4.4
    endloop
  endfacet
  facet normal 0.95694 -0.290286 0
    outer loop
      vertex -60.2616 35.6902 0.999999
      vertex -60.2177 35.8347 4.4
      vertex -60.2616 35.6902 4.4
    endloop
  endfacet
  facet normal 0.956941 -0.290281 -1.99942e-07
    outer loop
      vertex -60.2177 35.8347 4.4
      vertex -60.2616 35.6902 0.999999
      vertex -60.1478 36.0654 0.999999
    endloop
  endfacet
  facet normal 0.773021 -0.634381 0
    outer loop
      vertex -59.811 36.5963 4.4
      vertex -59.7142 36.7142 0.999999
      vertex -59.7142 36.7142 4.4
    endloop
  endfacet
  facet normal 0.773012 -0.634391 0
    outer loop
      vertex -59.9629 36.4111 0.999999
      vertex -59.811 36.5963 4.4
      vertex -59.9629 36.4111 4.4
    endloop
  endfacet
  facet normal 0.773016 -0.634387 -3.62972e-07
    outer loop
      vertex -59.811 36.5963 4.4
      vertex -59.9629 36.4111 0.999999
      vertex -59.7142 36.7142 0.999999
    endloop
  endfacet
  facet normal -0.773012 0.634391 0
    outer loop
      vertex -26.2858 3.28579 1
      vertex -26.0371 3.58886 4.4
      vertex -26.0371 3.58886 1
    endloop
  endfacet
  facet normal -0.773012 0.634391 0
    outer loop
      vertex -26.0371 3.58886 4.4
      vertex -26.2858 3.28579 1
      vertex -26.2858 3.28579 4.4
    endloop
  endfacet
  facet normal -0.95694 0.290284 0
    outer loop
      vertex -25.8522 3.93463 1
      vertex -25.7384 4.30982 4.4
      vertex -25.7384 4.30982 1
    endloop
  endfacet
  facet normal -0.95694 0.290284 0
    outer loop
      vertex -25.7384 4.30982 4.4
      vertex -25.8522 3.93463 1
      vertex -25.8522 3.93463 4.4
    endloop
  endfacet
  facet normal -0.634391 0.773012 0
    outer loop
      vertex -26.2858 3.28579 1
      vertex -26.5889 3.03706 4.4
      vertex -26.2858 3.28579 4.4
    endloop
  endfacet
  facet normal -0.634391 0.773012 0
    outer loop
      vertex -26.5889 3.03706 4.4
      vertex -26.2858 3.28579 1
      vertex -26.5889 3.03706 1
    endloop
  endfacet
  facet normal -0.88192 -0.471399 0
    outer loop
      vertex -25.8522 36.0654 1
      vertex -26.0371 36.4111 4.4
      vertex -26.0371 36.4111 1
    endloop
  endfacet
  facet normal -0.88192 -0.471399 0
    outer loop
      vertex -26.0371 36.4111 4.4
      vertex -25.8522 36.0654 1
      vertex -25.8522 36.0654 4.4
    endloop
  endfacet
  facet normal -0.290288 -0.956939 0
    outer loop
      vertex -27.3098 37.2616 1
      vertex -27.2 37.2283 4.4
      vertex -27.3098 37.2616 4.4
    endloop
  endfacet
  facet normal -0.290284 -0.95694 -1.29375e-07
    outer loop
      vertex -26.9346 37.1478 1
      vertex -27.2 37.2283 4.4
      vertex -27.3098 37.2616 1
    endloop
  endfacet
  facet normal -0.290283 -0.956941 0
    outer loop
      vertex -27.2 37.2283 4.4
      vertex -26.9346 37.1478 1
      vertex -26.9346 37.1478 4.4
    endloop
  endfacet
  facet normal -0.471401 -0.881919 0
    outer loop
      vertex -26.9346 37.1478 1
      vertex -26.5889 36.9629 4.4
      vertex -26.9346 37.1478 4.4
    endloop
  endfacet
  facet normal -0.471401 -0.881919 -0
    outer loop
      vertex -26.5889 36.9629 4.4
      vertex -26.9346 37.1478 1
      vertex -26.5889 36.9629 1
    endloop
  endfacet
  facet normal -0.634387 -0.773016 0
    outer loop
      vertex -26.5889 36.9629 1
      vertex -26.2858 36.7142 4.4
      vertex -26.5889 36.9629 4.4
    endloop
  endfacet
  facet normal -0.634387 -0.773016 -0
    outer loop
      vertex -26.2858 36.7142 4.4
      vertex -26.5889 36.9629 1
      vertex -26.2858 36.7142 1
    endloop
  endfacet
  facet normal 0.0980172 -0.995185 0
    outer loop
      vertex -58.6902 37.2616 0.999999
      vertex -58.3 37.3 4.4
      vertex -58.6902 37.2616 4.4
    endloop
  endfacet
  facet normal 0.0980172 -0.995185 0
    outer loop
      vertex -58.3 37.3 4.4
      vertex -58.6902 37.2616 0.999999
      vertex -58.3 37.3 0.999999
    endloop
  endfacet
  facet normal 0.29029 -0.956939 0
    outer loop
      vertex -59.0654 37.1478 0.999999
      vertex -58.7613 37.24 4.4
      vertex -59.0654 37.1478 4.4
    endloop
  endfacet
  facet normal 0.290284 -0.95694 5.31376e-07
    outer loop
      vertex -58.6902 37.2616 0.999999
      vertex -58.7613 37.24 4.4
      vertex -59.0654 37.1478 0.999999
    endloop
  endfacet
  facet normal 0.290261 -0.956948 0
    outer loop
      vertex -58.7613 37.24 4.4
      vertex -58.6902 37.2616 0.999999
      vertex -58.6902 37.2616 4.4
    endloop
  endfacet
  facet normal -0.881921 0.471397 0
    outer loop
      vertex -26.0371 3.58886 1
      vertex -25.8522 3.93463 4.4
      vertex -25.8522 3.93463 1
    endloop
  endfacet
  facet normal -0.881921 0.471397 0
    outer loop
      vertex -25.8522 3.93463 4.4
      vertex -26.0371 3.58886 1
      vertex -26.0371 3.58886 4.4
    endloop
  endfacet
  facet normal -0.290284 0.95694 0
    outer loop
      vertex -26.9346 2.85224 1
      vertex -27.2 2.77174 4.4
      vertex -26.9346 2.85224 4.4
    endloop
  endfacet
  facet normal -0.290284 0.95694 4.83186e-09
    outer loop
      vertex -27.3098 2.73843 1
      vertex -27.2 2.77174 4.4
      vertex -26.9346 2.85224 1
    endloop
  endfacet
  facet normal -0.290284 0.956941 0
    outer loop
      vertex -27.2 2.77174 4.4
      vertex -27.3098 2.73843 1
      vertex -27.3098 2.73843 4.4
    endloop
  endfacet
  facet normal -0.0980167 0.995185 0
    outer loop
      vertex -27.3098 2.73843 1
      vertex -27.7 2.7 4.4
      vertex -27.3098 2.73843 4.4
    endloop
  endfacet
  facet normal -0.0980167 0.995185 0
    outer loop
      vertex -27.7 2.7 4.4
      vertex -27.3098 2.73843 1
      vertex -27.7 2.7 1
    endloop
  endfacet
  facet normal -0.471397 0.881921 0
    outer loop
      vertex -26.5889 3.03706 1
      vertex -26.9346 2.85224 4.4
      vertex -26.5889 3.03706 4.4
    endloop
  endfacet
  facet normal -0.471397 0.881921 0
    outer loop
      vertex -26.9346 2.85224 4.4
      vertex -26.5889 3.03706 1
      vertex -26.9346 2.85224 1
    endloop
  endfacet
  facet normal 0.63441 0.772997 -0
    outer loop
      vertex -59.4111 3.03706 0.999999
      vertex -59.441 3.06155 4.4
      vertex -59.4111 3.03706 4.4
    endloop
  endfacet
  facet normal 0.634389 0.773014 -2.99058e-07
    outer loop
      vertex -59.441 3.06155 4.4
      vertex -59.4111 3.03706 0.999999
      vertex -59.7142 3.28579 4.4
    endloop
  endfacet
  facet normal 0.634391 0.773012 0
    outer loop
      vertex -59.7142 3.28579 4.4
      vertex -59.4111 3.03706 0.999999
      vertex -59.7142 3.28579 0.999999
    endloop
  endfacet
  facet normal 0.471395 0.881922 -0
    outer loop
      vertex -59.0654 2.85224 0.999999
      vertex -59.4111 3.03706 4.4
      vertex -59.0654 2.85224 4.4
    endloop
  endfacet
  facet normal 0.471395 0.881922 0
    outer loop
      vertex -59.4111 3.03706 4.4
      vertex -59.0654 2.85224 0.999999
      vertex -59.4111 3.03706 0.999999
    endloop
  endfacet
  facet normal 0.995185 0.0980167 0
    outer loop
      vertex -60.2616 4.30982 4.4
      vertex -60.3 4.7 0.999999
      vertex -60.3 4.7 4.4
    endloop
  endfacet
  facet normal 0.995185 0.0980167 0
    outer loop
      vertex -60.3 4.7 0.999999
      vertex -60.2616 4.30982 4.4
      vertex -60.2616 4.30982 0.999999
    endloop
  endfacet
  facet normal 0.95694 0.290287 0
    outer loop
      vertex -60.2177 4.16534 4.4
      vertex -60.2616 4.30982 0.999999
      vertex -60.2616 4.30982 4.4
    endloop
  endfacet
  facet normal 0.956941 0.290283 -0
    outer loop
      vertex -60.1478 3.93463 0.999999
      vertex -60.2177 4.16534 4.4
      vertex -60.1478 3.93463 4.4
    endloop
  endfacet
  facet normal 0.95694 0.290284 -1.15237e-07
    outer loop
      vertex -60.2177 4.16534 4.4
      vertex -60.1478 3.93463 0.999999
      vertex -60.2616 4.30982 0.999999
    endloop
  endfacet
  facet normal -0.773013 -0.63439 0
    outer loop
      vertex -26.0371 36.4111 1
      vertex -26.2858 36.7142 4.4
      vertex -26.2858 36.7142 1
    endloop
  endfacet
  facet normal -0.773013 -0.63439 0
    outer loop
      vertex -26.2858 36.7142 4.4
      vertex -26.0371 36.4111 1
      vertex -26.0371 36.4111 4.4
    endloop
  endfacet
  facet normal 0.471399 -0.88192 0
    outer loop
      vertex -59.4111 36.9629 0.999999
      vertex -59.0654 37.1478 4.4
      vertex -59.4111 36.9629 4.4
    endloop
  endfacet
  facet normal 0.471399 -0.88192 0
    outer loop
      vertex -59.0654 37.1478 4.4
      vertex -59.4111 36.9629 0.999999
      vertex -59.0654 37.1478 0.999999
    endloop
  endfacet
  facet normal 0.290276 0.956943 -0
    outer loop
      vertex -58.6902 2.73843 0.999999
      vertex -58.7613 2.76001 4.4
      vertex -58.6902 2.73843 4.4
    endloop
  endfacet
  facet normal 0.290284 0.95694 1.95858e-07
    outer loop
      vertex -59.0654 2.85224 0.999999
      vertex -58.7613 2.76001 4.4
      vertex -58.6902 2.73843 0.999999
    endloop
  endfacet
  facet normal 0.290286 0.95694 0
    outer loop
      vertex -58.7613 2.76001 4.4
      vertex -59.0654 2.85224 0.999999
      vertex -59.0654 2.85224 4.4
    endloop
  endfacet
  facet normal 0.88192 0.4714 0
    outer loop
      vertex -60.0631 3.77632 4.4
      vertex -60.1478 3.93463 0.999999
      vertex -60.1478 3.93463 4.4
    endloop
  endfacet
  facet normal 0.881918 0.471402 -0
    outer loop
      vertex -59.9629 3.58886 0.999999
      vertex -60.0631 3.77632 4.4
      vertex -59.9629 3.58886 4.4
    endloop
  endfacet
  facet normal 0.881919 0.471401 7.56367e-08
    outer loop
      vertex -60.0631 3.77632 4.4
      vertex -59.9629 3.58886 0.999999
      vertex -60.1478 3.93463 0.999999
    endloop
  endfacet
  facet normal 0.995185 0.0980162 0
    outer loop
      vertex -23 38 1
      vertex -23.0384 38.3902 9.53674e-07
      vertex -23.0384 38.3902 1
    endloop
  endfacet
  facet normal 0.995185 0.0980162 0
    outer loop
      vertex -23.0384 38.3902 9.53674e-07
      vertex -23 38 1
      vertex -23 38 9.53674e-07
    endloop
  endfacet
  facet normal -1 0 0
    outer loop
      vertex -63 2 4.44089e-15
      vertex -63 38 0.999999
      vertex -63 38 4.44089e-15
    endloop
  endfacet
  facet normal -1 -0 0
    outer loop
      vertex -63 38 0.999999
      vertex -63 2 4.44089e-15
      vertex -63 2 0.999999
    endloop
  endfacet
  facet normal -0.881924 0.471391 3.36428e-06
    outer loop
      vertex -62.8478 38.7654 4.40709e-15
      vertex -62.6629 39.1111 0.999999
      vertex -62.6629 39.1111 4.36605e-15
    endloop
  endfacet
  facet normal -0.88192 0.471399 0
    outer loop
      vertex -62.6629 39.1111 0.999999
      vertex -62.8478 38.7654 4.40709e-15
      vertex -62.8478 38.7654 0.999999
    endloop
  endfacet
  facet normal 2.54495e-08 -7.72002e-09 -1
    outer loop
      vertex -23.1522 1.23463 9.53674e-07
      vertex -61 0 3.9968e-15
      vertex -23.0384 1.60982 9.53674e-07
    endloop
  endfacet
  facet normal 2.6491e-08 -2.68962e-07 -1
    outer loop
      vertex -25 0 9.53674e-07
      vertex -61 0 3.9968e-15
      vertex -24.6098 0.0384302 9.53674e-07
    endloop
  endfacet
  facet normal 2.58214e-08 2.1191e-08 -1
    outer loop
      vertex -23.3371 39.1111 9.53674e-07
      vertex -61 40 3.9968e-15
      vertex -23.5858 39.4142 9.53674e-07
    endloop
  endfacet
  facet normal 0.634395 0.773009 -0
    outer loop
      vertex -23.5858 39.4142 9.53674e-07
      vertex -23.8889 39.6629 1
      vertex -23.5858 39.4142 1
    endloop
  endfacet
  facet normal 0.634395 0.773009 0
    outer loop
      vertex -23.8889 39.6629 1
      vertex -23.5858 39.4142 9.53674e-07
      vertex -23.8889 39.6629 9.53674e-07
    endloop
  endfacet
  facet normal -2.58214e-08 2.1191e-08 1
    outer loop
      vertex -62.4142 39.4142 0.999999
      vertex -62.6629 39.1111 0.999999
      vertex -25 40 1
    endloop
  endfacet
  facet normal 2.6491e-08 2.68968e-07 -1
    outer loop
      vertex -24.6098 39.9616 9.53674e-07
      vertex -61 40 3.9968e-15
      vertex -25 40 9.53674e-07
    endloop
  endfacet
  facet normal -2.52275e-08 -2.48468e-09 1
    outer loop
      vertex -63 2 0.999999
      vertex -62.9616 1.60982 0.999999
      vertex -25 0 1
    endloop
  endfacet
  facet normal 2.52275e-08 -2.48468e-09 -1
    outer loop
      vertex -23.0384 1.60982 9.53674e-07
      vertex -61 0 3.9968e-15
      vertex -23 2 9.53674e-07
    endloop
  endfacet
  facet normal 2.50967e-08 0 -1
    outer loop
      vertex -30.6 10.45 7.62939e-07
      vertex -23 2 9.53674e-07
      vertex -30.6 7.95 7.62939e-07
    endloop
  endfacet
  facet normal 2.50967e-08 5.45897e-14 -1
    outer loop
      vertex -23 2 9.53674e-07
      vertex -30.6761 7.56732 7.61029e-07
      vertex -30.6 7.95 7.62939e-07
    endloop
  endfacet
  facet normal 2.50968e-08 1.05421e-13 -1
    outer loop
      vertex -23 2 9.53674e-07
      vertex -30.8929 7.24289 7.55589e-07
      vertex -30.6761 7.56732 7.61029e-07
    endloop
  endfacet
  facet normal 2.50966e-08 -7.43307e-14 -1
    outer loop
      vertex -23 2 9.53674e-07
      vertex -31.2173 7.02612 7.47447e-07
      vertex -30.8929 7.24289 7.55589e-07
    endloop
  endfacet
  facet normal 2.50966e-08 -9.03978e-14 -1
    outer loop
      vertex -23 2 9.53674e-07
      vertex -31.6 6.95 7.37843e-07
      vertex -31.2173 7.02612 7.47447e-07
    endloop
  endfacet
  facet normal 2.50967e-08 5.6914e-14 -1
    outer loop
      vertex -23 2 9.53674e-07
      vertex -32.8 6.95 7.07727e-07
      vertex -31.6 6.95 7.37843e-07
    endloop
  endfacet
  facet normal 2.50968e-08 1.66765e-13 -1
    outer loop
      vertex -23 2 9.53674e-07
      vertex -33.1827 7.02612 6.98123e-07
      vertex -32.8 6.95 7.07727e-07
    endloop
  endfacet
  facet normal 2.50967e-08 0 -1
    outer loop
      vertex -33.8 7.95 6.8263e-07
      vertex -61 0 3.9968e-15
      vertex -33.8 10.45 6.8263e-07
    endloop
  endfacet
  facet normal 2.50967e-08 -1.77719e-13 -1
    outer loop
      vertex -33.7239 7.56732 6.8454e-07
      vertex -61 0 3.9968e-15
      vertex -33.8 7.95 6.8263e-07
    endloop
  endfacet
  facet normal 2.50967e-08 1.40321e-13 -1
    outer loop
      vertex -33.5071 7.24289 6.89981e-07
      vertex -61 0 3.9968e-15
      vertex -33.7239 7.56732 6.8454e-07
    endloop
  endfacet
  facet normal 2.50967e-08 6.77325e-14 -1
    outer loop
      vertex -33.1827 7.02612 6.98123e-07
      vertex -61 0 3.9968e-15
      vertex -33.5071 7.24289 6.89981e-07
    endloop
  endfacet
  facet normal 2.50967e-08 -1.04124e-14 -1
    outer loop
      vertex -61 0 3.9968e-15
      vertex -33.1827 7.02612 6.98123e-07
      vertex -23 2 9.53674e-07
    endloop
  endfacet
  facet normal 2.50966e-08 -8.10062e-14 -1
    outer loop
      vertex -30.6761 10.8327 7.61029e-07
      vertex -23 2 9.53674e-07
      vertex -30.6 10.45 7.62939e-07
    endloop
  endfacet
  facet normal 2.50967e-08 0 -1
    outer loop
      vertex -23 2 9.53674e-07
      vertex -30.6761 10.8327 7.61029e-07
      vertex -23 38 9.53674e-07
    endloop
  endfacet
  facet normal 2.50969e-08 -4.65137e-14 -1
    outer loop
      vertex -30.8929 11.1571 7.55589e-07
      vertex -23 38 9.53674e-07
      vertex -30.6761 10.8327 7.61029e-07
    endloop
  endfacet
  facet normal 2.50966e-08 2.43399e-14 -1
    outer loop
      vertex -31.2173 11.3739 7.47447e-07
      vertex -23 38 9.53674e-07
      vertex -30.8929 11.1571 7.55589e-07
    endloop
  endfacet
  facet normal 2.50966e-08 2.13055e-14 -1
    outer loop
      vertex -31.6 11.45 7.37843e-07
      vertex -23 38 9.53674e-07
      vertex -31.2173 11.3739 7.47447e-07
    endloop
  endfacet
  facet normal 2.50967e-08 -1.06111e-14 -1
    outer loop
      vertex -32.8 11.45 7.07727e-07
      vertex -23 38 9.53674e-07
      vertex -31.6 11.45 7.37843e-07
    endloop
  endfacet
  facet normal 2.50968e-08 -2.03411e-14 -1
    outer loop
      vertex -33.1827 11.3739 6.98123e-07
      vertex -23 38 9.53674e-07
      vertex -32.8 11.45 7.07727e-07
    endloop
  endfacet
  facet normal 2.50967e-08 -3.67447e-14 -1
    outer loop
      vertex -61 40 3.9968e-15
      vertex -33.1827 11.3739 6.98123e-07
      vertex -33.5071 11.1571 6.89981e-07
    endloop
  endfacet
  facet normal 2.50966e-08 -9.70152e-14 -1
    outer loop
      vertex -61 40 3.9968e-15
      vertex -33.5071 11.1571 6.89981e-07
      vertex -33.7239 10.8327 6.8454e-07
    endloop
  endfacet
  facet normal 2.50966e-08 2.03611e-13 -1
    outer loop
      vertex -61 0 3.9968e-15
      vertex -33.7239 10.8327 6.8454e-07
      vertex -33.8 10.45 6.8263e-07
    endloop
  endfacet
  facet normal 2.50967e-08 0 -1
    outer loop
      vertex -61 40 3.9968e-15
      vertex -33.7239 10.8327 6.8454e-07
      vertex -61 0 3.9968e-15
    endloop
  endfacet
  facet normal 2.50967e-08 2.13218e-15 -1
    outer loop
      vertex -33.1827 11.3739 6.98123e-07
      vertex -61 40 3.9968e-15
      vertex -23 38 9.53674e-07
    endloop
  endfacet
  facet normal 0 1 -0
    outer loop
      vertex -25 40 9.53674e-07
      vertex -61 40 0.999999
      vertex -25 40 1
    endloop
  endfacet
  facet normal 0 1 0
    outer loop
      vertex -61 40 0.999999
      vertex -25 40 9.53674e-07
      vertex -61 40 3.9968e-15
    endloop
  endfacet
  facet normal 0 0 1
    outer loop
      vertex -25 40 1
      vertex -25.2 35.8 1
      vertex -25 0 1
    endloop
  endfacet
  facet normal 0 0 1
    outer loop
      vertex -25 40 1
      vertex -25.2384 36.1902 1
      vertex -25.2 35.8 1
    endloop
  endfacet
  facet normal 0 0 1
    outer loop
      vertex -25 40 1
      vertex -25.3522 36.5654 1
      vertex -25.2384 36.1902 1
    endloop
  endfacet
  facet normal 0 0 1
    outer loop
      vertex -25 40 1
      vertex -25.5371 36.9111 1
      vertex -25.3522 36.5654 1
    endloop
  endfacet
  facet normal 0 0 1
    outer loop
      vertex -25 40 1
      vertex -25.7858 37.2142 1
      vertex -25.5371 36.9111 1
    endloop
  endfacet
  facet normal 0 0 1
    outer loop
      vertex -25 40 1
      vertex -26.0889 37.4629 1
      vertex -25.7858 37.2142 1
    endloop
  endfacet
  facet normal -1.40215e-07 6.01774e-08 1
    outer loop
      vertex -25 40 1
      vertex -26.4346 37.6478 1
      vertex -26.0889 37.4629 1
    endloop
  endfacet
  facet normal -6.48656e-09 -2.13834e-08 1
    outer loop
      vertex -25 40 1
      vertex -26.8098 37.7616 1
      vertex -26.4346 37.6478 1
    endloop
  endfacet
  facet normal -2.42917e-09 -2.46638e-08 1
    outer loop
      vertex -25 40 1
      vertex -27.2 37.8 1
      vertex -26.8098 37.7616 1
    endloop
  endfacet
  facet normal -2.45209e-08 -2.57211e-09 1
    outer loop
      vertex -25 40 1
      vertex -58.8 37.8 0.999999
      vertex -27.2 37.8 1
    endloop
  endfacet
  facet normal -2.7093e-08 0 1
    outer loop
      vertex -60.8 35.8 0.999999
      vertex -63 38 0.999999
      vertex -60.8 4.2 0.999999
    endloop
  endfacet
  facet normal -2.46638e-08 2.42918e-09 1
    outer loop
      vertex -60.7616 36.1902 0.999999
      vertex -63 38 0.999999
      vertex -60.8 35.8 0.999999
    endloop
  endfacet
  facet normal -2.13834e-08 6.4865e-09 1
    outer loop
      vertex -60.6478 36.5654 0.999999
      vertex -63 38 0.999999
      vertex -60.7616 36.1902 0.999999
    endloop
  endfacet
  facet normal -1.91097e-08 1.02145e-08 1
    outer loop
      vertex -60.4629 36.9111 0.999999
      vertex -63 38 0.999999
      vertex -60.6478 36.5654 0.999999
    endloop
  endfacet
  facet normal -1.73741e-08 1.42583e-08 1
    outer loop
      vertex -60.2142 37.2142 0.999999
      vertex -63 38 0.999999
      vertex -60.4629 36.9111 0.999999
    endloop
  endfacet
  facet normal -1.59231e-08 1.94027e-08 1
    outer loop
      vertex -59.9111 37.4629 0.999999
      vertex -63 38 0.999999
      vertex -60.2142 37.2142 0.999999
    endloop
  endfacet
  facet normal -1.45603e-08 2.72403e-08 1
    outer loop
      vertex -59.5654 37.6478 0.999999
      vertex -63 38 0.999999
      vertex -59.9111 37.4629 0.999999
    endloop
  endfacet
  facet normal -5.31088e-08 -3.48637e-07 1
    outer loop
      vertex -59.1902 37.7616 0.999999
      vertex -63 38 0.999999
      vertex -59.5654 37.6478 0.999999
    endloop
  endfacet
  facet normal -1.91327e-08 1.94258e-07 1
    outer loop
      vertex -58.8 37.8 0.999999
      vertex -63 38 0.999999
      vertex -59.1902 37.7616 0.999999
    endloop
  endfacet
  facet normal -2.68221e-08 3.27824e-08 1
    outer loop
      vertex -63 38 0.999999
      vertex -58.8 37.8 0.999999
      vertex -25 40 1
    endloop
  endfacet
  facet normal -0 0 1
    outer loop
      vertex -25.2 4.2 1
      vertex -25 0 1
      vertex -25.2 35.8 1
    endloop
  endfacet
  facet normal -0 0 1
    outer loop
      vertex -25.2384 3.80982 1
      vertex -25 0 1
      vertex -25.2 4.2 1
    endloop
  endfacet
  facet normal -0 0 1
    outer loop
      vertex -25.3522 3.43463 1
      vertex -25 0 1
      vertex -25.2384 3.80982 1
    endloop
  endfacet
  facet normal -0 0 1
    outer loop
      vertex -25.5371 3.08886 1
      vertex -25 0 1
      vertex -25.3522 3.43463 1
    endloop
  endfacet
  facet normal -0 0 1
    outer loop
      vertex -25.7858 2.78579 1
      vertex -25 0 1
      vertex -25.5371 3.08886 1
    endloop
  endfacet
  facet normal -0 0 1
    outer loop
      vertex -26.0889 2.53706 1
      vertex -25 0 1
      vertex -25.7858 2.78579 1
    endloop
  endfacet
  facet normal -1.40215e-07 -6.01776e-08 1
    outer loop
      vertex -26.4346 2.35224 1
      vertex -25 0 1
      vertex -26.0889 2.53706 1
    endloop
  endfacet
  facet normal -6.48656e-09 2.13834e-08 1
    outer loop
      vertex -26.8098 2.23843 1
      vertex -25 0 1
      vertex -26.4346 2.35224 1
    endloop
  endfacet
  facet normal -2.42917e-09 2.46638e-08 1
    outer loop
      vertex -27.2 2.2 1
      vertex -25 0 1
      vertex -26.8098 2.23843 1
    endloop
  endfacet
  facet normal -2.45209e-08 2.57211e-09 1
    outer loop
      vertex -58.8 2.2 0.999999
      vertex -25 0 1
      vertex -27.2 2.2 1
    endloop
  endfacet
  facet normal -2.68221e-08 -3.27824e-08 1
    outer loop
      vertex -58.8 2.2 0.999999
      vertex -63 2 0.999999
      vertex -25 0 1
    endloop
  endfacet
  facet normal -1.91327e-08 -1.94258e-07 1
    outer loop
      vertex -59.1902 2.23843 0.999999
      vertex -63 2 0.999999
      vertex -58.8 2.2 0.999999
    endloop
  endfacet
  facet normal -5.31088e-08 3.48637e-07 1
    outer loop
      vertex -59.5654 2.35224 0.999999
      vertex -63 2 0.999999
      vertex -59.1902 2.23843 0.999999
    endloop
  endfacet
  facet normal -1.45603e-08 -2.72406e-08 1
    outer loop
      vertex -59.9111 2.53706 0.999999
      vertex -63 2 0.999999
      vertex -59.5654 2.35224 0.999999
    endloop
  endfacet
  facet normal -1.59231e-08 -1.94025e-08 1
    outer loop
      vertex -60.2142 2.78579 0.999999
      vertex -63 2 0.999999
      vertex -59.9111 2.53706 0.999999
    endloop
  endfacet
  facet normal -1.73741e-08 -1.42584e-08 1
    outer loop
      vertex -60.4629 3.08886 0.999999
      vertex -63 2 0.999999
      vertex -60.2142 2.78579 0.999999
    endloop
  endfacet
  facet normal -1.91097e-08 -1.02145e-08 1
    outer loop
      vertex -60.6478 3.43463 0.999999
      vertex -63 2 0.999999
      vertex -60.4629 3.08886 0.999999
    endloop
  endfacet
  facet normal -2.13834e-08 -6.48656e-09 1
    outer loop
      vertex -60.7616 3.80982 0.999999
      vertex -63 2 0.999999
      vertex -60.6478 3.43463 0.999999
    endloop
  endfacet
  facet normal -2.46638e-08 -2.42917e-09 1
    outer loop
      vertex -60.8 4.2 0.999999
      vertex -63 2 0.999999
      vertex -60.7616 3.80982 0.999999
    endloop
  endfacet
  facet normal -2.7093e-08 0 1
    outer loop
      vertex -63 2 0.999999
      vertex -60.8 4.2 0.999999
      vertex -63 38 0.999999
    endloop
  endfacet
  facet normal -3.30583e-08 -3.25596e-09 1
    outer loop
      vertex -27.7 37.3 1
      vertex -25.7 35.3 1
      vertex -25.7384 35.6902 1
    endloop
  endfacet
  facet normal -2.39563e-08 0 1
    outer loop
      vertex -25.7 35.3 1
      vertex -30.6761 10.8327 1
      vertex -25.7 4.7 1
    endloop
  endfacet
  facet normal -4.04581e-08 -1.22727e-08 1
    outer loop
      vertex -27.7 37.3 1
      vertex -25.7384 35.6902 1
      vertex -25.8522 36.0654 1
    endloop
  endfacet
  facet normal -3.17362e-08 -6.31273e-09 1
    outer loop
      vertex -30.6 10.45 1
      vertex -25.7 4.7 1
      vertex -30.6761 10.8327 1
    endloop
  endfacet
  facet normal -5.01794e-08 -2.68216e-08 1
    outer loop
      vertex -27.7 37.3 1
      vertex -25.8522 36.0654 1
      vertex -26.0371 36.4111 1
    endloop
  endfacet
  facet normal -2.43284e-08 0 1
    outer loop
      vertex -30.6 7.95 1
      vertex -25.7 4.7 1
      vertex -30.6 10.45 1
    endloop
  endfacet
  facet normal 1.23414e-07 2.9795e-07 1
    outer loop
      vertex -27.7 37.3 1
      vertex -26.0371 36.4111 1
      vertex -26.2858 36.7142 1
    endloop
  endfacet
  facet normal -2.14928e-08 4.27518e-09 1
    outer loop
      vertex -30.6761 7.56732 1
      vertex -25.7 4.7 1
      vertex -30.6 7.95 1
    endloop
  endfacet
  facet normal 0 0 1
    outer loop
      vertex -27.7 37.3 1
      vertex -26.2858 36.7142 1
      vertex -26.5889 36.9629 1
    endloop
  endfacet
  facet normal -1.72968e-08 1.15573e-08 1
    outer loop
      vertex -30.8929 7.24289 1
      vertex -25.7 4.7 1
      vertex -30.6761 7.56732 1
    endloop
  endfacet
  facet normal 0 0 1
    outer loop
      vertex -27.7 37.3 1
      vertex -26.5889 36.9629 1
      vertex -26.9346 37.1478 1
    endloop
  endfacet
  facet normal -2.52067e-08 -4.59565e-09 1
    outer loop
      vertex -27.7 2.7 1
      vertex -25.7 4.7 1
      vertex -30.8929 7.24289 1
    endloop
  endfacet
  facet normal 0 0 1
    outer loop
      vertex -27.7 37.3 1
      vertex -26.9346 37.1478 1
      vertex -27.3098 37.2616 1
    endloop
  endfacet
  facet normal -3.30583e-08 3.25594e-09 1
    outer loop
      vertex -25.7 4.7 1
      vertex -27.7 2.7 1
      vertex -25.7384 4.30982 1
    endloop
  endfacet
  facet normal -2.83955e-08 1.40685e-09 1
    outer loop
      vertex -33.1827 11.3739 1
      vertex -25.7 35.3 1
      vertex -27.7 37.3 1
    endloop
  endfacet
  facet normal -5.01793e-08 2.68214e-08 1
    outer loop
      vertex -25.8522 3.93463 1
      vertex -27.7 2.7 1
      vertex -26.0371 3.58886 1
    endloop
  endfacet
  facet normal 1.23415e-07 -2.97951e-07 1
    outer loop
      vertex -26.0371 3.58886 1
      vertex -27.7 2.7 1
      vertex -26.2858 3.28579 1
    endloop
  endfacet
  facet normal 0 0 1
    outer loop
      vertex -26.2858 3.28579 1
      vertex -27.7 2.7 1
      vertex -26.5889 3.03706 1
    endloop
  endfacet
  facet normal -5.59023e-09 -3.73525e-09 1
    outer loop
      vertex -25.7 35.3 1
      vertex -30.8929 11.1571 1
      vertex -30.6761 10.8327 1
    endloop
  endfacet
  facet normal -1.63523e-07 3.02345e-08 1
    outer loop
      vertex -25.7 35.3 1
      vertex -31.2173 11.3739 1
      vertex -30.8929 11.1571 1
    endloop
  endfacet
  facet normal -1.42139e-09 -7.14582e-09 1
    outer loop
      vertex -25.7 35.3 1
      vertex -31.6 11.45 1
      vertex -31.2173 11.3739 1
    endloop
  endfacet
  facet normal 0 -7.49744e-09 1
    outer loop
      vertex -25.7 35.3 1
      vertex -32.8 11.45 1
      vertex -31.6 11.45 1
    endloop
  endfacet
  facet normal 1.5852e-09 -7.96935e-09 1
    outer loop
      vertex -25.7 35.3 1
      vertex -33.1827 11.3739 1
      vertex -32.8 11.45 1
    endloop
  endfacet
  facet normal -2.53222e-08 7.56938e-10 1
    outer loop
      vertex -58.3 37.3 0.999999
      vertex -33.1827 11.3739 1
      vertex -27.7 37.3 1
    endloop
  endfacet
  facet normal -1.21786e-07 -9.26974e-08 1
    outer loop
      vertex -33.1827 11.3739 1
      vertex -58.3 37.3 0.999999
      vertex -33.5071 11.1571 1
    endloop
  endfacet
  facet normal -2.46707e-08 0 1
    outer loop
      vertex -60.3 4.7 0.999999
      vertex -33.7239 10.8327 1
      vertex -60.3 35.3 0.999999
    endloop
  endfacet
  facet normal -1.52744e-08 1.02061e-08 1
    outer loop
      vertex -33.5071 11.1571 1
      vertex -60.3 35.3 0.999999
      vertex -33.7239 10.8327 1
    endloop
  endfacet
  facet normal -2.6998e-08 -2.8043e-09 1
    outer loop
      vertex -60.3 35.3 0.999999
      vertex -33.5071 11.1571 1
      vertex -58.3 37.3 0.999999
    endloop
  endfacet
  facet normal 0 0 1
    outer loop
      vertex -26.5889 3.03706 1
      vertex -27.7 2.7 1
      vertex -26.9346 2.85224 1
    endloop
  endfacet
  facet normal 0 0 1
    outer loop
      vertex -26.9346 2.85224 1
      vertex -27.7 2.7 1
      vertex -27.3098 2.73843 1
    endloop
  endfacet
  facet normal -4.04583e-08 1.22729e-08 1
    outer loop
      vertex -25.7384 4.30982 1
      vertex -27.7 2.7 1
      vertex -25.8522 3.93463 1
    endloop
  endfacet
  facet normal -1.30981e-07 -7.89373e-08 1
    outer loop
      vertex -31.2173 7.02612 1
      vertex -27.7 2.7 1
      vertex -30.8929 7.24289 1
    endloop
  endfacet
  facet normal -4.71812e-09 2.37197e-08 1
    outer loop
      vertex -31.6 6.95 1
      vertex -27.7 2.7 1
      vertex -31.2173 7.02612 1
    endloop
  endfacet
  facet normal -0 2.80492e-08 1
    outer loop
      vertex -32.8 6.95 1
      vertex -27.7 2.7 1
      vertex -31.6 6.95 1
    endloop
  endfacet
  facet normal 7.32866e-09 3.68436e-08 1
    outer loop
      vertex -33.1827 7.02612 1
      vertex -27.7 2.7 1
      vertex -32.8 6.95 1
    endloop
  endfacet
  facet normal -5.84068e-08 1.87552e-07 1
    outer loop
      vertex -58.3 2.7 0.999999
      vertex -33.1827 7.02612 1
      vertex -33.5071 7.24289 1
    endloop
  endfacet
  facet normal -2.56328e-08 4.16949e-09 1
    outer loop
      vertex -58.3 2.7 0.999999
      vertex -33.7239 10.8327 1
      vertex -60.3 4.7 0.999999
    endloop
  endfacet
  facet normal -2.59619e-08 5.16402e-09 1
    outer loop
      vertex -33.7239 10.8327 1
      vertex -58.3 2.7 0.999999
      vertex -33.8 10.45 1
    endloop
  endfacet
  facet normal -2.53222e-08 -4.53627e-09 1
    outer loop
      vertex -33.1827 7.02612 1
      vertex -58.3 2.7 0.999999
      vertex -27.7 2.7 1
    endloop
  endfacet
  facet normal -2.43284e-08 0 1
    outer loop
      vertex -33.8 10.45 1
      vertex -58.3 2.7 0.999999
      vertex -33.8 7.95 1
    endloop
  endfacet
  facet normal 3.25596e-09 -3.30583e-08 1
    outer loop
      vertex -60.3 35.3 0.999999
      vertex -58.3 37.3 0.999999
      vertex -58.6902 37.2616 0.999999
    endloop
  endfacet
  facet normal -2.33339e-08 -4.64127e-09 1
    outer loop
      vertex -33.8 7.95 1
      vertex -58.3 2.7 0.999999
      vertex -33.7239 7.56732 1
    endloop
  endfacet
  facet normal 1.22729e-08 -4.04583e-08 1
    outer loop
      vertex -60.3 35.3 0.999999
      vertex -58.6902 37.2616 0.999999
      vertex -59.0654 37.1478 0.999999
    endloop
  endfacet
  facet normal -2.14187e-08 -1.43116e-08 1
    outer loop
      vertex -33.7239 7.56732 1
      vertex -58.3 2.7 0.999999
      vertex -33.5071 7.24289 1
    endloop
  endfacet
  facet normal 2.68217e-08 -5.01795e-08 1
    outer loop
      vertex -60.3 35.3 0.999999
      vertex -59.0654 37.1478 0.999999
      vertex -59.4111 36.9629 0.999999
    endloop
  endfacet
  facet normal 3.25596e-09 3.30583e-08 1
    outer loop
      vertex -58.3 2.7 0.999999
      vertex -60.3 4.7 0.999999
      vertex -58.6902 2.73843 0.999999
    endloop
  endfacet
  facet normal -2.97948e-07 1.23414e-07 1
    outer loop
      vertex -60.3 35.3 0.999999
      vertex -59.4111 36.9629 0.999999
      vertex -59.7142 36.7142 0.999999
    endloop
  endfacet
  facet normal 1.22729e-08 4.04583e-08 1
    outer loop
      vertex -58.6902 2.73843 0.999999
      vertex -60.3 4.7 0.999999
      vertex -59.0654 2.85224 0.999999
    endloop
  endfacet
  facet normal 0 0 1
    outer loop
      vertex -60.3 35.3 0.999999
      vertex -59.7142 36.7142 0.999999
      vertex -59.9629 36.4111 0.999999
    endloop
  endfacet
  facet normal 2.68212e-08 5.01792e-08 1
    outer loop
      vertex -59.0654 2.85224 0.999999
      vertex -60.3 4.7 0.999999
      vertex -59.4111 3.03706 0.999999
    endloop
  endfacet
  facet normal 0 0 1
    outer loop
      vertex -60.3 35.3 0.999999
      vertex -59.9629 36.4111 0.999999
      vertex -60.1478 36.0654 0.999999
    endloop
  endfacet
  facet normal -2.9795e-07 -1.23415e-07 1
    outer loop
      vertex -59.4111 3.03706 0.999999
      vertex -60.3 4.7 0.999999
      vertex -59.7142 3.28579 0.999999
    endloop
  endfacet
  facet normal 0 0 1
    outer loop
      vertex -60.3 35.3 0.999999
      vertex -60.1478 36.0654 0.999999
      vertex -60.2616 35.6902 0.999999
    endloop
  endfacet
  facet normal 0 0 1
    outer loop
      vertex -59.7142 3.28579 0.999999
      vertex -60.3 4.7 0.999999
      vertex -59.9629 3.58886 0.999999
    endloop
  endfacet
  facet normal 0 0 1
    outer loop
      vertex -59.9629 3.58886 0.999999
      vertex -60.3 4.7 0.999999
      vertex -60.1478 3.93463 0.999999
    endloop
  endfacet
  facet normal 0 0 1
    outer loop
      vertex -60.1478 3.93463 0.999999
      vertex -60.3 4.7 0.999999
      vertex -60.2616 4.30982 0.999999
    endloop
  endfacet
  facet normal -2.54495e-08 7.72008e-09 1
    outer loop
      vertex -62.8478 38.7654 0.999999
      vertex -62.9616 38.3902 0.999999
      vertex -25 40 1
    endloop
  endfacet
  facet normal -2.22043e-16 1.20402e-21 -1
    outer loop
      vertex -63 2 4.44089e-15
      vertex -61 0 3.9968e-15
      vertex -61.3902 0.0384302 4.08344e-15
    endloop
  endfacet
  facet normal -2.22045e-16 0 -1
    outer loop
      vertex -61 0 3.9968e-15
      vertex -63 2 4.44089e-15
      vertex -61 40 3.9968e-15
    endloop
  endfacet
  facet normal -2.22046e-16 -9.46006e-22 -1
    outer loop
      vertex -63 2 4.44089e-15
      vertex -61.3902 0.0384302 4.08344e-15
      vertex -61.7654 0.152242 4.16675e-15
    endloop
  endfacet
  facet normal -2.22045e-16 -0 -1
    outer loop
      vertex -63 38 4.44089e-15
      vertex -61 40 3.9968e-15
      vertex -63 2 4.44089e-15
    endloop
  endfacet
  facet normal -2.22045e-16 0 -1
    outer loop
      vertex -63 2 4.44089e-15
      vertex -61.7654 0.152242 4.16675e-15
      vertex -62.1111 0.337061 4.24353e-15
    endloop
  endfacet
  facet normal -2.22043e-16 -1.20402e-21 -1
    outer loop
      vertex -61 40 3.9968e-15
      vertex -63 38 4.44089e-15
      vertex -61.3902 39.9616 4.08344e-15
    endloop
  endfacet
  facet normal -2.22042e-16 1.33062e-21 -1
    outer loop
      vertex -63 2 4.44089e-15
      vertex -62.1111 0.337061 4.24353e-15
      vertex -62.4142 0.585787 4.31082e-15
    endloop
  endfacet
  facet normal -2.22046e-16 9.46006e-22 -1
    outer loop
      vertex -61.3902 39.9616 4.08344e-15
      vertex -63 38 4.44089e-15
      vertex -61.7654 39.8478 4.16675e-15
    endloop
  endfacet
  facet normal -2.22044e-16 6.04649e-22 -1
    outer loop
      vertex -63 2 4.44089e-15
      vertex -62.4142 0.585787 4.31082e-15
      vertex -62.6629 0.88886 4.36605e-15
    endloop
  endfacet
  facet normal -2.22045e-16 0 -1
    outer loop
      vertex -61.7654 39.8478 4.16675e-15
      vertex -63 38 4.44089e-15
      vertex -62.1111 39.6629 4.24353e-15
    endloop
  endfacet
  facet normal -2.22048e-16 -7.25981e-22 -1
    outer loop
      vertex -63 2 4.44089e-15
      vertex -62.6629 0.88886 4.36605e-15
      vertex -62.8478 1.23463 4.40709e-15
    endloop
  endfacet
  facet normal -2.22042e-16 -1.33061e-21 -1
    outer loop
      vertex -62.1111 39.6629 4.24353e-15
      vertex -63 38 4.44089e-15
      vertex -62.4142 39.4142 4.31082e-15
    endloop
  endfacet
  facet normal -2.22045e-16 0 -1
    outer loop
      vertex -63 2 4.44089e-15
      vertex -62.8478 1.23463 4.40709e-15
      vertex -62.9616 1.60982 4.43236e-15
    endloop
  endfacet
  facet normal -2.22044e-16 -6.0465e-22 -1
    outer loop
      vertex -62.4142 39.4142 4.31082e-15
      vertex -63 38 4.44089e-15
      vertex -62.6629 39.1111 4.36605e-15
    endloop
  endfacet
  facet normal -2.22048e-16 7.25985e-22 -1
    outer loop
      vertex -62.6629 39.1111 4.36605e-15
      vertex -63 38 4.44089e-15
      vertex -62.8478 38.7654 4.40709e-15
    endloop
  endfacet
  facet normal -2.22045e-16 0 -1
    outer loop
      vertex -62.8478 38.7654 4.40709e-15
      vertex -63 38 4.44089e-15
      vertex -62.9616 38.3902 4.43236e-15
    endloop
  endfacet
  facet normal 1 -0 0
    outer loop
      vertex -23 2 1
      vertex -23 38 9.53674e-07
      vertex -23 38 1
    endloop
  endfacet
  facet normal 1 0 0
    outer loop
      vertex -23 38 9.53674e-07
      vertex -23 2 1
      vertex -23 2 9.53674e-07
    endloop
  endfacet
  facet normal 0.77301 -0.634394 0
    outer loop
      vertex -23.5858 0.585787 1
      vertex -23.3371 0.88886 9.53674e-07
      vertex -23.3371 0.88886 1
    endloop
  endfacet
  facet normal 0.77301 -0.634394 0
    outer loop
      vertex -23.3371 0.88886 9.53674e-07
      vertex -23.5858 0.585787 1
      vertex -23.5858 0.585787 9.53674e-07
    endloop
  endfacet
  facet normal 0.95694 -0.290285 0
    outer loop
      vertex -23.1522 1.23463 1
      vertex -23.0384 1.60982 9.53674e-07
      vertex -23.0384 1.60982 1
    endloop
  endfacet
  facet normal 0.95694 -0.290285 0
    outer loop
      vertex -23.0384 1.60982 9.53674e-07
      vertex -23.1522 1.23463 1
      vertex -23.1522 1.23463 9.53674e-07
    endloop
  endfacet
  facet normal -2.6491e-08 -2.6896e-07 1
    outer loop
      vertex -61.3902 0.0384302 0.999999
      vertex -61 0 0.999999
      vertex -25 0 1
    endloop
  endfacet
  facet normal 2.59854e-08 -3.16631e-08 -1
    outer loop
      vertex -23.8889 0.337061 9.53674e-07
      vertex -61 0 3.9968e-15
      vertex -23.5858 0.585787 9.53674e-07
    endloop
  endfacet
  facet normal -0.995185 -0.0980167 0
    outer loop
      vertex -62.9616 1.60982 4.43236e-15
      vertex -63 2 0.999999
      vertex -63 2 4.44089e-15
    endloop
  endfacet
  facet normal -0.995185 -0.0980167 0
    outer loop
      vertex -63 2 0.999999
      vertex -62.9616 1.60982 4.43236e-15
      vertex -62.9616 1.60982 0.999999
    endloop
  endfacet
  facet normal 0 -1 0
    outer loop
      vertex -61 0 0.999999
      vertex -25 0 9.53674e-07
      vertex -25 0 1
    endloop
  endfacet
  facet normal -0 -1 0
    outer loop
      vertex -25 0 9.53674e-07
      vertex -61 0 0.999999
      vertex -61 0 3.9968e-15
    endloop
  endfacet
  facet normal -0.77301 -0.634394 2.9488e-06
    outer loop
      vertex -62.4142 0.585787 4.31082e-15
      vertex -62.6629 0.88886 0.999999
      vertex -62.6629 0.88886 4.36605e-15
    endloop
  endfacet
  facet normal -0.77301 -0.634394 2.9488e-06
    outer loop
      vertex -62.6629 0.88886 0.999999
      vertex -62.4142 0.585787 4.31082e-15
      vertex -62.4142 0.585787 0.999999
    endloop
  endfacet
  facet normal 2.59854e-08 3.16631e-08 -1
    outer loop
      vertex -23.5858 39.4142 9.53674e-07
      vertex -61 40 3.9968e-15
      vertex -23.8889 39.6629 9.53674e-07
    endloop
  endfacet
  facet normal 0.471394 0.881923 -0
    outer loop
      vertex -23.8889 39.6629 9.53674e-07
      vertex -24.2346 39.8478 1
      vertex -23.8889 39.6629 1
    endloop
  endfacet
  facet normal 0.471394 0.881923 0
    outer loop
      vertex -24.2346 39.8478 1
      vertex -23.8889 39.6629 9.53674e-07
      vertex -24.2346 39.8478 9.53674e-07
    endloop
  endfacet
  facet normal -2.6491e-08 2.68967e-07 1
    outer loop
      vertex -61 40 0.999999
      vertex -61.3902 39.9616 0.999999
      vertex -25 40 1
    endloop
  endfacet
  facet normal 2.6142e-08 -4.89084e-08 -1
    outer loop
      vertex -24.2346 0.152242 9.53674e-07
      vertex -61 0 3.9968e-15
      vertex -23.8889 0.337061 9.53674e-07
    endloop
  endfacet
  facet normal 0 0 1
    outer loop
      vertex -25 40 1
      vertex -23 38 1
      vertex -23.0384 38.3902 1
    endloop
  endfacet
  facet normal 0 0 1
    outer loop
      vertex -23 38 1
      vertex -25 40 1
      vertex -23 2 1
    endloop
  endfacet
  facet normal 0 0 1
    outer loop
      vertex -25 40 1
      vertex -23.0384 38.3902 1
      vertex -23.1522 38.7654 1
    endloop
  endfacet
  facet normal 0 0 1
    outer loop
      vertex -25 0 1
      vertex -23 2 1
      vertex -25 40 1
    endloop
  endfacet
  facet normal 0 0 1
    outer loop
      vertex -25 40 1
      vertex -23.1522 38.7654 1
      vertex -23.3371 39.1111 1
    endloop
  endfacet
  facet normal 0 0 1
    outer loop
      vertex -23 2 1
      vertex -25 0 1
      vertex -23.0384 1.60982 1
    endloop
  endfacet
  facet normal 0 0 1
    outer loop
      vertex -25 40 1
      vertex -23.3371 39.1111 1
      vertex -23.5858 39.4142 1
    endloop
  endfacet
  facet normal 0 0 1
    outer loop
      vertex -23.0384 1.60982 1
      vertex -25 0 1
      vertex -23.1522 1.23463 1
    endloop
  endfacet
  facet normal 0 0 1
    outer loop
      vertex -25 40 1
      vertex -23.5858 39.4142 1
      vertex -23.8889 39.6629 1
    endloop
  endfacet
  facet normal 0 0 1
    outer loop
      vertex -23.1522 1.23463 1
      vertex -25 0 1
      vertex -23.3371 0.88886 1
    endloop
  endfacet
  facet normal 0 0 1
    outer loop
      vertex -25 40 1
      vertex -23.8889 39.6629 1
      vertex -24.2346 39.8478 1
    endloop
  endfacet
  facet normal 0 0 1
    outer loop
      vertex -23.3371 0.88886 1
      vertex -25 0 1
      vertex -23.5858 0.585787 1
    endloop
  endfacet
  facet normal 0 0 1
    outer loop
      vertex -25 40 1
      vertex -24.2346 39.8478 1
      vertex -24.6098 39.9616 1
    endloop
  endfacet
  facet normal 0 0 1
    outer loop
      vertex -23.5858 0.585787 1
      vertex -25 0 1
      vertex -23.8889 0.337061 1
    endloop
  endfacet
  facet normal 0 0 1
    outer loop
      vertex -23.8889 0.337061 1
      vertex -25 0 1
      vertex -24.2346 0.152242 1
    endloop
  endfacet
  facet normal 0 0 1
    outer loop
      vertex -24.2346 0.152242 1
      vertex -25 0 1
      vertex -24.6098 0.0384302 1
    endloop
  endfacet
  facet normal -0.95694 0.290287 0
    outer loop
      vertex -62.9616 38.3902 4.43236e-15
      vertex -62.8478 38.7654 0.999999
      vertex -62.8478 38.7654 4.40709e-15
    endloop
  endfacet
  facet normal -0.95694 0.290287 0
    outer loop
      vertex -62.8478 38.7654 0.999999
      vertex -62.9616 38.3902 4.43236e-15
      vertex -62.9616 38.3902 0.999999
    endloop
  endfacet
  facet normal -0.773011 0.634393 2.94881e-06
    outer loop
      vertex -62.6629 39.1111 4.36605e-15
      vertex -62.4142 39.4142 0.999999
      vertex -62.4142 39.4142 4.31082e-15
    endloop
  endfacet
  facet normal -0.773011 0.634393 2.94881e-06
    outer loop
      vertex -62.4142 39.4142 0.999999
      vertex -62.6629 39.1111 4.36605e-15
      vertex -62.6629 39.1111 0.999999
    endloop
  endfacet
  facet normal -0.995185 0.0980162 0
    outer loop
      vertex -63 38 4.44089e-15
      vertex -62.9616 38.3902 0.999999
      vertex -62.9616 38.3902 4.43236e-15
    endloop
  endfacet
  facet normal -0.995185 0.0980162 0
    outer loop
      vertex -62.9616 38.3902 0.999999
      vertex -63 38 4.44089e-15
      vertex -63 38 0.999999
    endloop
  endfacet
  facet normal 0.881922 0.471395 0
    outer loop
      vertex -23.1522 38.7654 1
      vertex -23.3371 39.1111 9.53674e-07
      vertex -23.3371 39.1111 1
    endloop
  endfacet
  facet normal 0.881922 0.471395 0
    outer loop
      vertex -23.3371 39.1111 9.53674e-07
      vertex -23.1522 38.7654 1
      vertex -23.1522 38.7654 9.53674e-07
    endloop
  endfacet
  facet normal 2.52275e-08 2.48467e-09 -1
    outer loop
      vertex -23 38 9.53674e-07
      vertex -61 40 3.9968e-15
      vertex -23.0384 38.3902 9.53674e-07
    endloop
  endfacet
  facet normal 2.58214e-08 -2.11911e-08 -1
    outer loop
      vertex -23.5858 0.585787 9.53674e-07
      vertex -61 0 3.9968e-15
      vertex -23.3371 0.88886 9.53674e-07
    endloop
  endfacet
  facet normal 2.56448e-08 -1.37074e-08 -1
    outer loop
      vertex -23.3371 0.88886 9.53674e-07
      vertex -61 0 3.9968e-15
      vertex -23.1522 1.23463 9.53674e-07
    endloop
  endfacet
  facet normal 0.995185 -0.0980167 0
    outer loop
      vertex -23.0384 1.60982 1
      vertex -23 2 9.53674e-07
      vertex -23 2 1
    endloop
  endfacet
  facet normal 0.995185 -0.0980167 0
    outer loop
      vertex -23 2 9.53674e-07
      vertex -23.0384 1.60982 1
      vertex -23.0384 1.60982 9.53674e-07
    endloop
  endfacet
  facet normal 0.881921 -0.471397 0
    outer loop
      vertex -23.3371 0.88886 1
      vertex -23.1522 1.23463 9.53674e-07
      vertex -23.1522 1.23463 1
    endloop
  endfacet
  facet normal 0.881921 -0.471397 0
    outer loop
      vertex -23.1522 1.23463 9.53674e-07
      vertex -23.3371 0.88886 1
      vertex -23.3371 0.88886 9.53674e-07
    endloop
  endfacet
  facet normal 2.62985e-08 -8.66946e-08 -1
    outer loop
      vertex -24.6098 0.0384302 9.53674e-07
      vertex -61 0 3.9968e-15
      vertex -24.2346 0.152242 9.53674e-07
    endloop
  endfacet
  facet normal -0.95694 -0.290285 0
    outer loop
      vertex -62.8478 1.23463 4.40709e-15
      vertex -62.9616 1.60982 0.999999
      vertex -62.9616 1.60982 4.43236e-15
    endloop
  endfacet
  facet normal -0.95694 -0.290285 0
    outer loop
      vertex -62.9616 1.60982 0.999999
      vertex -62.8478 1.23463 4.40709e-15
      vertex -62.8478 1.23463 0.999999
    endloop
  endfacet
  facet normal -0.471393 -0.881923 0
    outer loop
      vertex -62.1111 0.337061 4.24353e-15
      vertex -61.7654 0.152242 0.999999
      vertex -62.1111 0.337061 0.999999
    endloop
  endfacet
  facet normal -0.471393 -0.881923 -0
    outer loop
      vertex -61.7654 0.152242 0.999999
      vertex -62.1111 0.337061 4.24353e-15
      vertex -61.7654 0.152242 4.16675e-15
    endloop
  endfacet
  facet normal 0.95694 0.290287 0
    outer loop
      vertex -23.0384 38.3902 1
      vertex -23.1522 38.7654 9.53674e-07
      vertex -23.1522 38.7654 1
    endloop
  endfacet
  facet normal 0.95694 0.290287 0
    outer loop
      vertex -23.1522 38.7654 9.53674e-07
      vertex -23.0384 38.3902 1
      vertex -23.0384 38.3902 9.53674e-07
    endloop
  endfacet
  facet normal 0.290284 0.95694 -0
    outer loop
      vertex -24.2346 39.8478 9.53674e-07
      vertex -24.6098 39.9616 1
      vertex -24.2346 39.8478 1
    endloop
  endfacet
  facet normal 0.290284 0.95694 0
    outer loop
      vertex -24.6098 39.9616 1
      vertex -24.2346 39.8478 9.53674e-07
      vertex -24.6098 39.9616 9.53674e-07
    endloop
  endfacet
  facet normal -2.6142e-08 4.89089e-08 1
    outer loop
      vertex -61.7654 39.8478 0.999999
      vertex -62.1111 39.6629 0.999999
      vertex -25 40 1
    endloop
  endfacet
  facet normal -2.59854e-08 -3.16629e-08 1
    outer loop
      vertex -62.4142 0.585787 0.999999
      vertex -62.1111 0.337061 0.999999
      vertex -25 0 1
    endloop
  endfacet
  facet normal -2.56448e-08 1.37075e-08 1
    outer loop
      vertex -62.6629 39.1111 0.999999
      vertex -62.8478 38.7654 0.999999
      vertex -25 40 1
    endloop
  endfacet
  facet normal -2.52275e-08 2.48467e-09 1
    outer loop
      vertex -62.9616 38.3902 0.999999
      vertex -63 38 0.999999
      vertex -25 40 1
    endloop
  endfacet
  facet normal 0.773011 0.634393 0
    outer loop
      vertex -23.3371 39.1111 1
      vertex -23.5858 39.4142 9.53674e-07
      vertex -23.5858 39.4142 1
    endloop
  endfacet
  facet normal 0.773011 0.634393 0
    outer loop
      vertex -23.5858 39.4142 9.53674e-07
      vertex -23.3371 39.1111 1
      vertex -23.3371 39.1111 9.53674e-07
    endloop
  endfacet
  facet normal 2.54495e-08 7.72008e-09 -1
    outer loop
      vertex -23.0384 38.3902 9.53674e-07
      vertex -61 40 3.9968e-15
      vertex -23.1522 38.7654 9.53674e-07
    endloop
  endfacet
  facet normal 2.56448e-08 1.37074e-08 -1
    outer loop
      vertex -23.1522 38.7654 9.53674e-07
      vertex -61 40 3.9968e-15
      vertex -23.3371 39.1111 9.53674e-07
    endloop
  endfacet
  facet normal 0.0980191 -0.995185 0
    outer loop
      vertex -25 0 9.53674e-07
      vertex -24.6098 0.0384302 1
      vertex -25 0 1
    endloop
  endfacet
  facet normal 0.0980191 -0.995185 0
    outer loop
      vertex -24.6098 0.0384302 1
      vertex -25 0 9.53674e-07
      vertex -24.6098 0.0384302 9.53674e-07
    endloop
  endfacet
  facet normal 0.634395 -0.773009 0
    outer loop
      vertex -23.8889 0.337061 9.53674e-07
      vertex -23.5858 0.585787 1
      vertex -23.8889 0.337061 1
    endloop
  endfacet
  facet normal 0.634395 -0.773009 0
    outer loop
      vertex -23.5858 0.585787 1
      vertex -23.8889 0.337061 9.53674e-07
      vertex -23.5858 0.585787 9.53674e-07
    endloop
  endfacet
  facet normal 0.471395 -0.881922 0
    outer loop
      vertex -24.2346 0.152242 9.53674e-07
      vertex -23.8889 0.337061 1
      vertex -24.2346 0.152242 1
    endloop
  endfacet
  facet normal 0.471395 -0.881922 0
    outer loop
      vertex -23.8889 0.337061 1
      vertex -24.2346 0.152242 9.53674e-07
      vertex -23.8889 0.337061 9.53674e-07
    endloop
  endfacet
  facet normal -0.0980196 -0.995184 3.73915e-07
    outer loop
      vertex -61.3902 0.0384302 4.08344e-15
      vertex -61 0 0.999999
      vertex -61.3902 0.0384302 0.999999
    endloop
  endfacet
  facet normal -0.0980186 -0.995185 -0
    outer loop
      vertex -61 0 0.999999
      vertex -61.3902 0.0384302 4.08344e-15
      vertex -61 0 3.9968e-15
    endloop
  endfacet
  facet normal 2.6142e-08 4.89087e-08 -1
    outer loop
      vertex -23.8889 39.6629 9.53674e-07
      vertex -61 40 3.9968e-15
      vertex -24.2346 39.8478 9.53674e-07
    endloop
  endfacet
  facet normal 2.62985e-08 8.66946e-08 -1
    outer loop
      vertex -24.2346 39.8478 9.53674e-07
      vertex -61 40 3.9968e-15
      vertex -24.6098 39.9616 9.53674e-07
    endloop
  endfacet
  facet normal 0.0980167 0.995185 -0
    outer loop
      vertex -24.6098 39.9616 9.53674e-07
      vertex -25 40 1
      vertex -24.6098 39.9616 1
    endloop
  endfacet
  facet normal 0.0980167 0.995185 0
    outer loop
      vertex -25 40 1
      vertex -24.6098 39.9616 9.53674e-07
      vertex -25 40 9.53674e-07
    endloop
  endfacet
  facet normal -0.634397 0.773007 2.42004e-06
    outer loop
      vertex -62.1111 39.6629 0.999999
      vertex -62.4142 39.4142 4.31082e-15
      vertex -62.4142 39.4142 0.999999
    endloop
  endfacet
  facet normal -0.634393 0.773011 0
    outer loop
      vertex -62.4142 39.4142 4.31082e-15
      vertex -62.1111 39.6629 0.999999
      vertex -62.1111 39.6629 4.24353e-15
    endloop
  endfacet
  facet normal -2.62985e-08 8.66946e-08 1
    outer loop
      vertex -61.3902 39.9616 0.999999
      vertex -61.7654 39.8478 0.999999
      vertex -25 40 1
    endloop
  endfacet
  facet normal -2.59854e-08 3.16629e-08 1
    outer loop
      vertex -62.1111 39.6629 0.999999
      vertex -62.4142 39.4142 0.999999
      vertex -25 40 1
    endloop
  endfacet
  facet normal -0.290284 -0.95694 0
    outer loop
      vertex -61.7654 0.152242 4.16675e-15
      vertex -61.3902 0.0384302 0.999999
      vertex -61.7654 0.152242 0.999999
    endloop
  endfacet
  facet normal -0.290287 -0.95694 1.10736e-06
    outer loop
      vertex -61.3902 0.0384302 0.999999
      vertex -61.7654 0.152242 4.16675e-15
      vertex -61.3902 0.0384302 4.08344e-15
    endloop
  endfacet
  facet normal -2.62985e-08 -8.66946e-08 1
    outer loop
      vertex -61.7654 0.152242 0.999999
      vertex -61.3902 0.0384302 0.999999
      vertex -25 0 1
    endloop
  endfacet
  facet normal -2.56448e-08 -1.37076e-08 1
    outer loop
      vertex -62.8478 1.23463 0.999999
      vertex -62.6629 0.88886 0.999999
      vertex -25 0 1
    endloop
  endfacet
  facet normal -0.881923 -0.471394 0
    outer loop
      vertex -62.6629 0.88886 4.36605e-15
      vertex -62.8478 1.23463 0.999999
      vertex -62.8478 1.23463 4.40709e-15
    endloop
  endfacet
  facet normal -0.881919 -0.471401 3.36426e-06
    outer loop
      vertex -62.8478 1.23463 0.999999
      vertex -62.6629 0.88886 4.36605e-15
      vertex -62.6629 0.88886 0.999999
    endloop
  endfacet
  facet normal -0.634397 -0.773007 2.42004e-06
    outer loop
      vertex -62.4142 0.585787 4.31082e-15
      vertex -62.1111 0.337061 0.999999
      vertex -62.4142 0.585787 0.999999
    endloop
  endfacet
  facet normal -0.634393 -0.773011 -0
    outer loop
      vertex -62.1111 0.337061 0.999999
      vertex -62.4142 0.585787 4.31082e-15
      vertex -62.1111 0.337061 4.24353e-15
    endloop
  endfacet
  facet normal 0.290284 -0.95694 0
    outer loop
      vertex -24.6098 0.0384302 9.53674e-07
      vertex -24.2346 0.152242 1
      vertex -24.6098 0.0384302 1
    endloop
  endfacet
  facet normal 0.290284 -0.95694 0
    outer loop
      vertex -24.2346 0.152242 1
      vertex -24.6098 0.0384302 9.53674e-07
      vertex -24.2346 0.152242 9.53674e-07
    endloop
  endfacet
  facet normal -0.290284 0.95694 0
    outer loop
      vertex -61.3902 39.9616 0.999999
      vertex -61.7654 39.8478 4.16675e-15
      vertex -61.7654 39.8478 0.999999
    endloop
  endfacet
  facet normal -0.290287 0.95694 1.10736e-06
    outer loop
      vertex -61.7654 39.8478 4.16675e-15
      vertex -61.3902 39.9616 0.999999
      vertex -61.3902 39.9616 4.08344e-15
    endloop
  endfacet
  facet normal -0.0980172 0.995185 3.73906e-07
    outer loop
      vertex -61 40 0.999999
      vertex -61.3902 39.9616 4.08344e-15
      vertex -61.3902 39.9616 0.999999
    endloop
  endfacet
  facet normal -0.0980162 0.995185 0
    outer loop
      vertex -61.3902 39.9616 4.08344e-15
      vertex -61 40 0.999999
      vertex -61 40 3.9968e-15
    endloop
  endfacet
  facet normal -0.471391 0.881924 0
    outer loop
      vertex -61.7654 39.8478 0.999999
      vertex -62.1111 39.6629 4.24353e-15
      vertex -62.1111 39.6629 0.999999
    endloop
  endfacet
  facet normal -0.471391 0.881924 0
    outer loop
      vertex -62.1111 39.6629 4.24353e-15
      vertex -61.7654 39.8478 0.999999
      vertex -61.7654 39.8478 4.16675e-15
    endloop
  endfacet
  facet normal -2.6142e-08 -4.89087e-08 1
    outer loop
      vertex -62.1111 0.337061 0.999999
      vertex -61.7654 0.152242 0.999999
      vertex -25 0 1
    endloop
  endfacet
  facet normal -2.54495e-08 -7.72002e-09 1
    outer loop
      vertex -62.9616 1.60982 0.999999
      vertex -62.8478 1.23463 0.999999
      vertex -25 0 1
    endloop
  endfacet
  facet normal -2.58214e-08 -2.11911e-08 1
    outer loop
      vertex -62.6629 0.88886 0.999999
      vertex -62.4142 0.585787 0.999999
      vertex -25 0 1
    endloop
  endfacet
  facet normal -0.980785 -0.19509 0
    outer loop
      vertex -30.6 10.45 7.62939e-07
      vertex -30.6761 10.8327 1
      vertex -30.6761 10.8327 7.61029e-07
    endloop
  endfacet
  facet normal -0.980785 -0.19509 0
    outer loop
      vertex -30.6761 10.8327 1
      vertex -30.6 10.45 7.62939e-07
      vertex -30.6 10.45 1
    endloop
  endfacet
  facet normal 0.980786 0.195085 0
    outer loop
      vertex -33.7239 7.56732 1
      vertex -33.8 7.95 6.8263e-07
      vertex -33.8 7.95 1
    endloop
  endfacet
  facet normal 0.980786 0.195085 0
    outer loop
      vertex -33.8 7.95 6.8263e-07
      vertex -33.7239 7.56732 1
      vertex -33.7239 7.56732 6.8454e-07
    endloop
  endfacet
  facet normal -1 0 0
    outer loop
      vertex -30.6 7.95 7.62939e-07
      vertex -30.6 10.45 1
      vertex -30.6 10.45 7.62939e-07
    endloop
  endfacet
  facet normal -1 -0 0
    outer loop
      vertex -30.6 10.45 1
      vertex -30.6 7.95 7.62939e-07
      vertex -30.6 7.95 1
    endloop
  endfacet
  facet normal -0.55557 0.83147 0
    outer loop
      vertex -30.8929 7.24289 7.55589e-07
      vertex -31.2173 7.02612 1
      vertex -30.8929 7.24289 1
    endloop
  endfacet
  facet normal -0.55557 0.83147 0
    outer loop
      vertex -31.2173 7.02612 1
      vertex -30.8929 7.24289 7.55589e-07
      vertex -31.2173 7.02612 7.47447e-07
    endloop
  endfacet
  facet normal -0.555571 -0.831469 0
    outer loop
      vertex -31.2173 11.3739 1
      vertex -30.8929 11.1571 7.55589e-07
      vertex -30.8929 11.1571 1
    endloop
  endfacet
  facet normal -0.555571 -0.831469 0
    outer loop
      vertex -30.8929 11.1571 7.55589e-07
      vertex -31.2173 11.3739 1
      vertex -31.2173 11.3739 7.47447e-07
    endloop
  endfacet
  facet normal -0.831471 -0.555569 0
    outer loop
      vertex -30.6761 10.8327 7.61029e-07
      vertex -30.8929 11.1571 1
      vertex -30.8929 11.1571 7.55589e-07
    endloop
  endfacet
  facet normal -0.831471 -0.555569 0
    outer loop
      vertex -30.8929 11.1571 1
      vertex -30.6761 10.8327 7.61029e-07
      vertex -30.6761 10.8327 1
    endloop
  endfacet
  facet normal 0.980786 -0.195086 0
    outer loop
      vertex -33.8 10.45 1
      vertex -33.7239 10.8327 6.8454e-07
      vertex -33.7239 10.8327 1
    endloop
  endfacet
  facet normal 0.980786 -0.195086 0
    outer loop
      vertex -33.7239 10.8327 6.8454e-07
      vertex -33.8 10.45 1
      vertex -33.8 10.45 6.8263e-07
    endloop
  endfacet
  facet normal 1 -0 0
    outer loop
      vertex -33.8 7.95 1
      vertex -33.8 10.45 6.8263e-07
      vertex -33.8 10.45 1
    endloop
  endfacet
  facet normal 1 0 0
    outer loop
      vertex -33.8 10.45 6.8263e-07
      vertex -33.8 7.95 1
      vertex -33.8 7.95 6.8263e-07
    endloop
  endfacet
  facet normal 0.831468 -0.555572 0
    outer loop
      vertex -33.7239 10.8327 1
      vertex -33.5071 11.1571 6.89981e-07
      vertex -33.5071 11.1571 1
    endloop
  endfacet
  facet normal 0.831468 -0.555572 0
    outer loop
      vertex -33.5071 11.1571 6.89981e-07
      vertex -33.7239 10.8327 1
      vertex -33.7239 10.8327 6.8454e-07
    endloop
  endfacet
  facet normal -0.831471 0.555569 0
    outer loop
      vertex -30.8929 7.24289 7.55589e-07
      vertex -30.6761 7.56732 1
      vertex -30.6761 7.56732 7.61029e-07
    endloop
  endfacet
  facet normal -0.831471 0.555569 0
    outer loop
      vertex -30.6761 7.56732 1
      vertex -30.8929 7.24289 7.55589e-07
      vertex -30.8929 7.24289 1
    endloop
  endfacet
  facet normal 0.831468 0.555572 0
    outer loop
      vertex -33.5071 7.24289 1
      vertex -33.7239 7.56732 6.8454e-07
      vertex -33.7239 7.56732 1
    endloop
  endfacet
  facet normal 0.831468 0.555572 0
    outer loop
      vertex -33.7239 7.56732 6.8454e-07
      vertex -33.5071 7.24289 1
      vertex -33.5071 7.24289 6.89981e-07
    endloop
  endfacet
  facet normal -0.195089 -0.980785 0
    outer loop
      vertex -31.6 11.45 1
      vertex -31.2173 11.3739 7.47447e-07
      vertex -31.2173 11.3739 1
    endloop
  endfacet
  facet normal -0.195089 -0.980785 0
    outer loop
      vertex -31.2173 11.3739 7.47447e-07
      vertex -31.6 11.45 1
      vertex -31.6 11.45 7.37843e-07
    endloop
  endfacet
  facet normal -0.980785 0.19509 0
    outer loop
      vertex -30.6761 7.56732 7.61029e-07
      vertex -30.6 7.95 1
      vertex -30.6 7.95 7.62939e-07
    endloop
  endfacet
  facet normal -0.980785 0.19509 0
    outer loop
      vertex -30.6 7.95 1
      vertex -30.6761 7.56732 7.61029e-07
      vertex -30.6761 7.56732 1
    endloop
  endfacet
  facet normal 0.555569 -0.83147 0
    outer loop
      vertex -33.5071 11.1571 1
      vertex -33.1827 11.3739 6.98123e-07
      vertex -33.1827 11.3739 1
    endloop
  endfacet
  facet normal 0.555569 -0.83147 0
    outer loop
      vertex -33.1827 11.3739 6.98123e-07
      vertex -33.5071 11.1571 1
      vertex -33.5071 11.1571 6.89981e-07
    endloop
  endfacet
  facet normal 0 -1 0
    outer loop
      vertex -32.8 11.45 1
      vertex -31.6 11.45 7.37843e-07
      vertex -31.6 11.45 1
    endloop
  endfacet
  facet normal -0 -1 0
    outer loop
      vertex -31.6 11.45 7.37843e-07
      vertex -32.8 11.45 1
      vertex -32.8 11.45 7.07727e-07
    endloop
  endfacet
  facet normal -0.195089 0.980785 0
    outer loop
      vertex -31.2173 7.02612 7.47447e-07
      vertex -31.6 6.95 1
      vertex -31.2173 7.02612 1
    endloop
  endfacet
  facet normal -0.195089 0.980785 0
    outer loop
      vertex -31.6 6.95 1
      vertex -31.2173 7.02612 7.47447e-07
      vertex -31.6 6.95 7.37843e-07
    endloop
  endfacet
  facet normal 0 1 -0
    outer loop
      vertex -31.6 6.95 7.37843e-07
      vertex -32.8 6.95 1
      vertex -31.6 6.95 1
    endloop
  endfacet
  facet normal 0 1 0
    outer loop
      vertex -32.8 6.95 1
      vertex -31.6 6.95 7.37843e-07
      vertex -32.8 6.95 7.07727e-07
    endloop
  endfacet
  facet normal 0.555567 0.831472 -0
    outer loop
      vertex -33.1827 7.02612 6.98123e-07
      vertex -33.5071 7.24289 1
      vertex -33.1827 7.02612 1
    endloop
  endfacet
  facet normal 0.555567 0.831472 0
    outer loop
      vertex -33.5071 7.24289 1
      vertex -33.1827 7.02612 6.98123e-07
      vertex -33.5071 7.24289 6.89981e-07
    endloop
  endfacet
  facet normal 0.19509 0.980785 -0
    outer loop
      vertex -32.8 6.95 7.07727e-07
      vertex -33.1827 7.02612 1
      vertex -32.8 6.95 1
    endloop
  endfacet
  facet normal 0.19509 0.980785 0
    outer loop
      vertex -33.1827 7.02612 1
      vertex -32.8 6.95 7.07727e-07
      vertex -33.1827 7.02612 6.98123e-07
    endloop
  endfacet
  facet normal 0.19509 -0.980785 0
    outer loop
      vertex -33.1827 11.3739 1
      vertex -32.8 11.45 7.07727e-07
      vertex -32.8 11.45 1
    endloop
  endfacet
  facet normal 0.19509 -0.980785 0
    outer loop
      vertex -32.8 11.45 7.07727e-07
      vertex -33.1827 11.3739 1
      vertex -33.1827 11.3739 6.98123e-07
    endloop
  endfacet
endsolid OpenSCAD_Model
