solid OpenSCAD_Model
  facet normal 0.995185 0.0980167 0
    outer loop
      vertex 19.4 17.4 3.9
      vertex 19.3616 17.7902 2
      vertex 19.3616 17.7902 3.9
    endloop
  endfacet
  facet normal 0.995185 0.0980167 0
    outer loop
      vertex 19.3616 17.7902 2
      vertex 19.4 17.4 3.9
      vertex 19.4 17.4 2
    endloop
  endfacet
  facet normal -1 0 0
    outer loop
      vertex -19.4 -17.4 2
      vertex -19.4 17.4 3.9
      vertex -19.4 17.4 2
    endloop
  endfacet
  facet normal -1 -0 0
    outer loop
      vertex -19.4 17.4 3.9
      vertex -19.4 -17.4 2
      vertex -19.4 -17.4 3.9
    endloop
  endfacet
  facet normal -0.0980167 0.995185 0
    outer loop
      vertex -17.4 19.4 2
      vertex -17.7902 19.3616 3.9
      vertex -17.4 19.4 3.9
    endloop
  endfacet
  facet normal -0.0980167 0.995185 0
    outer loop
      vertex -17.7902 19.3616 3.9
      vertex -17.4 19.4 2
      vertex -17.7902 19.3616 2
    endloop
  endfacet
  facet normal -0.88192 0.471399 0
    outer loop
      vertex -19.2478 18.1654 2
      vertex -19.0629 18.5111 3.9
      vertex -19.0629 18.5111 2
    endloop
  endfacet
  facet normal -0.88192 0.471399 0
    outer loop
      vertex -19.0629 18.5111 3.9
      vertex -19.2478 18.1654 2
      vertex -19.2478 18.1654 3.9
    endloop
  endfacet
  facet normal -2.66885e-08 2.19027e-08 1
    outer loop
      vertex -18.8142 18.8142 3.9
      vertex -19.0629 18.5111 3.9
      vertex 17.4 19.4 3.9
    endloop
  endfacet
  facet normal -0.95694 -0.290284 0
    outer loop
      vertex -19.2478 -18.1654 2
      vertex -19.3616 -17.7902 3.9
      vertex -19.3616 -17.7902 2
    endloop
  endfacet
  facet normal -0.95694 -0.290284 0
    outer loop
      vertex -19.3616 -17.7902 3.9
      vertex -19.2478 -18.1654 2
      vertex -19.2478 -18.1654 3.9
    endloop
  endfacet
  facet normal 0 1 0
    outer loop
      vertex -13 19.4 2
      vertex 17.4 19.4 3.9
      vertex 17.4 19.4 2
    endloop
  endfacet
  facet normal 0 1 0
    outer loop
      vertex 17.4 19.4 3.9
      vertex -13 19.4 2
      vertex -17.4 19.4 3.9
    endloop
  endfacet
  facet normal 0 1 0
    outer loop
      vertex -17.4 19.4 3.9
      vertex -13 19.4 2
      vertex -17.4 19.4 2
    endloop
  endfacet
  facet normal 0 0 1
    outer loop
      vertex 17.4 19.4 3.9
      vertex 17.3616 15.7902 3.9
      vertex 17.4 15.4 3.9
    endloop
  endfacet
  facet normal 0 0 1
    outer loop
      vertex 17.4 19.4 3.9
      vertex 17.2478 16.1654 3.9
      vertex 17.3616 15.7902 3.9
    endloop
  endfacet
  facet normal 0 0 1
    outer loop
      vertex 17.4 19.4 3.9
      vertex 17.0629 16.5111 3.9
      vertex 17.2478 16.1654 3.9
    endloop
  endfacet
  facet normal 0 0 1
    outer loop
      vertex 17.4 19.4 3.9
      vertex 16.8142 16.8142 3.9
      vertex 17.0629 16.5111 3.9
    endloop
  endfacet
  facet normal 0 0 1
    outer loop
      vertex 17.4 19.4 3.9
      vertex 16.5111 17.0629 3.9
      vertex 16.8142 16.8142 3.9
    endloop
  endfacet
  facet normal -5.73032e-07 2.17943e-07 1
    outer loop
      vertex 17.4 19.4 3.9
      vertex 16.1654 17.2478 3.9
      vertex 16.5111 17.0629 3.9
    endloop
  endfacet
  facet normal -2.86229e-08 -9.43574e-08 1
    outer loop
      vertex 17.4 19.4 3.9
      vertex 15.7902 17.3616 3.9
      vertex 16.1654 17.2478 3.9
    endloop
  endfacet
  facet normal -1.06883e-08 -1.08521e-07 1
    outer loop
      vertex 17.4 19.4 3.9
      vertex 15.4 17.4 3.9
      vertex 15.7902 17.3616 3.9
    endloop
  endfacet
  facet normal -2.32226e-08 -9.59867e-08 1
    outer loop
      vertex 17.4 19.4 3.9
      vertex -15.4 17.4 3.9
      vertex 15.4 17.4 3.9
    endloop
  endfacet
  facet normal 0 0 1
    outer loop
      vertex -17.4 15.4 3.9
      vertex -19.4 17.4 3.9
      vertex -17.4 -15.4 3.9
    endloop
  endfacet
  facet normal 0 0 1
    outer loop
      vertex -17.3616 15.7902 3.9
      vertex -19.4 17.4 3.9
      vertex -17.4 15.4 3.9
    endloop
  endfacet
  facet normal 0 0 1
    outer loop
      vertex -17.2478 16.1654 3.9
      vertex -19.4 17.4 3.9
      vertex -17.3616 15.7902 3.9
    endloop
  endfacet
  facet normal 0 0 1
    outer loop
      vertex -17.0629 16.5111 3.9
      vertex -19.4 17.4 3.9
      vertex -17.2478 16.1654 3.9
    endloop
  endfacet
  facet normal 0 0 1
    outer loop
      vertex -16.8142 16.8142 3.9
      vertex -19.4 17.4 3.9
      vertex -17.0629 16.5111 3.9
    endloop
  endfacet
  facet normal 0 0 1
    outer loop
      vertex -16.5111 17.0629 3.9
      vertex -19.4 17.4 3.9
      vertex -16.8142 16.8142 3.9
    endloop
  endfacet
  facet normal 0 0 1
    outer loop
      vertex -16.1654 17.2478 3.9
      vertex -19.4 17.4 3.9
      vertex -16.5111 17.0629 3.9
    endloop
  endfacet
  facet normal 0 0 1
    outer loop
      vertex -15.7902 17.3616 3.9
      vertex -19.4 17.4 3.9
      vertex -16.1654 17.2478 3.9
    endloop
  endfacet
  facet normal 0 0 1
    outer loop
      vertex -15.4 17.4 3.9
      vertex -19.4 17.4 3.9
      vertex -15.7902 17.3616 3.9
    endloop
  endfacet
  facet normal 0 -4.76837e-07 1
    outer loop
      vertex -19.4 17.4 3.9
      vertex -15.4 17.4 3.9
      vertex 17.4 19.4 3.9
    endloop
  endfacet
  facet normal -0 0 1
    outer loop
      vertex 17.3616 -15.7902 3.9
      vertex 17.4 -19.4 3.9
      vertex 17.4 -15.4 3.9
    endloop
  endfacet
  facet normal -0 0 1
    outer loop
      vertex 17.2478 -16.1654 3.9
      vertex 17.4 -19.4 3.9
      vertex 17.3616 -15.7902 3.9
    endloop
  endfacet
  facet normal -0 0 1
    outer loop
      vertex 17.0629 -16.5111 3.9
      vertex 17.4 -19.4 3.9
      vertex 17.2478 -16.1654 3.9
    endloop
  endfacet
  facet normal -0 0 1
    outer loop
      vertex 16.8142 -16.8142 3.9
      vertex 17.4 -19.4 3.9
      vertex 17.0629 -16.5111 3.9
    endloop
  endfacet
  facet normal -0 0 1
    outer loop
      vertex 16.5111 -17.0629 3.9
      vertex 17.4 -19.4 3.9
      vertex 16.8142 -16.8142 3.9
    endloop
  endfacet
  facet normal -5.73032e-07 -2.17943e-07 1
    outer loop
      vertex 16.1654 -17.2478 3.9
      vertex 17.4 -19.4 3.9
      vertex 16.5111 -17.0629 3.9
    endloop
  endfacet
  facet normal -2.86229e-08 9.43574e-08 1
    outer loop
      vertex 15.7902 -17.3616 3.9
      vertex 17.4 -19.4 3.9
      vertex 16.1654 -17.2478 3.9
    endloop
  endfacet
  facet normal -1.06883e-08 1.08521e-07 1
    outer loop
      vertex 15.4 -17.4 3.9
      vertex 17.4 -19.4 3.9
      vertex 15.7902 -17.3616 3.9
    endloop
  endfacet
  facet normal -2.32226e-08 9.59867e-08 1
    outer loop
      vertex -15.4 -17.4 3.9
      vertex 17.4 -19.4 3.9
      vertex 15.4 -17.4 3.9
    endloop
  endfacet
  facet normal 0 4.76837e-07 1
    outer loop
      vertex -15.4 -17.4 3.9
      vertex -19.4 -17.4 3.9
      vertex 17.4 -19.4 3.9
    endloop
  endfacet
  facet normal 0 0 1
    outer loop
      vertex -15.7902 -17.3616 3.9
      vertex -19.4 -17.4 3.9
      vertex -15.4 -17.4 3.9
    endloop
  endfacet
  facet normal 0 0 1
    outer loop
      vertex -16.1654 -17.2478 3.9
      vertex -19.4 -17.4 3.9
      vertex -15.7902 -17.3616 3.9
    endloop
  endfacet
  facet normal 0 0 1
    outer loop
      vertex -16.5111 -17.0629 3.9
      vertex -19.4 -17.4 3.9
      vertex -16.1654 -17.2478 3.9
    endloop
  endfacet
  facet normal 0 0 1
    outer loop
      vertex -16.8142 -16.8142 3.9
      vertex -19.4 -17.4 3.9
      vertex -16.5111 -17.0629 3.9
    endloop
  endfacet
  facet normal 0 0 1
    outer loop
      vertex -17.0629 -16.5111 3.9
      vertex -19.4 -17.4 3.9
      vertex -16.8142 -16.8142 3.9
    endloop
  endfacet
  facet normal 0 0 1
    outer loop
      vertex -17.2478 -16.1654 3.9
      vertex -19.4 -17.4 3.9
      vertex -17.0629 -16.5111 3.9
    endloop
  endfacet
  facet normal 0 0 1
    outer loop
      vertex -17.3616 -15.7902 3.9
      vertex -19.4 -17.4 3.9
      vertex -17.2478 -16.1654 3.9
    endloop
  endfacet
  facet normal 0 0 1
    outer loop
      vertex -17.4 -15.4 3.9
      vertex -19.4 -17.4 3.9
      vertex -17.3616 -15.7902 3.9
    endloop
  endfacet
  facet normal 0 0 1
    outer loop
      vertex -19.4 -17.4 3.9
      vertex -17.4 -15.4 3.9
      vertex -19.4 17.4 3.9
    endloop
  endfacet
  facet normal -2.62914e-08 7.97539e-09 1
    outer loop
      vertex -19.2478 18.1654 3.9
      vertex -19.3616 17.7902 3.9
      vertex 17.4 19.4 3.9
    endloop
  endfacet
  facet normal 1 -0 0
    outer loop
      vertex 19.4 -17.4 3.9
      vertex 19.4 17.4 2
      vertex 19.4 17.4 3.9
    endloop
  endfacet
  facet normal 1 0 0
    outer loop
      vertex 19.4 17.4 2
      vertex 19.4 -17.4 3.9
      vertex 19.4 -17.4 2
    endloop
  endfacet
  facet normal 0.773017 -0.634386 0
    outer loop
      vertex 19.0629 -18.5111 3.9
      vertex 19 -18.5878 2
      vertex 19.0629 -18.5111 2
    endloop
  endfacet
  facet normal 0.773011 -0.634393 4.7973e-07
    outer loop
      vertex 18.8142 -18.8142 3.9
      vertex 19 -18.5878 2
      vertex 19.0629 -18.5111 3.9
    endloop
  endfacet
  facet normal 0.773009 -0.634395 0
    outer loop
      vertex 19 -18.5878 2
      vertex 18.8142 -18.8142 3.9
      vertex 18.8142 -18.8142 2
    endloop
  endfacet
  facet normal 0.95694 -0.290284 0
    outer loop
      vertex 19.2478 -18.1654 3.9
      vertex 19.3616 -17.7902 2
      vertex 19.3616 -17.7902 3.9
    endloop
  endfacet
  facet normal 0.95694 -0.290284 0
    outer loop
      vertex 19.3616 -17.7902 2
      vertex 19.2478 -18.1654 3.9
      vertex 19.2478 -18.1654 2
    endloop
  endfacet
  facet normal 0 -1 0
    outer loop
      vertex -13 -19.4 2
      vertex 17.4 -19.4 3.9
      vertex -17.4 -19.4 3.9
    endloop
  endfacet
  facet normal 0 -1 -0
    outer loop
      vertex 17.4 -19.4 3.9
      vertex -13 -19.4 2
      vertex 17.4 -19.4 2
    endloop
  endfacet
  facet normal -0 -1 0
    outer loop
      vertex -13 -19.4 2
      vertex -17.4 -19.4 3.9
      vertex -17.4 -19.4 2
    endloop
  endfacet
  facet normal -0.88192 -0.471399 0
    outer loop
      vertex -19.0629 -18.5111 2
      vertex -19.2478 -18.1654 3.9
      vertex -19.2478 -18.1654 2
    endloop
  endfacet
  facet normal -0.88192 -0.471399 0
    outer loop
      vertex -19.2478 -18.1654 3.9
      vertex -19.0629 -18.5111 2
      vertex -19.0629 -18.5111 3.9
    endloop
  endfacet
  facet normal 0.88192 0.471399 0
    outer loop
      vertex 19.2478 18.1654 3.9
      vertex 19.0629 18.5111 2
      vertex 19.0629 18.5111 3.9
    endloop
  endfacet
  facet normal 0.88192 0.471399 0
    outer loop
      vertex 19.0629 18.5111 2
      vertex 19.2478 18.1654 3.9
      vertex 19.2478 18.1654 2
    endloop
  endfacet
  facet normal 0.471399 0.88192 -0
    outer loop
      vertex 18.5111 19.0629 2
      vertex 18.1654 19.2478 3.9
      vertex 18.5111 19.0629 3.9
    endloop
  endfacet
  facet normal 0.471399 0.88192 0
    outer loop
      vertex 18.1654 19.2478 3.9
      vertex 18.5111 19.0629 2
      vertex 18.1654 19.2478 2
    endloop
  endfacet
  facet normal -2.74044e-08 2.78243e-07 1
    outer loop
      vertex -17.4 19.4 3.9
      vertex -17.7902 19.3616 3.9
      vertex 17.4 19.4 3.9
    endloop
  endfacet
  facet normal 0 0 1
    outer loop
      vertex 17.4 15.4 3.9
      vertex 19.4 17.4 3.9
      vertex 19.3616 17.7902 3.9
    endloop
  endfacet
  facet normal 0 0 1
    outer loop
      vertex 19.4 17.4 3.9
      vertex 17.4 15.4 3.9
      vertex 19.4 -17.4 3.9
    endloop
  endfacet
  facet normal 0 0 1
    outer loop
      vertex 17.4 15.4 3.9
      vertex 19.3616 17.7902 3.9
      vertex 19.2478 18.1654 3.9
    endloop
  endfacet
  facet normal -0 0 1
    outer loop
      vertex 17.4 -15.4 3.9
      vertex 19.4 -17.4 3.9
      vertex 17.4 15.4 3.9
    endloop
  endfacet
  facet normal 0 0 1
    outer loop
      vertex 17.4 15.4 3.9
      vertex 19.2478 18.1654 3.9
      vertex 19.0629 18.5111 3.9
    endloop
  endfacet
  facet normal 0 0 1
    outer loop
      vertex 19.4 -17.4 3.9
      vertex 17.4 -15.4 3.9
      vertex 19.3616 -17.7902 3.9
    endloop
  endfacet
  facet normal 0 0 1
    outer loop
      vertex 17.4 15.4 3.9
      vertex 19.0629 18.5111 3.9
      vertex 18.8142 18.8142 3.9
    endloop
  endfacet
  facet normal 0 0 1
    outer loop
      vertex 19.3616 -17.7902 3.9
      vertex 17.4 -15.4 3.9
      vertex 19.2478 -18.1654 3.9
    endloop
  endfacet
  facet normal 0 0 1
    outer loop
      vertex 17.4 15.4 3.9
      vertex 18.8142 18.8142 3.9
      vertex 18.5111 19.0629 3.9
    endloop
  endfacet
  facet normal 0 0 1
    outer loop
      vertex 19.2478 -18.1654 3.9
      vertex 17.4 -15.4 3.9
      vertex 19.0629 -18.5111 3.9
    endloop
  endfacet
  facet normal 0 0 1
    outer loop
      vertex 17.4 15.4 3.9
      vertex 18.5111 19.0629 3.9
      vertex 18.1654 19.2478 3.9
    endloop
  endfacet
  facet normal 0 0 1
    outer loop
      vertex 19.0629 -18.5111 3.9
      vertex 17.4 -15.4 3.9
      vertex 18.8142 -18.8142 3.9
    endloop
  endfacet
  facet normal 0 0 1
    outer loop
      vertex 17.4 15.4 3.9
      vertex 18.1654 19.2478 3.9
      vertex 17.7902 19.3616 3.9
    endloop
  endfacet
  facet normal 0 0 1
    outer loop
      vertex 18.8142 -18.8142 3.9
      vertex 17.4 -15.4 3.9
      vertex 18.5111 -19.0629 3.9
    endloop
  endfacet
  facet normal 0 0 1
    outer loop
      vertex 17.4 15.4 3.9
      vertex 17.7902 19.3616 3.9
      vertex 17.4 19.4 3.9
    endloop
  endfacet
  facet normal 0 0 1
    outer loop
      vertex 18.5111 -19.0629 3.9
      vertex 17.4 -15.4 3.9
      vertex 18.1654 -19.2478 3.9
    endloop
  endfacet
  facet normal 0 0 1
    outer loop
      vertex 18.1654 -19.2478 3.9
      vertex 17.4 -15.4 3.9
      vertex 17.7902 -19.3616 3.9
    endloop
  endfacet
  facet normal 0 0 1
    outer loop
      vertex 17.7902 -19.3616 3.9
      vertex 17.4 -15.4 3.9
      vertex 17.4 -19.4 3.9
    endloop
  endfacet
  facet normal -0.95694 0.290284 0
    outer loop
      vertex -19.3616 17.7902 2
      vertex -19.2478 18.1654 3.9
      vertex -19.2478 18.1654 2
    endloop
  endfacet
  facet normal -0.95694 0.290284 0
    outer loop
      vertex -19.2478 18.1654 3.9
      vertex -19.3616 17.7902 2
      vertex -19.3616 17.7902 3.9
    endloop
  endfacet
  facet normal -0.773011 0.634393 0
    outer loop
      vertex -19.0629 18.5111 2
      vertex -18.8142 18.8142 3.9
      vertex -18.8142 18.8142 2
    endloop
  endfacet
  facet normal -0.773011 0.634393 0
    outer loop
      vertex -18.8142 18.8142 3.9
      vertex -19.0629 18.5111 2
      vertex -19.0629 18.5111 3.9
    endloop
  endfacet
  facet normal -0.995185 0.0980167 0
    outer loop
      vertex -19.4 17.4 2
      vertex -19.3616 17.7902 3.9
      vertex -19.3616 17.7902 2
    endloop
  endfacet
  facet normal -0.995185 0.0980167 0
    outer loop
      vertex -19.3616 17.7902 3.9
      vertex -19.4 17.4 2
      vertex -19.4 17.4 3.9
    endloop
  endfacet
  facet normal 0.995185 -0.0980167 0
    outer loop
      vertex 19.3616 -17.7902 3.9
      vertex 19.4 -17.4 2
      vertex 19.4 -17.4 3.9
    endloop
  endfacet
  facet normal 0.995185 -0.0980167 0
    outer loop
      vertex 19.4 -17.4 2
      vertex 19.3616 -17.7902 3.9
      vertex 19.3616 -17.7902 2
    endloop
  endfacet
  facet normal 0.88192 -0.471399 0
    outer loop
      vertex 19.0629 -18.5111 3.9
      vertex 19.2478 -18.1654 2
      vertex 19.2478 -18.1654 3.9
    endloop
  endfacet
  facet normal 0.88192 -0.471399 0
    outer loop
      vertex 19.2478 -18.1654 2
      vertex 19.0629 -18.5111 3.9
      vertex 19.0629 -18.5111 2
    endloop
  endfacet
  facet normal -2.70312e-08 -5.05717e-08 1
    outer loop
      vertex -18.5111 -19.0629 3.9
      vertex -18.1654 -19.2478 3.9
      vertex 17.4 -19.4 3.9
    endloop
  endfacet
  facet normal 0.95694 0.290284 0
    outer loop
      vertex 19.3616 17.7902 3.9
      vertex 19.2478 18.1654 2
      vertex 19.2478 18.1654 3.9
    endloop
  endfacet
  facet normal 0.95694 0.290284 0
    outer loop
      vertex 19.2478 18.1654 2
      vertex 19.3616 17.7902 3.9
      vertex 19.3616 17.7902 2
    endloop
  endfacet
  facet normal 0.290284 0.95694 -0
    outer loop
      vertex 18.1654 19.2478 2
      vertex 17.7902 19.3616 3.9
      vertex 18.1654 19.2478 3.9
    endloop
  endfacet
  facet normal 0.290284 0.95694 0
    outer loop
      vertex 17.7902 19.3616 3.9
      vertex 18.1654 19.2478 2
      vertex 17.7902 19.3616 2
    endloop
  endfacet
  facet normal -2.68637e-08 -3.27336e-08 1
    outer loop
      vertex -18.8142 -18.8142 3.9
      vertex -18.5111 -19.0629 3.9
      vertex 17.4 -19.4 3.9
    endloop
  endfacet
  facet normal -2.74044e-08 -2.78243e-07 1
    outer loop
      vertex -17.7902 -19.3616 3.9
      vertex -17.4 -19.4 3.9
      vertex 17.4 -19.4 3.9
    endloop
  endfacet
  facet normal -2.64999e-08 1.41646e-08 1
    outer loop
      vertex -19.0629 18.5111 3.9
      vertex -19.2478 18.1654 3.9
      vertex 17.4 19.4 3.9
    endloop
  endfacet
  facet normal -2.60545e-08 2.56614e-09 1
    outer loop
      vertex -19.3616 17.7902 3.9
      vertex -19.4 17.4 3.9
      vertex 17.4 19.4 3.9
    endloop
  endfacet
  facet normal 0.634393 0.773011 -0
    outer loop
      vertex 18.8142 18.8142 2
      vertex 18.5111 19.0629 3.9
      vertex 18.8142 18.8142 3.9
    endloop
  endfacet
  facet normal 0.634393 0.773011 0
    outer loop
      vertex 18.5111 19.0629 3.9
      vertex 18.8142 18.8142 2
      vertex 18.5111 19.0629 2
    endloop
  endfacet
  facet normal 0.773009 0.634395 0
    outer loop
      vertex 18.8142 18.8142 3.9
      vertex 19 18.5878 2
      vertex 18.8142 18.8142 2
    endloop
  endfacet
  facet normal 0.773011 0.634393 4.7973e-07
    outer loop
      vertex 19.0629 18.5111 3.9
      vertex 19 18.5878 2
      vertex 18.8142 18.8142 3.9
    endloop
  endfacet
  facet normal 0.773017 0.634386 0
    outer loop
      vertex 19 18.5878 2
      vertex 19.0629 18.5111 3.9
      vertex 19.0629 18.5111 2
    endloop
  endfacet
  facet normal 0.471399 -0.88192 0
    outer loop
      vertex 18.1654 -19.2478 2
      vertex 18.5111 -19.0629 3.9
      vertex 18.1654 -19.2478 3.9
    endloop
  endfacet
  facet normal 0.471399 -0.88192 0
    outer loop
      vertex 18.5111 -19.0629 3.9
      vertex 18.1654 -19.2478 2
      vertex 18.5111 -19.0629 2
    endloop
  endfacet
  facet normal 0.0980167 -0.995185 0
    outer loop
      vertex 17.4 -19.4 2
      vertex 17.7902 -19.3616 3.9
      vertex 17.4 -19.4 3.9
    endloop
  endfacet
  facet normal 0.0980167 -0.995185 0
    outer loop
      vertex 17.7902 -19.3616 3.9
      vertex 17.4 -19.4 2
      vertex 17.7902 -19.3616 2
    endloop
  endfacet
  facet normal 0.634393 -0.773011 0
    outer loop
      vertex 18.5111 -19.0629 2
      vertex 18.8142 -18.8142 3.9
      vertex 18.5111 -19.0629 3.9
    endloop
  endfacet
  facet normal 0.634393 -0.773011 0
    outer loop
      vertex 18.8142 -18.8142 3.9
      vertex 18.5111 -19.0629 2
      vertex 18.8142 -18.8142 2
    endloop
  endfacet
  facet normal 0.290284 -0.95694 0
    outer loop
      vertex 17.7902 -19.3616 2
      vertex 18.1654 -19.2478 3.9
      vertex 17.7902 -19.3616 3.9
    endloop
  endfacet
  facet normal 0.290284 -0.95694 0
    outer loop
      vertex 18.1654 -19.2478 3.9
      vertex 17.7902 -19.3616 2
      vertex 18.1654 -19.2478 2
    endloop
  endfacet
  facet normal -0.995185 -0.0980167 0
    outer loop
      vertex -19.3616 -17.7902 2
      vertex -19.4 -17.4 3.9
      vertex -19.4 -17.4 2
    endloop
  endfacet
  facet normal -0.995185 -0.0980167 0
    outer loop
      vertex -19.4 -17.4 3.9
      vertex -19.3616 -17.7902 2
      vertex -19.3616 -17.7902 3.9
    endloop
  endfacet
  facet normal -0.0980167 -0.995185 0
    outer loop
      vertex -17.7902 -19.3616 2
      vertex -17.4 -19.4 3.9
      vertex -17.7902 -19.3616 3.9
    endloop
  endfacet
  facet normal -0.0980167 -0.995185 -0
    outer loop
      vertex -17.4 -19.4 3.9
      vertex -17.7902 -19.3616 2
      vertex -17.4 -19.4 2
    endloop
  endfacet
  facet normal 0.0980167 0.995185 -0
    outer loop
      vertex 17.7902 19.3616 2
      vertex 17.4 19.4 3.9
      vertex 17.7902 19.3616 3.9
    endloop
  endfacet
  facet normal 0.0980167 0.995185 0
    outer loop
      vertex 17.4 19.4 3.9
      vertex 17.7902 19.3616 2
      vertex 17.4 19.4 2
    endloop
  endfacet
  facet normal -2.71985e-08 8.96611e-08 1
    outer loop
      vertex -17.7902 19.3616 3.9
      vertex -18.1654 19.2478 3.9
      vertex 17.4 19.4 3.9
    endloop
  endfacet
  facet normal -2.68637e-08 3.27336e-08 1
    outer loop
      vertex -18.5111 19.0629 3.9
      vertex -18.8142 18.8142 3.9
      vertex 17.4 19.4 3.9
    endloop
  endfacet
  facet normal -0.290286 0.95694 0
    outer loop
      vertex -17.7902 19.3616 2
      vertex -18.1654 19.2478 3.9
      vertex -17.7902 19.3616 3.9
    endloop
  endfacet
  facet normal -0.290286 0.95694 0
    outer loop
      vertex -18.1654 19.2478 3.9
      vertex -17.7902 19.3616 2
      vertex -18.1654 19.2478 2
    endloop
  endfacet
  facet normal -2.70312e-08 5.05717e-08 1
    outer loop
      vertex -18.1654 19.2478 3.9
      vertex -18.5111 19.0629 3.9
      vertex 17.4 19.4 3.9
    endloop
  endfacet
  facet normal -0.634393 -0.773011 0
    outer loop
      vertex -18.8142 -18.8142 2
      vertex -18.5111 -19.0629 3.9
      vertex -18.8142 -18.8142 3.9
    endloop
  endfacet
  facet normal -0.634393 -0.773011 -0
    outer loop
      vertex -18.5111 -19.0629 3.9
      vertex -18.8142 -18.8142 2
      vertex -18.5111 -19.0629 2
    endloop
  endfacet
  facet normal -2.62914e-08 -7.97539e-09 1
    outer loop
      vertex -19.3616 -17.7902 3.9
      vertex -19.2478 -18.1654 3.9
      vertex 17.4 -19.4 3.9
    endloop
  endfacet
  facet normal -0.773011 -0.634393 0
    outer loop
      vertex -18.8142 -18.8142 2
      vertex -19.0629 -18.5111 3.9
      vertex -19.0629 -18.5111 2
    endloop
  endfacet
  facet normal -0.773011 -0.634393 0
    outer loop
      vertex -19.0629 -18.5111 3.9
      vertex -18.8142 -18.8142 2
      vertex -18.8142 -18.8142 3.9
    endloop
  endfacet
  facet normal -0.471397 -0.881921 5.54016e-07
    outer loop
      vertex -18.5111 -19.0629 3.9
      vertex -18.3842 -19.1308 2
      vertex -18.1654 -19.2478 3.9
    endloop
  endfacet
  facet normal -0.471404 -0.881918 0
    outer loop
      vertex -18.3842 -19.1308 2
      vertex -18.5111 -19.0629 3.9
      vertex -18.5111 -19.0629 2
    endloop
  endfacet
  facet normal -0.471394 -0.881923 -0
    outer loop
      vertex -18.1654 -19.2478 3.9
      vertex -18.3842 -19.1308 2
      vertex -18.1654 -19.2478 2
    endloop
  endfacet
  facet normal -0.634393 0.773011 0
    outer loop
      vertex -18.5111 19.0629 2
      vertex -18.8142 18.8142 3.9
      vertex -18.5111 19.0629 3.9
    endloop
  endfacet
  facet normal -0.634393 0.773011 0
    outer loop
      vertex -18.8142 18.8142 3.9
      vertex -18.5111 19.0629 2
      vertex -18.8142 18.8142 2
    endloop
  endfacet
  facet normal -0.471394 0.881923 0
    outer loop
      vertex -18.3842 19.1308 2
      vertex -18.1654 19.2478 3.9
      vertex -18.1654 19.2478 2
    endloop
  endfacet
  facet normal -0.471397 0.881921 5.54016e-07
    outer loop
      vertex -18.1654 19.2478 3.9
      vertex -18.3842 19.1308 2
      vertex -18.5111 19.0629 3.9
    endloop
  endfacet
  facet normal -0.471404 0.881918 0
    outer loop
      vertex -18.5111 19.0629 3.9
      vertex -18.3842 19.1308 2
      vertex -18.5111 19.0629 2
    endloop
  endfacet
  facet normal -2.71985e-08 -8.96611e-08 1
    outer loop
      vertex -18.1654 -19.2478 3.9
      vertex -17.7902 -19.3616 3.9
      vertex 17.4 -19.4 3.9
    endloop
  endfacet
  facet normal -0.290286 -0.95694 0
    outer loop
      vertex -18.1654 -19.2478 2
      vertex -17.7902 -19.3616 3.9
      vertex -18.1654 -19.2478 3.9
    endloop
  endfacet
  facet normal -0.290286 -0.95694 -0
    outer loop
      vertex -17.7902 -19.3616 3.9
      vertex -18.1654 -19.2478 2
      vertex -17.7902 -19.3616 2
    endloop
  endfacet
  facet normal -2.60545e-08 -2.56614e-09 1
    outer loop
      vertex -19.4 -17.4 3.9
      vertex -19.3616 -17.7902 3.9
      vertex 17.4 -19.4 3.9
    endloop
  endfacet
  facet normal -2.66885e-08 -2.19027e-08 1
    outer loop
      vertex -19.0629 -18.5111 3.9
      vertex -18.8142 -18.8142 3.9
      vertex 17.4 -19.4 3.9
    endloop
  endfacet
  facet normal -2.64999e-08 -1.41646e-08 1
    outer loop
      vertex -19.2478 -18.1654 3.9
      vertex -19.0629 -18.5111 3.9
      vertex 17.4 -19.4 3.9
    endloop
  endfacet
  facet normal -0.995185 -0.0980167 0
    outer loop
      vertex 17.4 15.4 2
      vertex 17.3616 15.7902 3.9
      vertex 17.3616 15.7902 2
    endloop
  endfacet
  facet normal -0.995185 -0.0980167 0
    outer loop
      vertex 17.3616 15.7902 3.9
      vertex 17.4 15.4 2
      vertex 17.4 15.4 3.9
    endloop
  endfacet
  facet normal 1 -0 0
    outer loop
      vertex -17.4 -15.4 3.9
      vertex -17.4 15.4 2
      vertex -17.4 15.4 3.9
    endloop
  endfacet
  facet normal 1 0 0
    outer loop
      vertex -17.4 15.4 2
      vertex -17.4 -15.4 3.9
      vertex -17.4 -15.4 2
    endloop
  endfacet
  facet normal 0 -1 0
    outer loop
      vertex -15.4 17.4 3.9
      vertex 15.4 17.4 2
      vertex 15.4 17.4 3.9
    endloop
  endfacet
  facet normal -0 -1 0
    outer loop
      vertex 15.4 17.4 2
      vertex -15.4 17.4 3.9
      vertex -15.4 17.4 2
    endloop
  endfacet
  facet normal 0.88192 -0.471399 0
    outer loop
      vertex -17.2478 16.1654 3.9
      vertex -17.0629 16.5111 2
      vertex -17.0629 16.5111 3.9
    endloop
  endfacet
  facet normal 0.88192 -0.471399 0
    outer loop
      vertex -17.0629 16.5111 2
      vertex -17.2478 16.1654 3.9
      vertex -17.2478 16.1654 2
    endloop
  endfacet
  facet normal -1 0 0
    outer loop
      vertex 17.4 -15.4 2
      vertex 17.4 15.4 3.9
      vertex 17.4 15.4 2
    endloop
  endfacet
  facet normal -1 -0 0
    outer loop
      vertex 17.4 15.4 3.9
      vertex 17.4 -15.4 2
      vertex 17.4 -15.4 3.9
    endloop
  endfacet
  facet normal -0.95694 0.290284 0
    outer loop
      vertex 17.2478 -16.1654 2
      vertex 17.3616 -15.7902 3.9
      vertex 17.3616 -15.7902 2
    endloop
  endfacet
  facet normal -0.95694 0.290284 0
    outer loop
      vertex 17.3616 -15.7902 3.9
      vertex 17.2478 -16.1654 2
      vertex 17.2478 -16.1654 3.9
    endloop
  endfacet
  facet normal 0.773011 0.634393 0
    outer loop
      vertex -16.8142 -16.8142 3.9
      vertex -17.0629 -16.5111 2
      vertex -17.0629 -16.5111 3.9
    endloop
  endfacet
  facet normal 0.773011 0.634393 0
    outer loop
      vertex -17.0629 -16.5111 2
      vertex -16.8142 -16.8142 3.9
      vertex -16.8142 -16.8142 2
    endloop
  endfacet
  facet normal 0 1 -0
    outer loop
      vertex 15.4 -17.4 2
      vertex -15.4 -17.4 3.9
      vertex 15.4 -17.4 3.9
    endloop
  endfacet
  facet normal 0 1 0
    outer loop
      vertex -15.4 -17.4 3.9
      vertex 15.4 -17.4 2
      vertex -15.4 -17.4 2
    endloop
  endfacet
  facet normal -0.471399 -0.88192 0
    outer loop
      vertex 16.1654 17.2478 3.9
      vertex 16.5111 17.0629 2
      vertex 16.5111 17.0629 3.9
    endloop
  endfacet
  facet normal -0.471399 -0.88192 0
    outer loop
      vertex 16.5111 17.0629 2
      vertex 16.1654 17.2478 3.9
      vertex 16.1654 17.2478 2
    endloop
  endfacet
  facet normal -0.0980167 -0.995185 0
    outer loop
      vertex 15.4 17.4 2
      vertex 15.7902 17.3616 3.9
      vertex 15.4 17.4 3.9
    endloop
  endfacet
  facet normal -0.0980167 -0.995185 -0
    outer loop
      vertex 15.7902 17.3616 3.9
      vertex 15.4 17.4 2
      vertex 15.7902 17.3616 2
    endloop
  endfacet
  facet normal 0.95694 -0.290284 0
    outer loop
      vertex -17.3616 15.7902 3.9
      vertex -17.2478 16.1654 2
      vertex -17.2478 16.1654 3.9
    endloop
  endfacet
  facet normal 0.95694 -0.290284 0
    outer loop
      vertex -17.2478 16.1654 2
      vertex -17.3616 15.7902 3.9
      vertex -17.3616 15.7902 2
    endloop
  endfacet
  facet normal 0.773011 -0.634393 0
    outer loop
      vertex -17.0629 16.5111 3.9
      vertex -16.8142 16.8142 2
      vertex -16.8142 16.8142 3.9
    endloop
  endfacet
  facet normal 0.773011 -0.634393 0
    outer loop
      vertex -16.8142 16.8142 2
      vertex -17.0629 16.5111 3.9
      vertex -17.0629 16.5111 2
    endloop
  endfacet
  facet normal 0.995185 -0.0980167 0
    outer loop
      vertex -17.4 15.4 3.9
      vertex -17.3616 15.7902 2
      vertex -17.3616 15.7902 3.9
    endloop
  endfacet
  facet normal 0.995185 -0.0980167 0
    outer loop
      vertex -17.3616 15.7902 2
      vertex -17.4 15.4 3.9
      vertex -17.4 15.4 2
    endloop
  endfacet
  facet normal -0.773011 0.634393 0
    outer loop
      vertex 16.8142 -16.8142 2
      vertex 17.0629 -16.5111 3.9
      vertex 17.0629 -16.5111 2
    endloop
  endfacet
  facet normal -0.773011 0.634393 0
    outer loop
      vertex 17.0629 -16.5111 3.9
      vertex 16.8142 -16.8142 2
      vertex 16.8142 -16.8142 3.9
    endloop
  endfacet
  facet normal -0.88192 0.471399 0
    outer loop
      vertex 17.0629 -16.5111 2
      vertex 17.2478 -16.1654 3.9
      vertex 17.2478 -16.1654 2
    endloop
  endfacet
  facet normal -0.88192 0.471399 0
    outer loop
      vertex 17.2478 -16.1654 3.9
      vertex 17.0629 -16.5111 2
      vertex 17.0629 -16.5111 3.9
    endloop
  endfacet
  facet normal -0.471399 0.88192 0
    outer loop
      vertex 16.5111 -17.0629 2
      vertex 16.1654 -17.2478 3.9
      vertex 16.5111 -17.0629 3.9
    endloop
  endfacet
  facet normal -0.471399 0.88192 0
    outer loop
      vertex 16.1654 -17.2478 3.9
      vertex 16.5111 -17.0629 2
      vertex 16.1654 -17.2478 2
    endloop
  endfacet
  facet normal 0.95694 0.290284 0
    outer loop
      vertex -17.2478 -16.1654 3.9
      vertex -17.3616 -15.7902 2
      vertex -17.3616 -15.7902 3.9
    endloop
  endfacet
  facet normal 0.95694 0.290284 0
    outer loop
      vertex -17.3616 -15.7902 2
      vertex -17.2478 -16.1654 3.9
      vertex -17.2478 -16.1654 2
    endloop
  endfacet
  facet normal -0.95694 -0.290284 0
    outer loop
      vertex 17.3616 15.7902 2
      vertex 17.2478 16.1654 3.9
      vertex 17.2478 16.1654 2
    endloop
  endfacet
  facet normal -0.95694 -0.290284 0
    outer loop
      vertex 17.2478 16.1654 3.9
      vertex 17.3616 15.7902 2
      vertex 17.3616 15.7902 3.9
    endloop
  endfacet
  facet normal -0.88192 -0.471399 0
    outer loop
      vertex 17.2478 16.1654 2
      vertex 17.0629 16.5111 3.9
      vertex 17.0629 16.5111 2
    endloop
  endfacet
  facet normal -0.88192 -0.471399 0
    outer loop
      vertex 17.0629 16.5111 3.9
      vertex 17.2478 16.1654 2
      vertex 17.2478 16.1654 3.9
    endloop
  endfacet
  facet normal -0.773011 -0.634393 0
    outer loop
      vertex 17.0629 16.5111 2
      vertex 16.8142 16.8142 3.9
      vertex 16.8142 16.8142 2
    endloop
  endfacet
  facet normal -0.773011 -0.634393 0
    outer loop
      vertex 16.8142 16.8142 3.9
      vertex 17.0629 16.5111 2
      vertex 17.0629 16.5111 3.9
    endloop
  endfacet
  facet normal 0.634393 -0.773011 0
    outer loop
      vertex -16.8142 16.8142 2
      vertex -16.5111 17.0629 3.9
      vertex -16.8142 16.8142 3.9
    endloop
  endfacet
  facet normal 0.634393 -0.773011 0
    outer loop
      vertex -16.5111 17.0629 3.9
      vertex -16.8142 16.8142 2
      vertex -16.5111 17.0629 2
    endloop
  endfacet
  facet normal 0.0980167 -0.995185 0
    outer loop
      vertex -15.7902 17.3616 2
      vertex -15.4 17.4 3.9
      vertex -15.7902 17.3616 3.9
    endloop
  endfacet
  facet normal 0.0980167 -0.995185 0
    outer loop
      vertex -15.4 17.4 3.9
      vertex -15.7902 17.3616 2
      vertex -15.4 17.4 2
    endloop
  endfacet
  facet normal 0.290286 -0.95694 0
    outer loop
      vertex -16.1654 17.2478 2
      vertex -15.7902 17.3616 3.9
      vertex -16.1654 17.2478 3.9
    endloop
  endfacet
  facet normal 0.290286 -0.95694 0
    outer loop
      vertex -15.7902 17.3616 3.9
      vertex -16.1654 17.2478 2
      vertex -15.7902 17.3616 2
    endloop
  endfacet
  facet normal -0.995185 0.0980167 0
    outer loop
      vertex 17.3616 -15.7902 2
      vertex 17.4 -15.4 3.9
      vertex 17.4 -15.4 2
    endloop
  endfacet
  facet normal -0.995185 0.0980167 0
    outer loop
      vertex 17.4 -15.4 3.9
      vertex 17.3616 -15.7902 2
      vertex 17.3616 -15.7902 3.9
    endloop
  endfacet
  facet normal -0.634393 0.773011 0
    outer loop
      vertex 16.8142 -16.8142 2
      vertex 16.5111 -17.0629 3.9
      vertex 16.8142 -16.8142 3.9
    endloop
  endfacet
  facet normal -0.634393 0.773011 0
    outer loop
      vertex 16.5111 -17.0629 3.9
      vertex 16.8142 -16.8142 2
      vertex 16.5111 -17.0629 2
    endloop
  endfacet
  facet normal -0.0980167 0.995185 0
    outer loop
      vertex 15.7902 -17.3616 2
      vertex 15.4 -17.4 3.9
      vertex 15.7902 -17.3616 3.9
    endloop
  endfacet
  facet normal -0.0980167 0.995185 0
    outer loop
      vertex 15.4 -17.4 3.9
      vertex 15.7902 -17.3616 2
      vertex 15.4 -17.4 2
    endloop
  endfacet
  facet normal 0.88192 0.471399 0
    outer loop
      vertex -17.0629 -16.5111 3.9
      vertex -17.2478 -16.1654 2
      vertex -17.2478 -16.1654 3.9
    endloop
  endfacet
  facet normal 0.88192 0.471399 0
    outer loop
      vertex -17.2478 -16.1654 2
      vertex -17.0629 -16.5111 3.9
      vertex -17.0629 -16.5111 2
    endloop
  endfacet
  facet normal 0.995185 0.0980167 0
    outer loop
      vertex -17.3616 -15.7902 3.9
      vertex -17.4 -15.4 2
      vertex -17.4 -15.4 3.9
    endloop
  endfacet
  facet normal 0.995185 0.0980167 0
    outer loop
      vertex -17.4 -15.4 2
      vertex -17.3616 -15.7902 3.9
      vertex -17.3616 -15.7902 2
    endloop
  endfacet
  facet normal 0.471397 0.881921 -0
    outer loop
      vertex -16.1654 -17.2478 2
      vertex -16.5111 -17.0629 3.9
      vertex -16.1654 -17.2478 3.9
    endloop
  endfacet
  facet normal 0.471397 0.881921 0
    outer loop
      vertex -16.5111 -17.0629 3.9
      vertex -16.1654 -17.2478 2
      vertex -16.5111 -17.0629 2
    endloop
  endfacet
  facet normal 0.290286 0.95694 -0
    outer loop
      vertex -15.7902 -17.3616 2
      vertex -16.1654 -17.2478 3.9
      vertex -15.7902 -17.3616 3.9
    endloop
  endfacet
  facet normal 0.290286 0.95694 0
    outer loop
      vertex -16.1654 -17.2478 3.9
      vertex -15.7902 -17.3616 2
      vertex -16.1654 -17.2478 2
    endloop
  endfacet
  facet normal 0.634393 0.773011 -0
    outer loop
      vertex -16.5111 -17.0629 2
      vertex -16.8142 -16.8142 3.9
      vertex -16.5111 -17.0629 3.9
    endloop
  endfacet
  facet normal 0.634393 0.773011 0
    outer loop
      vertex -16.8142 -16.8142 3.9
      vertex -16.5111 -17.0629 2
      vertex -16.8142 -16.8142 2
    endloop
  endfacet
  facet normal 0.0980167 0.995185 -0
    outer loop
      vertex -15.4 -17.4 2
      vertex -15.7902 -17.3616 3.9
      vertex -15.4 -17.4 3.9
    endloop
  endfacet
  facet normal 0.0980167 0.995185 0
    outer loop
      vertex -15.7902 -17.3616 3.9
      vertex -15.4 -17.4 2
      vertex -15.7902 -17.3616 2
    endloop
  endfacet
  facet normal -0.634393 -0.773011 0
    outer loop
      vertex 16.5111 17.0629 2
      vertex 16.8142 16.8142 3.9
      vertex 16.5111 17.0629 3.9
    endloop
  endfacet
  facet normal -0.634393 -0.773011 -0
    outer loop
      vertex 16.8142 16.8142 3.9
      vertex 16.5111 17.0629 2
      vertex 16.8142 16.8142 2
    endloop
  endfacet
  facet normal -0.290284 -0.95694 0
    outer loop
      vertex 15.7902 17.3616 2
      vertex 16.1654 17.2478 3.9
      vertex 15.7902 17.3616 3.9
    endloop
  endfacet
  facet normal -0.290284 -0.95694 -0
    outer loop
      vertex 16.1654 17.2478 3.9
      vertex 15.7902 17.3616 2
      vertex 16.1654 17.2478 2
    endloop
  endfacet
  facet normal 0.471397 -0.881921 0
    outer loop
      vertex -16.5111 17.0629 2
      vertex -16.1654 17.2478 3.9
      vertex -16.5111 17.0629 3.9
    endloop
  endfacet
  facet normal 0.471397 -0.881921 0
    outer loop
      vertex -16.1654 17.2478 3.9
      vertex -16.5111 17.0629 2
      vertex -16.1654 17.2478 2
    endloop
  endfacet
  facet normal -0.290284 0.95694 0
    outer loop
      vertex 16.1654 -17.2478 2
      vertex 15.7902 -17.3616 3.9
      vertex 16.1654 -17.2478 3.9
    endloop
  endfacet
  facet normal -0.290284 0.95694 0
    outer loop
      vertex 15.7902 -17.3616 3.9
      vertex 16.1654 -17.2478 2
      vertex 15.7902 -17.3616 2
    endloop
  endfacet
  facet normal 0.995185 0.0980167 0
    outer loop
      vertex 21 19 2
      vertex 20.9616 19.3902 9.53674e-07
      vertex 20.9616 19.3902 2
    endloop
  endfacet
  facet normal 0.995185 0.0980167 0
    outer loop
      vertex 20.9616 19.3902 9.53674e-07
      vertex 21 19 2
      vertex 21 19 9.53674e-07
    endloop
  endfacet
  facet normal -1 0 0
    outer loop
      vertex -21 -19 4.66294e-15
      vertex -21 19 2
      vertex -21 19 4.66294e-15
    endloop
  endfacet
  facet normal -1 -0 0
    outer loop
      vertex -21 19 2
      vertex -21 -19 4.66294e-15
      vertex -21 -19 2
    endloop
  endfacet
  facet normal -0.881922 0.471395 0
    outer loop
      vertex -20.8478 19.7654 4.62913e-15
      vertex -20.6629 20.1111 2
      vertex -20.6629 20.1111 4.58809e-15
    endloop
  endfacet
  facet normal -0.881924 0.471391 8.41069e-07
    outer loop
      vertex -20.6629 20.1111 2
      vertex -20.8478 19.7654 4.62913e-15
      vertex -20.8478 19.7654 2
    endloop
  endfacet
  facet normal 2.416e-08 -7.32889e-09 -1
    outer loop
      vertex 20.8478 -19.7654 9.53674e-07
      vertex -19 -21 4.21885e-15
      vertex 20.9616 -19.3902 9.53674e-07
    endloop
  endfacet
  facet normal 2.50967e-08 -2.54812e-07 -1
    outer loop
      vertex 19 -21 9.53674e-07
      vertex -19 -21 4.21885e-15
      vertex 19.3902 -20.9616 9.53674e-07
    endloop
  endfacet
  facet normal 2.4495e-08 2.01026e-08 -1
    outer loop
      vertex 20.6629 20.1111 9.53674e-07
      vertex -19 21 4.21885e-15
      vertex 20.4142 20.4142 9.53674e-07
    endloop
  endfacet
  facet normal 0.634395 0.773009 -0
    outer loop
      vertex 20.4142 20.4142 9.53674e-07
      vertex 20.1111 20.6629 2
      vertex 20.4142 20.4142 2
    endloop
  endfacet
  facet normal 0.634395 0.773009 0
    outer loop
      vertex 20.1111 20.6629 2
      vertex 20.4142 20.4142 9.53674e-07
      vertex 20.1111 20.6629 9.53674e-07
    endloop
  endfacet
  facet normal -2.4495e-08 2.01026e-08 1
    outer loop
      vertex -20.4142 20.4142 2
      vertex -20.6629 20.1111 2
      vertex 19 21 2
    endloop
  endfacet
  facet normal 2.50967e-08 2.54812e-07 -1
    outer loop
      vertex 19.3902 20.9616 9.53674e-07
      vertex -19 21 4.21885e-15
      vertex 19 21 9.53674e-07
    endloop
  endfacet
  facet normal -2.70931e-08 -9.48267e-08 1
    outer loop
      vertex -17.4 -19.4 2
      vertex 19 -21 2
      vertex -13 -19.4 2
    endloop
  endfacet
  facet normal -3.41767e-08 -2.5598e-07 1
    outer loop
      vertex -17.4 -19.4 2
      vertex -20.9616 -19.3902 2
      vertex 19 -21 2
    endloop
  endfacet
  facet normal -3.44349e-08 -3.49625e-07 1
    outer loop
      vertex -17.7902 -19.3616 2
      vertex -20.9616 -19.3902 2
      vertex -17.4 -19.4 2
    endloop
  endfacet
  facet normal -3.65034e-08 -1.20335e-07 1
    outer loop
      vertex -18.1654 -19.2478 2
      vertex -20.9616 -19.3902 2
      vertex -17.7902 -19.3616 2
    endloop
  endfacet
  facet normal -3.89235e-08 -7.28213e-08 1
    outer loop
      vertex -18.3842 -19.1308 2
      vertex -20.9616 -19.3902 2
      vertex -18.1654 -19.2478 2
    endloop
  endfacet
  facet normal -4.57983e-08 -4.51094e-09 1
    outer loop
      vertex -20.9616 -19.3902 2
      vertex -18.3842 -19.1308 2
      vertex -21 -19 2
    endloop
  endfacet
  facet normal 2.39598e-08 -2.35983e-09 -1
    outer loop
      vertex 20.9616 -19.3902 9.53674e-07
      vertex -19 -21 4.21885e-15
      vertex 21 -19 9.53674e-07
    endloop
  endfacet
  facet normal 2.38419e-08 0 -1
    outer loop
      vertex 13.1184 -10.208 7.65761e-07
      vertex 21 -19 9.53674e-07
      vertex 13.1184 -13.072 7.65761e-07
    endloop
  endfacet
  facet normal 2.38419e-08 0 -1
    outer loop
      vertex 21 -19 9.53674e-07
      vertex 13.0564 -13.3802 7.64284e-07
      vertex 13.1184 -13.072 7.65761e-07
    endloop
  endfacet
  facet normal 2.38419e-08 2.95403e-14 -1
    outer loop
      vertex 21 -19 9.53674e-07
      vertex 12.8813 -13.6411 7.60108e-07
      vertex 13.0564 -13.3802 7.64284e-07
    endloop
  endfacet
  facet normal 2.38419e-08 3.20469e-14 -1
    outer loop
      vertex 21 -19 9.53674e-07
      vertex 12.6227 -13.8139 7.53943e-07
      vertex 12.8813 -13.6411 7.60108e-07
    endloop
  endfacet
  facet normal 2.38418e-08 -1.48592e-13 -1
    outer loop
      vertex 21 -19 9.53674e-07
      vertex 12.24 -13.89 7.4482e-07
      vertex 12.6227 -13.8139 7.53943e-07
    endloop
  endfacet
  facet normal 2.38419e-08 5.31725e-14 -1
    outer loop
      vertex 21 -19 9.53674e-07
      vertex 11.04 -13.89 7.16209e-07
      vertex 12.24 -13.89 7.4482e-07
    endloop
  endfacet
  facet normal 2.38418e-08 -9.8202e-14 -1
    outer loop
      vertex 21 -19 9.53674e-07
      vertex 10.6573 -13.8139 7.07086e-07
      vertex 11.04 -13.89 7.16209e-07
    endloop
  endfacet
  facet normal 2.38419e-08 0 -1
    outer loop
      vertex 10.04 -12.89 6.92368e-07
      vertex -19 -21 4.21885e-15
      vertex 10.04 -10.39 6.92368e-07
    endloop
  endfacet
  facet normal 2.38419e-08 2.81908e-14 -1
    outer loop
      vertex 10.1161 -13.2727 6.94182e-07
      vertex -19 -21 4.21885e-15
      vertex 10.04 -12.89 6.92368e-07
    endloop
  endfacet
  facet normal 2.38419e-08 -2.98468e-14 -1
    outer loop
      vertex 10.3329 -13.5971 6.99351e-07
      vertex -19 -21 4.21885e-15
      vertex 10.1161 -13.2727 6.94182e-07
    endloop
  endfacet
  facet normal 2.38418e-08 3.83318e-14 -1
    outer loop
      vertex 10.6573 -13.8139 7.07086e-07
      vertex -19 -21 4.21885e-15
      vertex 10.3329 -13.5971 6.99351e-07
    endloop
  endfacet
  facet normal 2.38419e-08 -1.91269e-16 -1
    outer loop
      vertex -19 -21 4.21885e-15
      vertex 10.6573 -13.8139 7.07086e-07
      vertex 21 -19 9.53674e-07
    endloop
  endfacet
  facet normal 2.38419e-08 0 -1
    outer loop
      vertex 13.0564 -9.89984 7.64284e-07
      vertex 21 -19 9.53674e-07
      vertex 13.1184 -10.208 7.65761e-07
    endloop
  endfacet
  facet normal 2.38419e-08 0 -1
    outer loop
      vertex 21 -19 9.53674e-07
      vertex 13.0564 -9.89984 7.64284e-07
      vertex 21 19 9.53674e-07
    endloop
  endfacet
  facet normal 2.38419e-08 -1.2658e-14 -1
    outer loop
      vertex 12.8813 -9.6389 7.60108e-07
      vertex 21 19 9.53674e-07
      vertex 13.0564 -9.89984 7.64284e-07
    endloop
  endfacet
  facet normal 2.38419e-08 -1.01452e-14 -1
    outer loop
      vertex 12.6227 -9.46612 7.53943e-07
      vertex 21 19 9.53674e-07
      vertex 12.8813 -9.6389 7.60108e-07
    endloop
  endfacet
  facet normal 2.38417e-08 3.37916e-14 -1
    outer loop
      vertex 12.24 -9.39 7.4482e-07
      vertex 21 19 9.53674e-07
      vertex 12.6227 -9.46612 7.53943e-07
    endloop
  endfacet
  facet normal 2.38419e-08 -9.57068e-15 -1
    outer loop
      vertex 11.04 -9.39 7.16209e-07
      vertex 21 19 9.53674e-07
      vertex 12.24 -9.39 7.4482e-07
    endloop
  endfacet
  facet normal 2.38418e-08 1.16347e-14 -1
    outer loop
      vertex 10.6573 -9.46612 7.07086e-07
      vertex 21 19 9.53674e-07
      vertex 11.04 -9.39 7.16209e-07
    endloop
  endfacet
  facet normal 2.38418e-08 -2.05848e-14 -1
    outer loop
      vertex -19 21 4.21885e-15
      vertex 10.6573 -9.46612 7.07086e-07
      vertex 10.3329 -9.68289 6.99351e-07
    endloop
  endfacet
  facet normal 2.38419e-08 2.05305e-14 -1
    outer loop
      vertex -19 21 4.21885e-15
      vertex 10.3329 -9.68289 6.99351e-07
      vertex 10.1161 -10.0073 6.94182e-07
    endloop
  endfacet
  facet normal 2.38419e-08 -3.20888e-14 -1
    outer loop
      vertex -19 -21 4.21885e-15
      vertex 10.1161 -10.0073 6.94182e-07
      vertex 10.04 -10.39 6.92368e-07
    endloop
  endfacet
  facet normal 2.38419e-08 0 -1
    outer loop
      vertex -19 21 4.21885e-15
      vertex 10.1161 -10.0073 6.94182e-07
      vertex -19 -21 4.21885e-15
    endloop
  endfacet
  facet normal 2.38419e-08 3.76374e-17 -1
    outer loop
      vertex 10.6573 -9.46612 7.07086e-07
      vertex -19 21 4.21885e-15
      vertex 21 19 9.53674e-07
    endloop
  endfacet
  facet normal 0 1 -0
    outer loop
      vertex 19 21 9.53674e-07
      vertex -19 21 2
      vertex 19 21 2
    endloop
  endfacet
  facet normal 0 1 0
    outer loop
      vertex -19 21 2
      vertex 19 21 9.53674e-07
      vertex -19 21 4.21885e-15
    endloop
  endfacet
  facet normal 0 0 1
    outer loop
      vertex 19 21 2
      vertex 18.8142 18.8142 2
      vertex 19 18.5878 2
    endloop
  endfacet
  facet normal 0 0 1
    outer loop
      vertex 19 21 2
      vertex 18.5111 19.0629 2
      vertex 18.8142 18.8142 2
    endloop
  endfacet
  facet normal 0 0 1
    outer loop
      vertex 19 21 2
      vertex 18.1654 19.2478 2
      vertex 18.5111 19.0629 2
    endloop
  endfacet
  facet normal 0 0 1
    outer loop
      vertex 19 21 2
      vertex 17.7902 19.3616 2
      vertex 18.1654 19.2478 2
    endloop
  endfacet
  facet normal 0 0 1
    outer loop
      vertex 19 21 2
      vertex 17.4 19.4 2
      vertex 17.7902 19.3616 2
    endloop
  endfacet
  facet normal -2.35281e-08 2.35281e-08 1
    outer loop
      vertex 17.4 19.4 2
      vertex 19 21 2
      vertex -13 19.4 2
    endloop
  endfacet
  facet normal 0 0 1
    outer loop
      vertex -19.4 17.4 2
      vertex -21 19 2
      vertex -19.4 -17.4 2
    endloop
  endfacet
  facet normal 0 0 1
    outer loop
      vertex -19.3616 17.7902 2
      vertex -21 19 2
      vertex -19.4 17.4 2
    endloop
  endfacet
  facet normal 0 0 1
    outer loop
      vertex -19.2478 18.1654 2
      vertex -21 19 2
      vertex -19.3616 17.7902 2
    endloop
  endfacet
  facet normal 0 0 1
    outer loop
      vertex -19.0629 18.5111 2
      vertex -21 19 2
      vertex -19.2478 18.1654 2
    endloop
  endfacet
  facet normal 0 0 1
    outer loop
      vertex -18.8142 18.8142 2
      vertex -21 19 2
      vertex -19.0629 18.5111 2
    endloop
  endfacet
  facet normal 0 0 1
    outer loop
      vertex -18.5111 19.0629 2
      vertex -21 19 2
      vertex -18.8142 18.8142 2
    endloop
  endfacet
  facet normal 4.66351e-08 -1.84415e-06 1
    outer loop
      vertex -21 19 2
      vertex -18.5111 19.0629 2
      vertex -18.3842 19.1308 2
    endloop
  endfacet
  facet normal 4.66351e-08 1.84415e-06 1
    outer loop
      vertex -18.5111 -19.0629 2
      vertex -21 -19 2
      vertex -18.3842 -19.1308 2
    endloop
  endfacet
  facet normal 0 0 1
    outer loop
      vertex -18.8142 -18.8142 2
      vertex -21 -19 2
      vertex -18.5111 -19.0629 2
    endloop
  endfacet
  facet normal 0 0 1
    outer loop
      vertex -19.0629 -18.5111 2
      vertex -21 -19 2
      vertex -18.8142 -18.8142 2
    endloop
  endfacet
  facet normal 0 0 1
    outer loop
      vertex -19.2478 -18.1654 2
      vertex -21 -19 2
      vertex -19.0629 -18.5111 2
    endloop
  endfacet
  facet normal 0 0 1
    outer loop
      vertex -19.3616 -17.7902 2
      vertex -21 -19 2
      vertex -19.2478 -18.1654 2
    endloop
  endfacet
  facet normal 0 0 1
    outer loop
      vertex -19.4 -17.4 2
      vertex -21 -19 2
      vertex -19.3616 -17.7902 2
    endloop
  endfacet
  facet normal 0 0 1
    outer loop
      vertex -21 -19 2
      vertex -19.4 -17.4 2
      vertex -21 19 2
    endloop
  endfacet
  facet normal -0 0 1
    outer loop
      vertex 18.8142 -18.8142 2
      vertex 19 -21 2
      vertex 19 -18.5878 2
    endloop
  endfacet
  facet normal -0 0 1
    outer loop
      vertex 18.5111 -19.0629 2
      vertex 19 -21 2
      vertex 18.8142 -18.8142 2
    endloop
  endfacet
  facet normal -0 0 1
    outer loop
      vertex 18.1654 -19.2478 2
      vertex 19 -21 2
      vertex 18.5111 -19.0629 2
    endloop
  endfacet
  facet normal -0 0 1
    outer loop
      vertex 17.7902 -19.3616 2
      vertex 19 -21 2
      vertex 18.1654 -19.2478 2
    endloop
  endfacet
  facet normal -0 0 1
    outer loop
      vertex 17.4 -19.4 2
      vertex 19 -21 2
      vertex 17.7902 -19.3616 2
    endloop
  endfacet
  facet normal -2.35281e-08 -2.35281e-08 1
    outer loop
      vertex 19 -21 2
      vertex 17.4 -19.4 2
      vertex -13 -19.4 2
    endloop
  endfacet
  facet normal -6.61165e-08 -6.51188e-09 1
    outer loop
      vertex 15.4 17.4 2
      vertex 17.4 15.4 2
      vertex 17.3616 15.7902 2
    endloop
  endfacet
  facet normal -2.81411e-08 0 1
    outer loop
      vertex 17.4 15.4 2
      vertex 13.1639 -10.0073 2
      vertex 17.4 -15.4 2
    endloop
  endfacet
  facet normal -8.09165e-08 -2.45457e-08 1
    outer loop
      vertex 15.4 17.4 2
      vertex 17.3616 15.7902 2
      vertex 17.2478 16.1654 2
    endloop
  endfacet
  facet normal -3.76833e-08 -7.49566e-09 1
    outer loop
      vertex 13.24 -10.39 2
      vertex 17.4 -15.4 2
      vertex 13.1639 -10.0073 2
    endloop
  endfacet
  facet normal -1.00359e-07 -5.36433e-08 1
    outer loop
      vertex 15.4 17.4 2
      vertex 17.2478 16.1654 2
      vertex 17.0629 16.5111 2
    endloop
  endfacet
  facet normal -2.86561e-08 0 1
    outer loop
      vertex 13.24 -12.89 2
      vertex 17.4 -15.4 2
      vertex 13.24 -10.39 2
    endloop
  endfacet
  facet normal -1.27705e-07 -1.04805e-07 1
    outer loop
      vertex 15.4 17.4 2
      vertex 17.0629 16.5111 2
      vertex 16.8142 16.8142 2
    endloop
  endfacet
  facet normal -2.55854e-08 5.08924e-09 1
    outer loop
      vertex 13.1639 -13.2727 2
      vertex 17.4 -15.4 2
      vertex 13.24 -12.89 2
    endloop
  endfacet
  facet normal -1.70195e-07 -2.07383e-07 1
    outer loop
      vertex 15.4 17.4 2
      vertex 16.8142 16.8142 2
      vertex 16.5111 17.0629 2
    endloop
  endfacet
  facet normal -2.10708e-08 1.40791e-08 1
    outer loop
      vertex 12.9471 -13.5971 2
      vertex 17.4 -15.4 2
      vertex 13.1639 -13.2727 2
    endloop
  endfacet
  facet normal 2.04341e-07 1.02729e-06 1
    outer loop
      vertex 15.4 17.4 2
      vertex 16.5111 17.0629 2
      vertex 16.1654 17.2478 2
    endloop
  endfacet
  facet normal -3.62337e-08 -2.3371e-08 1
    outer loop
      vertex 15.4 -17.4 2
      vertex 17.4 -15.4 2
      vertex 12.9471 -13.5971 2
    endloop
  endfacet
  facet normal 0 0 1
    outer loop
      vertex 15.4 17.4 2
      vertex 16.1654 17.2478 2
      vertex 15.7902 17.3616 2
    endloop
  endfacet
  facet normal -6.61165e-08 6.51188e-09 1
    outer loop
      vertex 17.4 -15.4 2
      vertex 15.4 -17.4 2
      vertex 17.3616 -15.7902 2
    endloop
  endfacet
  facet normal -5.44328e-08 5.17187e-09 1
    outer loop
      vertex 17.4 15.4 2
      vertex 15.4 17.4 2
      vertex 10.6573 -9.46612 2
    endloop
  endfacet
  facet normal -8.09165e-08 2.45457e-08 1
    outer loop
      vertex 17.3616 -15.7902 2
      vertex 15.4 -17.4 2
      vertex 17.2478 -16.1654 2
    endloop
  endfacet
  facet normal -1.27705e-07 1.04805e-07 1
    outer loop
      vertex 17.0629 -16.5111 2
      vertex 15.4 -17.4 2
      vertex 16.8142 -16.8142 2
    endloop
  endfacet
  facet normal -1.70195e-07 2.07383e-07 1
    outer loop
      vertex 16.8142 -16.8142 2
      vertex 15.4 -17.4 2
      vertex 16.5111 -17.0629 2
    endloop
  endfacet
  facet normal -5.61969e-09 -3.75497e-09 1
    outer loop
      vertex 17.4 15.4 2
      vertex 12.9471 -9.68289 2
      vertex 13.1639 -10.0073 2
    endloop
  endfacet
  facet normal -2.83885e-09 -4.24864e-09 1
    outer loop
      vertex 17.4 15.4 2
      vertex 12.6227 -9.46612 2
      vertex 12.9471 -9.68289 2
    endloop
  endfacet
  facet normal -9.18495e-10 -4.61758e-09 1
    outer loop
      vertex 17.4 15.4 2
      vertex 12.24 -9.39 2
      vertex 12.6227 -9.46612 2
    endloop
  endfacet
  facet normal -9.93411e-08 1.58689e-08 1
    outer loop
      vertex 17.4 15.4 2
      vertex 11.04 -9.39 2
      vertex 12.24 -9.39 2
    endloop
  endfacet
  facet normal 2.01592e-09 -1.01347e-08 1
    outer loop
      vertex 17.4 15.4 2
      vertex 10.6573 -9.46612 2
      vertex 11.04 -9.39 2
    endloop
  endfacet
  facet normal 3.36129e-09 -5.03053e-09 1
    outer loop
      vertex 15.4 17.4 2
      vertex 10.3329 -9.68289 2
      vertex 10.6573 -9.46612 2
    endloop
  endfacet
  facet normal -2.32226e-08 -5.67864e-11 1
    outer loop
      vertex -15.4 17.4 2
      vertex 10.3329 -9.68289 2
      vertex 15.4 17.4 2
    endloop
  endfacet
  facet normal -1.12854e-08 1.12854e-08 1
    outer loop
      vertex -17.4 15.4 2
      vertex 10.3329 -9.68289 2
      vertex -15.4 17.4 2
    endloop
  endfacet
  facet normal -2.16617e-08 0 1
    outer loop
      vertex -17.4 -15.4 2
      vertex 10.1161 -10.0073 2
      vertex -17.4 15.4 2
    endloop
  endfacet
  facet normal -1.33965e-08 8.95124e-09 1
    outer loop
      vertex 10.3329 -9.68289 2
      vertex -17.4 15.4 2
      vertex 10.1161 -10.0073 2
    endloop
  endfacet
  facet normal 2.04341e-07 -1.02729e-06 1
    outer loop
      vertex 16.5111 -17.0629 2
      vertex 15.4 -17.4 2
      vertex 16.1654 -17.2478 2
    endloop
  endfacet
  facet normal 0 0 1
    outer loop
      vertex 16.1654 -17.2478 2
      vertex 15.4 -17.4 2
      vertex 15.7902 -17.3616 2
    endloop
  endfacet
  facet normal -1.00359e-07 5.36433e-08 1
    outer loop
      vertex 17.2478 -16.1654 2
      vertex 15.4 -17.4 2
      vertex 17.0629 -16.5111 2
    endloop
  endfacet
  facet normal -0 0 1
    outer loop
      vertex 12.6227 -13.8139 2
      vertex 15.4 -17.4 2
      vertex 12.9471 -13.5971 2
    endloop
  endfacet
  facet normal -0 0 1
    outer loop
      vertex 12.24 -13.89 2
      vertex 15.4 -17.4 2
      vertex 12.6227 -13.8139 2
    endloop
  endfacet
  facet normal -9.93411e-08 -8.94353e-08 1
    outer loop
      vertex 11.04 -13.89 2
      vertex 15.4 -17.4 2
      vertex 12.24 -13.89 2
    endloop
  endfacet
  facet normal 8.97255e-09 4.51081e-08 1
    outer loop
      vertex 10.6573 -13.8139 2
      vertex 15.4 -17.4 2
      vertex 11.04 -13.89 2
    endloop
  endfacet
  facet normal -1.89677e-08 -2.83871e-08 1
    outer loop
      vertex -15.4 -17.4 2
      vertex 10.6573 -13.8139 2
      vertex 10.3329 -13.5971 2
    endloop
  endfacet
  facet normal -1.81121e-08 -1.81121e-08 1
    outer loop
      vertex -15.4 -17.4 2
      vertex 10.1161 -10.0073 2
      vertex -17.4 -15.4 2
    endloop
  endfacet
  facet normal -2.47881e-08 4.93066e-09 1
    outer loop
      vertex 10.1161 -10.0073 2
      vertex -15.4 -17.4 2
      vertex 10.04 -10.39 2
    endloop
  endfacet
  facet normal -2.32226e-08 2.52973e-09 1
    outer loop
      vertex 10.6573 -13.8139 2
      vertex -15.4 -17.4 2
      vertex 15.4 -17.4 2
    endloop
  endfacet
  facet normal -2.34295e-08 0 1
    outer loop
      vertex 10.04 -10.39 2
      vertex -15.4 -17.4 2
      vertex 10.04 -12.89 2
    endloop
  endfacet
  facet normal 0 0 1
    outer loop
      vertex -17.4 15.4 2
      vertex -15.4 17.4 2
      vertex -15.7902 17.3616 2
    endloop
  endfacet
  facet normal -2.26314e-08 -4.50167e-09 1
    outer loop
      vertex 10.04 -12.89 2
      vertex -15.4 -17.4 2
      vertex 10.1161 -13.2727 2
    endloop
  endfacet
  facet normal 0 0 1
    outer loop
      vertex -17.4 15.4 2
      vertex -15.7902 17.3616 2
      vertex -16.1654 17.2478 2
    endloop
  endfacet
  facet normal -2.10812e-08 -1.4086e-08 1
    outer loop
      vertex 10.1161 -13.2727 2
      vertex -15.4 -17.4 2
      vertex 10.3329 -13.5971 2
    endloop
  endfacet
  facet normal 0 0 1
    outer loop
      vertex -17.4 15.4 2
      vertex -16.1654 17.2478 2
      vertex -16.5111 17.0629 2
    endloop
  endfacet
  facet normal 0 0 1
    outer loop
      vertex -15.4 -17.4 2
      vertex -17.4 -15.4 2
      vertex -15.7902 -17.3616 2
    endloop
  endfacet
  facet normal 0 0 1
    outer loop
      vertex -17.4 15.4 2
      vertex -16.5111 17.0629 2
      vertex -16.8142 16.8142 2
    endloop
  endfacet
  facet normal 0 0 1
    outer loop
      vertex -15.7902 -17.3616 2
      vertex -17.4 -15.4 2
      vertex -16.1654 -17.2478 2
    endloop
  endfacet
  facet normal 0 0 1
    outer loop
      vertex -17.4 15.4 2
      vertex -16.8142 16.8142 2
      vertex -17.0629 16.5111 2
    endloop
  endfacet
  facet normal 0 0 1
    outer loop
      vertex -16.1654 -17.2478 2
      vertex -17.4 -15.4 2
      vertex -16.5111 -17.0629 2
    endloop
  endfacet
  facet normal 0 0 1
    outer loop
      vertex -17.4 15.4 2
      vertex -17.0629 16.5111 2
      vertex -17.2478 16.1654 2
    endloop
  endfacet
  facet normal 0 0 1
    outer loop
      vertex -16.5111 -17.0629 2
      vertex -17.4 -15.4 2
      vertex -16.8142 -16.8142 2
    endloop
  endfacet
  facet normal 0 0 1
    outer loop
      vertex -17.4 15.4 2
      vertex -17.2478 16.1654 2
      vertex -17.3616 15.7902 2
    endloop
  endfacet
  facet normal 0 0 1
    outer loop
      vertex -16.8142 -16.8142 2
      vertex -17.4 -15.4 2
      vertex -17.0629 -16.5111 2
    endloop
  endfacet
  facet normal 0 0 1
    outer loop
      vertex -17.0629 -16.5111 2
      vertex -17.4 -15.4 2
      vertex -17.2478 -16.1654 2
    endloop
  endfacet
  facet normal 0 0 1
    outer loop
      vertex -17.2478 -16.1654 2
      vertex -17.4 -15.4 2
      vertex -17.3616 -15.7902 2
    endloop
  endfacet
  facet normal -2.416e-08 7.32889e-09 1
    outer loop
      vertex -20.8478 19.7654 2
      vertex -20.9616 19.3902 2
      vertex 19 21 2
    endloop
  endfacet
  facet normal -2.22045e-16 0 -1
    outer loop
      vertex -21 -19 4.66294e-15
      vertex -19 -21 4.21885e-15
      vertex -19.3902 -20.9616 4.30548e-15
    endloop
  endfacet
  facet normal -2.22045e-16 0 -1
    outer loop
      vertex -19 -21 4.21885e-15
      vertex -21 -19 4.66294e-15
      vertex -19 21 4.21885e-15
    endloop
  endfacet
  facet normal -2.22045e-16 0 -1
    outer loop
      vertex -21 -19 4.66294e-15
      vertex -19.3902 -20.9616 4.30548e-15
      vertex -19.7654 -20.8478 4.38879e-15
    endloop
  endfacet
  facet normal -2.22045e-16 -0 -1
    outer loop
      vertex -21 19 4.66294e-15
      vertex -19 21 4.21885e-15
      vertex -21 -19 4.66294e-15
    endloop
  endfacet
  facet normal -2.22045e-16 0 -1
    outer loop
      vertex -21 -19 4.66294e-15
      vertex -19.7654 -20.8478 4.38879e-15
      vertex -20.1111 -20.6629 4.46557e-15
    endloop
  endfacet
  facet normal -2.22045e-16 0 -1
    outer loop
      vertex -19 21 4.21885e-15
      vertex -21 19 4.66294e-15
      vertex -19.3902 20.9616 4.30548e-15
    endloop
  endfacet
  facet normal -2.22045e-16 0 -1
    outer loop
      vertex -21 -19 4.66294e-15
      vertex -20.1111 -20.6629 4.46557e-15
      vertex -20.4142 -20.4142 4.53287e-15
    endloop
  endfacet
  facet normal -2.22045e-16 0 -1
    outer loop
      vertex -19.3902 20.9616 4.30548e-15
      vertex -21 19 4.66294e-15
      vertex -19.7654 20.8478 4.38879e-15
    endloop
  endfacet
  facet normal -2.22045e-16 0 -1
    outer loop
      vertex -21 -19 4.66294e-15
      vertex -20.4142 -20.4142 4.53287e-15
      vertex -20.6629 -20.1111 4.58809e-15
    endloop
  endfacet
  facet normal -2.22045e-16 0 -1
    outer loop
      vertex -19.7654 20.8478 4.38879e-15
      vertex -21 19 4.66294e-15
      vertex -20.1111 20.6629 4.46557e-15
    endloop
  endfacet
  facet normal -2.22045e-16 0 -1
    outer loop
      vertex -21 -19 4.66294e-15
      vertex -20.6629 -20.1111 4.58809e-15
      vertex -20.8478 -19.7654 4.62913e-15
    endloop
  endfacet
  facet normal -2.22045e-16 0 -1
    outer loop
      vertex -20.1111 20.6629 4.46557e-15
      vertex -21 19 4.66294e-15
      vertex -20.4142 20.4142 4.53287e-15
    endloop
  endfacet
  facet normal -2.22045e-16 0 -1
    outer loop
      vertex -21 -19 4.66294e-15
      vertex -20.8478 -19.7654 4.62913e-15
      vertex -20.9616 -19.3902 4.6544e-15
    endloop
  endfacet
  facet normal -2.22045e-16 0 -1
    outer loop
      vertex -20.4142 20.4142 4.53287e-15
      vertex -21 19 4.66294e-15
      vertex -20.6629 20.1111 4.58809e-15
    endloop
  endfacet
  facet normal -2.22045e-16 0 -1
    outer loop
      vertex -20.6629 20.1111 4.58809e-15
      vertex -21 19 4.66294e-15
      vertex -20.8478 19.7654 4.62913e-15
    endloop
  endfacet
  facet normal -2.22045e-16 0 -1
    outer loop
      vertex -20.8478 19.7654 4.62913e-15
      vertex -21 19 4.66294e-15
      vertex -20.9616 19.3902 4.6544e-15
    endloop
  endfacet
  facet normal 1 -0 0
    outer loop
      vertex 21 -19 2
      vertex 21 19 9.53674e-07
      vertex 21 19 2
    endloop
  endfacet
  facet normal 1 0 0
    outer loop
      vertex 21 19 9.53674e-07
      vertex 21 -19 2
      vertex 21 -19 9.53674e-07
    endloop
  endfacet
  facet normal 0.773009 -0.634395 0
    outer loop
      vertex 20.4142 -20.4142 2
      vertex 20.6629 -20.1111 9.53674e-07
      vertex 20.6629 -20.1111 2
    endloop
  endfacet
  facet normal 0.773009 -0.634395 0
    outer loop
      vertex 20.6629 -20.1111 9.53674e-07
      vertex 20.4142 -20.4142 2
      vertex 20.4142 -20.4142 9.53674e-07
    endloop
  endfacet
  facet normal 0.95694 -0.290286 0
    outer loop
      vertex 20.8478 -19.7654 2
      vertex 20.9616 -19.3902 9.53674e-07
      vertex 20.9616 -19.3902 2
    endloop
  endfacet
  facet normal 0.95694 -0.290286 0
    outer loop
      vertex 20.9616 -19.3902 9.53674e-07
      vertex 20.8478 -19.7654 2
      vertex 20.8478 -19.7654 9.53674e-07
    endloop
  endfacet
  facet normal -2.50967e-08 -2.54812e-07 1
    outer loop
      vertex -19.3902 -20.9616 2
      vertex -19 -21 2
      vertex 19 -21 2
    endloop
  endfacet
  facet normal 2.46425e-08 -3.00268e-08 -1
    outer loop
      vertex 20.1111 -20.6629 9.53674e-07
      vertex -19 -21 4.21885e-15
      vertex 20.4142 -20.4142 9.53674e-07
    endloop
  endfacet
  facet normal -0.995185 -0.0980167 0
    outer loop
      vertex -20.9616 -19.3902 4.6544e-15
      vertex -21 -19 2
      vertex -21 -19 4.66294e-15
    endloop
  endfacet
  facet normal -0.995184 -0.0980215 9.49082e-07
    outer loop
      vertex -21 -19 2
      vertex -20.9616 -19.3902 4.6544e-15
      vertex -20.9616 -19.3902 2
    endloop
  endfacet
  facet normal 0 -1 0
    outer loop
      vertex -19 -21 2
      vertex 19 -21 9.53674e-07
      vertex 19 -21 2
    endloop
  endfacet
  facet normal -0 -1 0
    outer loop
      vertex 19 -21 9.53674e-07
      vertex -19 -21 2
      vertex -19 -21 4.21885e-15
    endloop
  endfacet
  facet normal -0.773009 -0.634395 0
    outer loop
      vertex -20.4142 -20.4142 4.53287e-15
      vertex -20.6629 -20.1111 2
      vertex -20.6629 -20.1111 4.58809e-15
    endloop
  endfacet
  facet normal -0.773009 -0.634395 0
    outer loop
      vertex -20.6629 -20.1111 2
      vertex -20.4142 -20.4142 4.53287e-15
      vertex -20.4142 -20.4142 2
    endloop
  endfacet
  facet normal 2.46425e-08 3.00268e-08 -1
    outer loop
      vertex 20.4142 20.4142 9.53674e-07
      vertex -19 21 4.21885e-15
      vertex 20.1111 20.6629 9.53674e-07
    endloop
  endfacet
  facet normal 0.471395 0.881922 -0
    outer loop
      vertex 20.1111 20.6629 9.53674e-07
      vertex 19.7654 20.8478 2
      vertex 20.1111 20.6629 2
    endloop
  endfacet
  facet normal 0.471395 0.881922 0
    outer loop
      vertex 19.7654 20.8478 2
      vertex 20.1111 20.6629 9.53674e-07
      vertex 19.7654 20.8478 9.53674e-07
    endloop
  endfacet
  facet normal -2.50967e-08 2.54812e-07 1
    outer loop
      vertex -19 21 2
      vertex -19.3902 20.9616 2
      vertex 19 21 2
    endloop
  endfacet
  facet normal 2.47833e-08 -4.63665e-08 -1
    outer loop
      vertex 19.7654 -20.8478 9.53674e-07
      vertex -19 -21 4.21885e-15
      vertex 20.1111 -20.6629 9.53674e-07
    endloop
  endfacet
  facet normal 0 0 1
    outer loop
      vertex 19.0629 18.5111 2
      vertex 21 19 2
      vertex 20.9616 19.3902 2
    endloop
  endfacet
  facet normal 0 0 1
    outer loop
      vertex 21 19 2
      vertex 19.4 17.4 2
      vertex 21 -19 2
    endloop
  endfacet
  facet normal 0 0 1
    outer loop
      vertex 19 18.5878 2
      vertex 20.9616 19.3902 2
      vertex 20.8478 19.7654 2
    endloop
  endfacet
  facet normal -0 0 1
    outer loop
      vertex 19.4 -17.4 2
      vertex 21 -19 2
      vertex 19.4 17.4 2
    endloop
  endfacet
  facet normal 0 0 1
    outer loop
      vertex 19 18.5878 2
      vertex 20.8478 19.7654 2
      vertex 20.6629 20.1111 2
    endloop
  endfacet
  facet normal -0 0 1
    outer loop
      vertex 19.3616 -17.7902 2
      vertex 21 -19 2
      vertex 19.4 -17.4 2
    endloop
  endfacet
  facet normal 0 0 1
    outer loop
      vertex 19 18.5878 2
      vertex 20.6629 20.1111 2
      vertex 20.4142 20.4142 2
    endloop
  endfacet
  facet normal -0 0 1
    outer loop
      vertex 19.2478 -18.1654 2
      vertex 21 -19 2
      vertex 19.3616 -17.7902 2
    endloop
  endfacet
  facet normal 0 0 1
    outer loop
      vertex 19 18.5878 2
      vertex 20.4142 20.4142 2
      vertex 20.1111 20.6629 2
    endloop
  endfacet
  facet normal -0 0 1
    outer loop
      vertex 19.0629 -18.5111 2
      vertex 21 -19 2
      vertex 19.2478 -18.1654 2
    endloop
  endfacet
  facet normal 0 0 1
    outer loop
      vertex 19 18.5878 2
      vertex 20.1111 20.6629 2
      vertex 19.7654 20.8478 2
    endloop
  endfacet
  facet normal 0 0 1
    outer loop
      vertex 21 -19 2
      vertex 19.0629 -18.5111 2
      vertex 20.9616 -19.3902 2
    endloop
  endfacet
  facet normal -0 0 1
    outer loop
      vertex 19 -18.5878 2
      vertex 20.9616 -19.3902 2
      vertex 19.0629 -18.5111 2
    endloop
  endfacet
  facet normal 0 0 1
    outer loop
      vertex 19 18.5878 2
      vertex 19.7654 20.8478 2
      vertex 19.3902 20.9616 2
    endloop
  endfacet
  facet normal 0 0 1
    outer loop
      vertex 21 19 2
      vertex 19.3616 17.7902 2
      vertex 19.4 17.4 2
    endloop
  endfacet
  facet normal 0 0 1
    outer loop
      vertex 21 19 2
      vertex 19.2478 18.1654 2
      vertex 19.3616 17.7902 2
    endloop
  endfacet
  facet normal 0 0 1
    outer loop
      vertex 21 19 2
      vertex 19.0629 18.5111 2
      vertex 19.2478 18.1654 2
    endloop
  endfacet
  facet normal 0 0 1
    outer loop
      vertex 19 18.5878 2
      vertex 19.3902 20.9616 2
      vertex 19 21 2
    endloop
  endfacet
  facet normal 0 0 1
    outer loop
      vertex 20.9616 19.3902 2
      vertex 19 18.5878 2
      vertex 19.0629 18.5111 2
    endloop
  endfacet
  facet normal 0 0 1
    outer loop
      vertex 20.9616 -19.3902 2
      vertex 19 -18.5878 2
      vertex 20.8478 -19.7654 2
    endloop
  endfacet
  facet normal 0 0 1
    outer loop
      vertex 20.8478 -19.7654 2
      vertex 19 -18.5878 2
      vertex 20.6629 -20.1111 2
    endloop
  endfacet
  facet normal 0 0 1
    outer loop
      vertex 20.6629 -20.1111 2
      vertex 19 -18.5878 2
      vertex 20.4142 -20.4142 2
    endloop
  endfacet
  facet normal 0 0 1
    outer loop
      vertex 20.4142 -20.4142 2
      vertex 19 -18.5878 2
      vertex 20.1111 -20.6629 2
    endloop
  endfacet
  facet normal 0 0 1
    outer loop
      vertex 20.1111 -20.6629 2
      vertex 19 -18.5878 2
      vertex 19.7654 -20.8478 2
    endloop
  endfacet
  facet normal 0 0 1
    outer loop
      vertex 19.7654 -20.8478 2
      vertex 19 -18.5878 2
      vertex 19.3902 -20.9616 2
    endloop
  endfacet
  facet normal 0 0 1
    outer loop
      vertex 19.3902 -20.9616 2
      vertex 19 -18.5878 2
      vertex 19 -21 2
    endloop
  endfacet
  facet normal -0.95694 0.290286 9.1261e-07
    outer loop
      vertex -20.9616 19.3902 4.6544e-15
      vertex -20.8478 19.7654 2
      vertex -20.8478 19.7654 4.62913e-15
    endloop
  endfacet
  facet normal -0.95694 0.290286 9.1261e-07
    outer loop
      vertex -20.8478 19.7654 2
      vertex -20.9616 19.3902 4.6544e-15
      vertex -20.9616 19.3902 2
    endloop
  endfacet
  facet normal -0.773009 0.634395 0
    outer loop
      vertex -20.6629 20.1111 4.58809e-15
      vertex -20.4142 20.4142 2
      vertex -20.4142 20.4142 4.53287e-15
    endloop
  endfacet
  facet normal -0.773009 0.634395 0
    outer loop
      vertex -20.4142 20.4142 2
      vertex -20.6629 20.1111 4.58809e-15
      vertex -20.6629 20.1111 2
    endloop
  endfacet
  facet normal -0.995185 0.0980167 9.49083e-07
    outer loop
      vertex -21 19 4.66294e-15
      vertex -20.9616 19.3902 2
      vertex -20.9616 19.3902 4.6544e-15
    endloop
  endfacet
  facet normal -0.995184 0.0980215 0
    outer loop
      vertex -20.9616 19.3902 2
      vertex -21 19 4.66294e-15
      vertex -21 19 2
    endloop
  endfacet
  facet normal 0.881922 0.471395 0
    outer loop
      vertex 20.8478 19.7654 2
      vertex 20.6629 20.1111 9.53674e-07
      vertex 20.6629 20.1111 2
    endloop
  endfacet
  facet normal 0.881922 0.471395 0
    outer loop
      vertex 20.6629 20.1111 9.53674e-07
      vertex 20.8478 19.7654 2
      vertex 20.8478 19.7654 9.53674e-07
    endloop
  endfacet
  facet normal 2.39598e-08 2.35983e-09 -1
    outer loop
      vertex 21 19 9.53674e-07
      vertex -19 21 4.21885e-15
      vertex 20.9616 19.3902 9.53674e-07
    endloop
  endfacet
  facet normal 2.4495e-08 -2.01026e-08 -1
    outer loop
      vertex 20.4142 -20.4142 9.53674e-07
      vertex -19 -21 4.21885e-15
      vertex 20.6629 -20.1111 9.53674e-07
    endloop
  endfacet
  facet normal 2.4336e-08 -1.30078e-08 -1
    outer loop
      vertex 20.6629 -20.1111 9.53674e-07
      vertex -19 -21 4.21885e-15
      vertex 20.8478 -19.7654 9.53674e-07
    endloop
  endfacet
  facet normal 0.995185 -0.0980167 0
    outer loop
      vertex 20.9616 -19.3902 2
      vertex 21 -19 9.53674e-07
      vertex 21 -19 2
    endloop
  endfacet
  facet normal 0.995185 -0.0980167 0
    outer loop
      vertex 21 -19 9.53674e-07
      vertex 20.9616 -19.3902 2
      vertex 20.9616 -19.3902 9.53674e-07
    endloop
  endfacet
  facet normal 0.881922 -0.471395 0
    outer loop
      vertex 20.6629 -20.1111 2
      vertex 20.8478 -19.7654 9.53674e-07
      vertex 20.8478 -19.7654 2
    endloop
  endfacet
  facet normal 0.881922 -0.471395 0
    outer loop
      vertex 20.8478 -19.7654 9.53674e-07
      vertex 20.6629 -20.1111 2
      vertex 20.6629 -20.1111 9.53674e-07
    endloop
  endfacet
  facet normal 2.49239e-08 -8.21627e-08 -1
    outer loop
      vertex 19.3902 -20.9616 9.53674e-07
      vertex -19 -21 4.21885e-15
      vertex 19.7654 -20.8478 9.53674e-07
    endloop
  endfacet
  facet normal -0.95694 -0.290286 9.1261e-07
    outer loop
      vertex -20.8478 -19.7654 4.62913e-15
      vertex -20.9616 -19.3902 2
      vertex -20.9616 -19.3902 4.6544e-15
    endloop
  endfacet
  facet normal -0.95694 -0.290286 9.1261e-07
    outer loop
      vertex -20.9616 -19.3902 2
      vertex -20.8478 -19.7654 4.62913e-15
      vertex -20.8478 -19.7654 2
    endloop
  endfacet
  facet normal -0.471397 -0.881921 4.4956e-07
    outer loop
      vertex -20.1111 -20.6629 4.46557e-15
      vertex -19.7654 -20.8478 2
      vertex -20.1111 -20.6629 2
    endloop
  endfacet
  facet normal -0.471395 -0.881922 -0
    outer loop
      vertex -19.7654 -20.8478 2
      vertex -20.1111 -20.6629 4.46557e-15
      vertex -19.7654 -20.8478 4.38879e-15
    endloop
  endfacet
  facet normal 0.95694 0.290286 0
    outer loop
      vertex 20.9616 19.3902 2
      vertex 20.8478 19.7654 9.53674e-07
      vertex 20.8478 19.7654 2
    endloop
  endfacet
  facet normal 0.95694 0.290286 0
    outer loop
      vertex 20.8478 19.7654 9.53674e-07
      vertex 20.9616 19.3902 2
      vertex 20.9616 19.3902 9.53674e-07
    endloop
  endfacet
  facet normal 0.290286 0.95694 -0
    outer loop
      vertex 19.7654 20.8478 9.53674e-07
      vertex 19.3902 20.9616 2
      vertex 19.7654 20.8478 2
    endloop
  endfacet
  facet normal 0.290286 0.95694 0
    outer loop
      vertex 19.3902 20.9616 2
      vertex 19.7654 20.8478 9.53674e-07
      vertex 19.3902 20.9616 9.53674e-07
    endloop
  endfacet
  facet normal -2.47833e-08 4.63662e-08 1
    outer loop
      vertex -19.7654 20.8478 2
      vertex -20.1111 20.6629 2
      vertex 19 21 2
    endloop
  endfacet
  facet normal -2.46425e-08 -3.0027e-08 1
    outer loop
      vertex -20.4142 -20.4142 2
      vertex -20.1111 -20.6629 2
      vertex 19 -21 2
    endloop
  endfacet
  facet normal -2.4336e-08 1.30077e-08 1
    outer loop
      vertex -20.6629 20.1111 2
      vertex -20.8478 19.7654 2
      vertex 19 21 2
    endloop
  endfacet
  facet normal -2.70931e-08 9.48267e-08 1
    outer loop
      vertex 19 21 2
      vertex -17.4 19.4 2
      vertex -13 19.4 2
    endloop
  endfacet
  facet normal -3.41767e-08 2.5598e-07 1
    outer loop
      vertex -20.9616 19.3902 2
      vertex -17.4 19.4 2
      vertex 19 21 2
    endloop
  endfacet
  facet normal -3.44349e-08 3.49625e-07 1
    outer loop
      vertex -20.9616 19.3902 2
      vertex -17.7902 19.3616 2
      vertex -17.4 19.4 2
    endloop
  endfacet
  facet normal -3.65034e-08 1.20335e-07 1
    outer loop
      vertex -20.9616 19.3902 2
      vertex -18.1654 19.2478 2
      vertex -17.7902 19.3616 2
    endloop
  endfacet
  facet normal -3.89235e-08 7.28213e-08 1
    outer loop
      vertex -20.9616 19.3902 2
      vertex -18.3842 19.1308 2
      vertex -18.1654 19.2478 2
    endloop
  endfacet
  facet normal -4.57983e-08 4.51094e-09 1
    outer loop
      vertex -18.3842 19.1308 2
      vertex -20.9616 19.3902 2
      vertex -21 19 2
    endloop
  endfacet
  facet normal 0.773009 0.634395 0
    outer loop
      vertex 20.6629 20.1111 2
      vertex 20.4142 20.4142 9.53674e-07
      vertex 20.4142 20.4142 2
    endloop
  endfacet
  facet normal 0.773009 0.634395 0
    outer loop
      vertex 20.4142 20.4142 9.53674e-07
      vertex 20.6629 20.1111 2
      vertex 20.6629 20.1111 9.53674e-07
    endloop
  endfacet
  facet normal 2.416e-08 7.32889e-09 -1
    outer loop
      vertex 20.9616 19.3902 9.53674e-07
      vertex -19 21 4.21885e-15
      vertex 20.8478 19.7654 9.53674e-07
    endloop
  endfacet
  facet normal 2.4336e-08 1.30078e-08 -1
    outer loop
      vertex 20.8478 19.7654 9.53674e-07
      vertex -19 21 4.21885e-15
      vertex 20.6629 20.1111 9.53674e-07
    endloop
  endfacet
  facet normal 0.0980167 -0.995185 0
    outer loop
      vertex 19 -21 9.53674e-07
      vertex 19.3902 -20.9616 2
      vertex 19 -21 2
    endloop
  endfacet
  facet normal 0.0980167 -0.995185 0
    outer loop
      vertex 19.3902 -20.9616 2
      vertex 19 -21 9.53674e-07
      vertex 19.3902 -20.9616 9.53674e-07
    endloop
  endfacet
  facet normal 0.634395 -0.773009 0
    outer loop
      vertex 20.1111 -20.6629 9.53674e-07
      vertex 20.4142 -20.4142 2
      vertex 20.1111 -20.6629 2
    endloop
  endfacet
  facet normal 0.634395 -0.773009 0
    outer loop
      vertex 20.4142 -20.4142 2
      vertex 20.1111 -20.6629 9.53674e-07
      vertex 20.4142 -20.4142 9.53674e-07
    endloop
  endfacet
  facet normal 0.471395 -0.881922 0
    outer loop
      vertex 19.7654 -20.8478 9.53674e-07
      vertex 20.1111 -20.6629 2
      vertex 19.7654 -20.8478 2
    endloop
  endfacet
  facet normal 0.471395 -0.881922 0
    outer loop
      vertex 20.1111 -20.6629 2
      vertex 19.7654 -20.8478 9.53674e-07
      vertex 20.1111 -20.6629 9.53674e-07
    endloop
  endfacet
  facet normal -0.0980167 -0.995185 0
    outer loop
      vertex -19.3902 -20.9616 4.30548e-15
      vertex -19 -21 2
      vertex -19.3902 -20.9616 2
    endloop
  endfacet
  facet normal -0.0980167 -0.995185 -0
    outer loop
      vertex -19 -21 2
      vertex -19.3902 -20.9616 4.30548e-15
      vertex -19 -21 4.21885e-15
    endloop
  endfacet
  facet normal 2.47833e-08 4.63665e-08 -1
    outer loop
      vertex 20.1111 20.6629 9.53674e-07
      vertex -19 21 4.21885e-15
      vertex 19.7654 20.8478 9.53674e-07
    endloop
  endfacet
  facet normal 2.49239e-08 8.21627e-08 -1
    outer loop
      vertex 19.7654 20.8478 9.53674e-07
      vertex -19 21 4.21885e-15
      vertex 19.3902 20.9616 9.53674e-07
    endloop
  endfacet
  facet normal 0.0980167 0.995185 -0
    outer loop
      vertex 19.3902 20.9616 9.53674e-07
      vertex 19 21 2
      vertex 19.3902 20.9616 2
    endloop
  endfacet
  facet normal 0.0980167 0.995185 0
    outer loop
      vertex 19 21 2
      vertex 19.3902 20.9616 9.53674e-07
      vertex 19 21 9.53674e-07
    endloop
  endfacet
  facet normal -0.634393 0.773011 0
    outer loop
      vertex -20.1111 20.6629 2
      vertex -20.4142 20.4142 4.53287e-15
      vertex -20.4142 20.4142 2
    endloop
  endfacet
  facet normal -0.634395 0.773009 6.05007e-07
    outer loop
      vertex -20.4142 20.4142 4.53287e-15
      vertex -20.1111 20.6629 2
      vertex -20.1111 20.6629 4.46557e-15
    endloop
  endfacet
  facet normal -2.49239e-08 8.21627e-08 1
    outer loop
      vertex -19.3902 20.9616 2
      vertex -19.7654 20.8478 2
      vertex 19 21 2
    endloop
  endfacet
  facet normal -2.46425e-08 3.0027e-08 1
    outer loop
      vertex -20.1111 20.6629 2
      vertex -20.4142 20.4142 2
      vertex 19 21 2
    endloop
  endfacet
  facet normal -0.290286 -0.95694 0
    outer loop
      vertex -19.7654 -20.8478 4.38879e-15
      vertex -19.3902 -20.9616 2
      vertex -19.7654 -20.8478 2
    endloop
  endfacet
  facet normal -0.290286 -0.95694 -0
    outer loop
      vertex -19.3902 -20.9616 2
      vertex -19.7654 -20.8478 4.38879e-15
      vertex -19.3902 -20.9616 4.30548e-15
    endloop
  endfacet
  facet normal -2.49239e-08 -8.21627e-08 1
    outer loop
      vertex -19.7654 -20.8478 2
      vertex -19.3902 -20.9616 2
      vertex 19 -21 2
    endloop
  endfacet
  facet normal -2.4336e-08 -1.30077e-08 1
    outer loop
      vertex -20.8478 -19.7654 2
      vertex -20.6629 -20.1111 2
      vertex 19 -21 2
    endloop
  endfacet
  facet normal -0.881922 -0.471395 8.41067e-07
    outer loop
      vertex -20.6629 -20.1111 4.58809e-15
      vertex -20.8478 -19.7654 2
      vertex -20.8478 -19.7654 4.62913e-15
    endloop
  endfacet
  facet normal -0.881924 -0.471391 0
    outer loop
      vertex -20.8478 -19.7654 2
      vertex -20.6629 -20.1111 4.58809e-15
      vertex -20.6629 -20.1111 2
    endloop
  endfacet
  facet normal -0.634393 -0.773011 0
    outer loop
      vertex -20.4142 -20.4142 4.53287e-15
      vertex -20.1111 -20.6629 2
      vertex -20.4142 -20.4142 2
    endloop
  endfacet
  facet normal -0.634395 -0.773009 6.05007e-07
    outer loop
      vertex -20.1111 -20.6629 2
      vertex -20.4142 -20.4142 4.53287e-15
      vertex -20.1111 -20.6629 4.46557e-15
    endloop
  endfacet
  facet normal 0.290286 -0.95694 0
    outer loop
      vertex 19.3902 -20.9616 9.53674e-07
      vertex 19.7654 -20.8478 2
      vertex 19.3902 -20.9616 2
    endloop
  endfacet
  facet normal 0.290286 -0.95694 0
    outer loop
      vertex 19.7654 -20.8478 2
      vertex 19.3902 -20.9616 9.53674e-07
      vertex 19.7654 -20.8478 9.53674e-07
    endloop
  endfacet
  facet normal -0.290286 0.95694 0
    outer loop
      vertex -19.3902 20.9616 2
      vertex -19.7654 20.8478 4.38879e-15
      vertex -19.7654 20.8478 2
    endloop
  endfacet
  facet normal -0.290286 0.95694 0
    outer loop
      vertex -19.7654 20.8478 4.38879e-15
      vertex -19.3902 20.9616 2
      vertex -19.3902 20.9616 4.30548e-15
    endloop
  endfacet
  facet normal -0.0980167 0.995185 0
    outer loop
      vertex -19 21 2
      vertex -19.3902 20.9616 4.30548e-15
      vertex -19.3902 20.9616 2
    endloop
  endfacet
  facet normal -0.0980167 0.995185 0
    outer loop
      vertex -19.3902 20.9616 4.30548e-15
      vertex -19 21 2
      vertex -19 21 4.21885e-15
    endloop
  endfacet
  facet normal -0.471397 0.881921 4.4956e-07
    outer loop
      vertex -19.7654 20.8478 2
      vertex -20.1111 20.6629 4.46557e-15
      vertex -20.1111 20.6629 2
    endloop
  endfacet
  facet normal -0.471395 0.881922 0
    outer loop
      vertex -20.1111 20.6629 4.46557e-15
      vertex -19.7654 20.8478 2
      vertex -19.7654 20.8478 4.38879e-15
    endloop
  endfacet
  facet normal -2.47833e-08 -4.63662e-08 1
    outer loop
      vertex -20.1111 -20.6629 2
      vertex -19.7654 -20.8478 2
      vertex 19 -21 2
    endloop
  endfacet
  facet normal -2.416e-08 -7.32889e-09 1
    outer loop
      vertex -20.9616 -19.3902 2
      vertex -20.8478 -19.7654 2
      vertex 19 -21 2
    endloop
  endfacet
  facet normal -2.4495e-08 -2.01026e-08 1
    outer loop
      vertex -20.6629 -20.1111 2
      vertex -20.4142 -20.4142 2
      vertex 19 -21 2
    endloop
  endfacet
  facet normal -0.980785 -0.19509 0
    outer loop
      vertex 13.24 -10.39 9.53674e-07
      vertex 13.1639 -10.0073 2
      vertex 13.1639 -10.0073 9.53674e-07
    endloop
  endfacet
  facet normal -0.980785 -0.19509 0
    outer loop
      vertex 13.1639 -10.0073 2
      vertex 13.24 -10.39 9.53674e-07
      vertex 13.24 -10.39 2
    endloop
  endfacet
  facet normal 0.980785 0.19509 0
    outer loop
      vertex 10.1161 -13.2727 2
      vertex 10.04 -12.89 6.92368e-07
      vertex 10.04 -12.89 2
    endloop
  endfacet
  facet normal 0.980785 0.19509 0
    outer loop
      vertex 10.04 -12.89 6.92368e-07
      vertex 10.1161 -13.2727 2
      vertex 10.1161 -13.2727 6.94182e-07
    endloop
  endfacet
  facet normal -5.31059e-06 -3.54844e-06 1
    outer loop
      vertex 12.9471 -9.68289 9.53674e-07
      vertex 13.0564 -9.89984 7.64284e-07
      vertex 13.1639 -10.0073 9.53674e-07
    endloop
  endfacet
  facet normal -5.3106e-06 -3.54844e-06 1
    outer loop
      vertex 13.0564 -9.89984 7.64284e-07
      vertex 12.9471 -9.68289 9.53674e-07
      vertex 12.8813 -9.6389 7.60108e-07
    endloop
  endfacet
  facet normal -1 0 0
    outer loop
      vertex 13.24 -12.89 9.53674e-07
      vertex 13.24 -10.39 2
      vertex 13.24 -10.39 9.53674e-07
    endloop
  endfacet
  facet normal -1 -0 0
    outer loop
      vertex 13.24 -10.39 2
      vertex 13.24 -12.89 9.53674e-07
      vertex 13.24 -12.89 2
    endloop
  endfacet
  facet normal -0.55557 -0.83147 2.35811e-08
    outer loop
      vertex 12.8813 -9.6389 7.60108e-07
      vertex 12.9471 -9.68289 2
      vertex 12.6227 -9.46612 2
    endloop
  endfacet
  facet normal -0.55557 -0.83147 -0
    outer loop
      vertex 12.9471 -9.68289 2
      vertex 12.8813 -9.6389 7.60108e-07
      vertex 12.9471 -9.68289 9.53674e-07
    endloop
  endfacet
  facet normal -0.55557 -0.83147 0
    outer loop
      vertex 12.8813 -9.6389 7.60108e-07
      vertex 12.6227 -9.46612 2
      vertex 12.6227 -9.46612 7.53943e-07
    endloop
  endfacet
  facet normal -0.831469 -0.555571 0
    outer loop
      vertex 13.1639 -10.0073 9.53674e-07
      vertex 12.9471 -9.68289 2
      vertex 12.9471 -9.68289 9.53674e-07
    endloop
  endfacet
  facet normal -0.831469 -0.555571 0
    outer loop
      vertex 12.9471 -9.68289 2
      vertex 13.1639 -10.0073 9.53674e-07
      vertex 13.1639 -10.0073 2
    endloop
  endfacet
  facet normal 0.980785 -0.19509 0
    outer loop
      vertex 10.04 -10.39 2
      vertex 10.1161 -10.0073 6.94182e-07
      vertex 10.1161 -10.0073 2
    endloop
  endfacet
  facet normal 0.980785 -0.19509 0
    outer loop
      vertex 10.1161 -10.0073 6.94182e-07
      vertex 10.04 -10.39 2
      vertex 10.04 -10.39 6.92368e-07
    endloop
  endfacet
  facet normal 1 -0 0
    outer loop
      vertex 10.04 -12.89 2
      vertex 10.04 -10.39 6.92368e-07
      vertex 10.04 -10.39 2
    endloop
  endfacet
  facet normal 1 0 0
    outer loop
      vertex 10.04 -10.39 6.92368e-07
      vertex 10.04 -12.89 2
      vertex 10.04 -12.89 6.92368e-07
    endloop
  endfacet
  facet normal 0.83147 -0.55557 0
    outer loop
      vertex 10.1161 -10.0073 2
      vertex 10.3329 -9.68289 6.99351e-07
      vertex 10.3329 -9.68289 2
    endloop
  endfacet
  facet normal 0.83147 -0.55557 0
    outer loop
      vertex 10.3329 -9.68289 6.99351e-07
      vertex 10.1161 -10.0073 2
      vertex 10.1161 -10.0073 6.94182e-07
    endloop
  endfacet
  facet normal -2.19971e-06 -4.37549e-07 1
    outer loop
      vertex 13.1639 -10.0073 9.53674e-07
      vertex 13.1184 -10.208 7.65761e-07
      vertex 13.24 -10.39 9.53674e-07
    endloop
  endfacet
  facet normal -2.19971e-06 -4.37551e-07 1
    outer loop
      vertex 13.1184 -10.208 7.65761e-07
      vertex 13.1639 -10.0073 9.53674e-07
      vertex 13.0564 -9.89984 7.64284e-07
    endloop
  endfacet
  facet normal -0.831469 0.555571 0
    outer loop
      vertex 12.9471 -13.5971 9.53674e-07
      vertex 13.1639 -13.2727 2
      vertex 13.1639 -13.2727 9.53674e-07
    endloop
  endfacet
  facet normal -0.831469 0.555571 0
    outer loop
      vertex 13.1639 -13.2727 2
      vertex 12.9471 -13.5971 9.53674e-07
      vertex 12.9471 -13.5971 2
    endloop
  endfacet
  facet normal -1.54487e-06 0 1
    outer loop
      vertex 13.1184 -10.208 7.65761e-07
      vertex 13.24 -12.89 9.53674e-07
      vertex 13.24 -10.39 9.53674e-07
    endloop
  endfacet
  facet normal -1.54487e-06 0 1
    outer loop
      vertex 13.24 -12.89 9.53674e-07
      vertex 13.1184 -10.208 7.65761e-07
      vertex 13.1184 -13.072 7.65761e-07
    endloop
  endfacet
  facet normal 0.19509 0.980785 -0
    outer loop
      vertex 11.04 -13.89 7.16209e-07
      vertex 10.6573 -13.8139 2
      vertex 11.04 -13.89 2
    endloop
  endfacet
  facet normal 0.19509 0.980785 0
    outer loop
      vertex 10.6573 -13.8139 2
      vertex 11.04 -13.89 7.16209e-07
      vertex 10.6573 -13.8139 7.07086e-07
    endloop
  endfacet
  facet normal -2.19971e-06 4.37549e-07 1
    outer loop
      vertex 13.1184 -13.072 7.65761e-07
      vertex 13.1639 -13.2727 9.53674e-07
      vertex 13.24 -12.89 9.53674e-07
    endloop
  endfacet
  facet normal -2.19971e-06 4.37551e-07 1
    outer loop
      vertex 13.1639 -13.2727 9.53674e-07
      vertex 13.1184 -13.072 7.65761e-07
      vertex 13.0564 -13.3802 7.64284e-07
    endloop
  endfacet
  facet normal -5.31059e-06 3.54844e-06 1
    outer loop
      vertex 13.0564 -13.3802 7.64284e-07
      vertex 12.9471 -13.5971 9.53674e-07
      vertex 13.1639 -13.2727 9.53674e-07
    endloop
  endfacet
  facet normal -5.3106e-06 3.54844e-06 1
    outer loop
      vertex 12.9471 -13.5971 9.53674e-07
      vertex 13.0564 -13.3802 7.64284e-07
      vertex 12.8813 -13.6411 7.60108e-07
    endloop
  endfacet
  facet normal -0.980785 0.19509 0
    outer loop
      vertex 13.1639 -13.2727 9.53674e-07
      vertex 13.24 -12.89 2
      vertex 13.24 -12.89 9.53674e-07
    endloop
  endfacet
  facet normal -0.980785 0.19509 0
    outer loop
      vertex 13.24 -12.89 2
      vertex 13.1639 -13.2727 9.53674e-07
      vertex 13.1639 -13.2727 2
    endloop
  endfacet
  facet normal 0.55557 0.83147 -0
    outer loop
      vertex 10.6573 -13.8139 7.07086e-07
      vertex 10.3329 -13.5971 2
      vertex 10.6573 -13.8139 2
    endloop
  endfacet
  facet normal 0.55557 0.83147 0
    outer loop
      vertex 10.3329 -13.5971 2
      vertex 10.6573 -13.8139 7.07086e-07
      vertex 10.3329 -13.5971 6.99351e-07
    endloop
  endfacet
  facet normal 0.83147 0.55557 0
    outer loop
      vertex 10.3329 -13.5971 2
      vertex 10.1161 -13.2727 6.94182e-07
      vertex 10.1161 -13.2727 2
    endloop
  endfacet
  facet normal 0.83147 0.55557 0
    outer loop
      vertex 10.1161 -13.2727 6.94182e-07
      vertex 10.3329 -13.5971 2
      vertex 10.3329 -13.5971 6.99351e-07
    endloop
  endfacet
  facet normal 0.55557 -0.83147 0
    outer loop
      vertex 10.3329 -9.68289 2
      vertex 10.6573 -9.46612 7.07086e-07
      vertex 10.6573 -9.46612 2
    endloop
  endfacet
  facet normal 0.55557 -0.83147 0
    outer loop
      vertex 10.6573 -9.46612 7.07086e-07
      vertex 10.3329 -9.68289 2
      vertex 10.3329 -9.68289 6.99351e-07
    endloop
  endfacet
  facet normal 0 -1 0
    outer loop
      vertex 11.04 -9.39 2
      vertex 12.24 -9.39 7.4482e-07
      vertex 12.24 -9.39 2
    endloop
  endfacet
  facet normal -0 -1 0
    outer loop
      vertex 12.24 -9.39 7.4482e-07
      vertex 11.04 -9.39 2
      vertex 11.04 -9.39 7.16209e-07
    endloop
  endfacet
  facet normal -0.19509 -0.980785 0
    outer loop
      vertex 12.24 -9.39 2
      vertex 12.6227 -9.46612 7.53943e-07
      vertex 12.6227 -9.46612 2
    endloop
  endfacet
  facet normal -0.19509 -0.980785 0
    outer loop
      vertex 12.6227 -9.46612 7.53943e-07
      vertex 12.24 -9.39 2
      vertex 12.24 -9.39 7.4482e-07
    endloop
  endfacet
  facet normal -0.55557 0.83147 0
    outer loop
      vertex 12.8813 -13.6411 7.60108e-07
      vertex 12.9471 -13.5971 2
      vertex 12.9471 -13.5971 9.53674e-07
    endloop
  endfacet
  facet normal -0.55557 0.83147 2.35811e-08
    outer loop
      vertex 12.9471 -13.5971 2
      vertex 12.8813 -13.6411 7.60108e-07
      vertex 12.6227 -13.8139 2
    endloop
  endfacet
  facet normal -0.55557 0.83147 0
    outer loop
      vertex 12.6227 -13.8139 2
      vertex 12.8813 -13.6411 7.60108e-07
      vertex 12.6227 -13.8139 7.53943e-07
    endloop
  endfacet
  facet normal -0.19509 0.980785 0
    outer loop
      vertex 12.6227 -13.8139 7.53943e-07
      vertex 12.24 -13.89 2
      vertex 12.6227 -13.8139 2
    endloop
  endfacet
  facet normal -0.19509 0.980785 0
    outer loop
      vertex 12.24 -13.89 2
      vertex 12.6227 -13.8139 7.53943e-07
      vertex 12.24 -13.89 7.4482e-07
    endloop
  endfacet
  facet normal 0 1 -0
    outer loop
      vertex 12.24 -13.89 7.4482e-07
      vertex 11.04 -13.89 2
      vertex 12.24 -13.89 2
    endloop
  endfacet
  facet normal 0 1 0
    outer loop
      vertex 11.04 -13.89 2
      vertex 12.24 -13.89 7.4482e-07
      vertex 11.04 -13.89 7.16209e-07
    endloop
  endfacet
  facet normal 0.19509 -0.980785 0
    outer loop
      vertex 10.6573 -9.46612 2
      vertex 11.04 -9.39 7.16209e-07
      vertex 11.04 -9.39 2
    endloop
  endfacet
  facet normal 0.19509 -0.980785 0
    outer loop
      vertex 11.04 -9.39 7.16209e-07
      vertex 10.6573 -9.46612 2
      vertex 10.6573 -9.46612 7.07086e-07
    endloop
  endfacet
endsolid OpenSCAD_Model
